<svg width="800" height="800"><defs><style type="text/css">@import url('https://fonts.googleapis.com/css2?family=Ubuntu');</style></defs><path fill="#818081" d="M160, 41 v51 q0,10,10,10 h366 q10,0,10,-10 v-51 h386"></path><rect x="148" y="49" width="22" height="15" rx="1" fill="#F5C51F"></rect><text x="176" y="61.5" fill="white" text-anchor="start" font-size="medium" font-family="Ubuntu">Studio Object</text><g filter="url(#filter0_di_2556_19132)"><rect x="148" y="70" width="22" height="15" rx="1" fill="#784283"></rect></g><g filter="url(#filter1_di_2556_19132)"><rect x="94" y="66" width="45" height="23" rx="1" fill="#784283"></rect><rect x="98" y="70.001" width="37" height="15" rx="1" fill="#818081"></rect></g><g filter="url(#filter2_di_2556_19132)"><rect x="139" y="74" width="9" height="7" fill="#784283"></rect></g><text x="176" y="82.5" fill="white" text-anchor="start" font-size="medium" font-family="Ubuntu">Property</text><rect x="534" y="49" width="22" height="15" rx="1" fill="#186BDD"></rect><text x="530" y="61.5" fill="white" text-anchor="end" font-size="medium" font-family="Ubuntu">Value</text><path d="M160, 41 v-31 q0,-10,10,-10 h366 q10,0,10,10 v31 h-386" fill="#525152"></path><text x="353" y="28.5" fill="white" text-anchor="middle" font-size="medium" font-family="Ubuntu">Studio Object Get Property - Float</text></svg>