<svg width="800" height="800"><defs><style type="text/css">@import url('https://fonts.googleapis.com/css2?family=Ubuntu');</style></defs><path fill="#818081" d="M160, 41 v151 q0,10,10,10 h278 q10,0,10,-10 v-151 h298"></path><rect x="446" y="49" width="22" height="15" rx="1" fill="#106522"></rect><text x="442" y="61.5" fill="white" text-anchor="end" font-size="medium" font-family="Ubuntu">Year</text><rect x="446" y="70" width="22" height="15" rx="1" fill="#106522"></rect><text x="442" y="82.5" fill="white" text-anchor="end" font-size="medium" font-family="Ubuntu">Month</text><rect x="446" y="91" width="22" height="15" rx="1" fill="#106522"></rect><text x="442" y="103.5" fill="white" text-anchor="end" font-size="medium" font-family="Ubuntu">Day</text><rect x="446" y="112" width="22" height="15" rx="1" fill="#106522"></rect><text x="442" y="124.5" fill="white" text-anchor="end" font-size="medium" font-family="Ubuntu">Hour</text><rect x="446" y="133" width="22" height="15" rx="1" fill="#106522"></rect><text x="442" y="145.5" fill="white" text-anchor="end" font-size="medium" font-family="Ubuntu">Minute</text><rect x="446" y="154" width="22" height="15" rx="1" fill="#106522"></rect><text x="442" y="166.5" fill="white" text-anchor="end" font-size="medium" font-family="Ubuntu">Second</text><path d="M160, 41 v-31 q0,-10,10,-10 h278 q10,0,10,10 v31 h-298" fill="#525152"></path><text x="309" y="28.5" fill="white" text-anchor="middle" font-size="medium" font-family="Ubuntu">Time Get Universal Time</text></svg>