<svg width="800" height="800"><defs><style type="text/css">@import url('https://fonts.googleapis.com/css2?family=Ubuntu');</style></defs><path fill="#818081" d="M160, 41 v76 q0,10,10,10 h254 q10,0,10,-10 v-76 h274"></path><rect x="148" y="49" width="22" height="15" rx="1" fill="#F6EEE8"></rect><text x="176" y="61.5" fill="white" text-anchor="start" font-size="medium" font-family="Ubuntu">Object</text><rect x="422" y="49" width="22" height="15" rx="1" fill="#106522"></rect><text x="418" y="61.5" fill="white" text-anchor="end" font-size="medium" font-family="Ubuntu">Health</text><rect x="422" y="70" width="22" height="15" rx="1" fill="#106522"></rect><text x="418" y="82.5" fill="white" text-anchor="end" font-size="medium" font-family="Ubuntu">Shield</text><rect x="422" y="91" width="22" height="15" rx="1" fill="#106522"></rect><text x="418" y="103.5" fill="white" text-anchor="end" font-size="medium" font-family="Ubuntu">Max Health</text><path d="M160, 41 v-31 q0,-10,10,-10 h254 q10,0,10,10 v31 h-274" fill="#525152"></path><text x="297" y="28.5" fill="white" text-anchor="middle" font-size="medium" font-family="Ubuntu">Combatant Get Health</text></svg>