<svg width="800" height="800"><defs><style type="text/css">@import url('https://fonts.googleapis.com/css2?family=Ubuntu');</style></defs><path fill="#818081" d="M160, 41 v101 q0,10,10,10 h342 q10,0,10,-10 v-101 h362"></path><rect x="148" y="49" width="22" height="15" rx="1" fill="#F5C51F"></rect><text x="176" y="61.5" fill="white" text-anchor="start" font-size="medium" font-family="Ubuntu">AI</text><rect x="510" y="49" width="22" height="15" rx="1" fill="#784283"></rect><text x="506" y="61.5" fill="white" text-anchor="end" font-size="medium" font-family="Ubuntu">Vision Type</text><rect x="510" y="70" width="22" height="15" rx="1" fill="#186BDD"></rect><text x="506" y="82.5" fill="white" text-anchor="end" font-size="medium" font-family="Ubuntu">Vision Range (m)</text><rect x="510" y="91" width="22" height="15" rx="1" fill="#186BDD"></rect><text x="506" y="103.5" fill="white" text-anchor="end" font-size="medium" font-family="Ubuntu">Vision Cone Angle</text><rect x="510" y="112" width="22" height="15" rx="1" fill="#186BDD"></rect><text x="506" y="124.5" fill="white" text-anchor="end" font-size="medium" font-family="Ubuntu">Hearing Range (m)</text><path d="M160, 41 v-31 q0,-10,10,-10 h342 q10,0,10,10 v31 h-362" fill="#525152"></path><text x="341" y="28.5" fill="white" text-anchor="middle" font-size="medium" font-family="Ubuntu">AI Get Line of Sight Parameters</text></svg>