<svg width="800" height="800"><defs><style type="text/css">@import url('https://fonts.googleapis.com/css2?family=Ubuntu');</style></defs><path fill="#818081" d="M160, 41 v76 q0,10,10,10 h182 q10,0,10,-10 v-76 h202"></path><rect x="148" y="49" width="22" height="15" rx="1" fill="#F6EEE8"></rect><text x="176" y="61.5" fill="white" text-anchor="start" font-size="medium" font-family="Ubuntu">Origin</text><rect x="148" y="70" width="22" height="15" rx="1" fill="#F6EEE8"></rect><text x="176" y="82.5" fill="white" text-anchor="start" font-size="medium" font-family="Ubuntu">Targets</text><rect x="350" y="49" width="22" height="15" rx="1" fill="#F6EEE8"></rect><text x="346" y="61.5" fill="white" text-anchor="end" font-size="medium" font-family="Ubuntu">Closest</text><rect x="350" y="70" width="22" height="15" rx="1" fill="#106522"></rect><text x="346" y="82.5" fill="white" text-anchor="end" font-size="medium" font-family="Ubuntu">Closest Index</text><rect x="350" y="91" width="22" height="15" rx="1" fill="#186BDD"></rect><text x="346" y="103.5" fill="white" text-anchor="end" font-size="medium" font-family="Ubuntu">Distance</text><path d="M160, 41 v-31 q0,-10,10,-10 h182 q10,0,10,10 v31 h-202" fill="#525152"></path><text x="261" y="28.5" fill="white" text-anchor="middle" font-size="medium" font-family="Ubuntu">Get Closest</text></svg>