<svg width="800" height="800"><defs><style type="text/css">@import url('https://fonts.googleapis.com/css2?family=Ubuntu');</style></defs><path fill="#818081" d="M160, 41 v76 q0,10,10,10 h230 q10,0,10,-10 v-76 h250"></path><rect x="148" y="49" width="22" height="15" rx="1" fill="#F5C51F"></rect><text x="176" y="61.5" fill="white" text-anchor="start" font-size="medium" font-family="Ubuntu">LocalPoint</text><rect x="148" y="70" width="22" height="15" rx="1" fill="#F5C51F"></rect><text x="176" y="82.5" fill="white" text-anchor="start" font-size="medium" font-family="Ubuntu">WorldOrigin</text><rect x="148" y="91" width="22" height="15" rx="1" fill="#F5C51F"></rect><text x="176" y="103.5" fill="white" text-anchor="start" font-size="medium" font-family="Ubuntu">WorldOrientation</text><rect x="398" y="49" width="22" height="15" rx="1" fill="#F5C51F"></rect><text x="394" y="61.5" fill="white" text-anchor="end" font-size="medium" font-family="Ubuntu">Result</text><path d="M160, 41 v-31 q0,-10,10,-10 h230 q10,0,10,10 v31 h-250" fill="#525152"></path><text x="285" y="28.5" fill="white" text-anchor="middle" font-size="medium" font-family="Ubuntu">Vector3 Transform</text></svg>