<svg width="800" height="800"><defs><style type="text/css">@import url('https://fonts.googleapis.com/css2?family=Ubuntu');</style></defs><path fill="#818081" d="M160, 41 v76 q0,10,10,10 h206 q10,0,10,-10 v-76 h226"></path><g filter="url(#filter0_di_2556_19132)"><rect x="148" y="49" width="22" height="15" rx="1" fill="#186BDD"></rect></g><g filter="url(#filter1_di_2556_19132)"><rect x="94" y="45" width="45" height="23" rx="1" fill="#186BDD"></rect><rect x="98" y="49.001" width="37" height="15" rx="1" fill="#818081"></rect></g><g filter="url(#filter2_di_2556_19132)"><rect x="139" y="53" width="9" height="7" fill="#186BDD"></rect></g><text x="176" y="61.5" fill="white" text-anchor="start" font-size="medium" font-family="Ubuntu">X</text><g filter="url(#filter0_di_2556_19132)"><rect x="148" y="70" width="22" height="15" rx="1" fill="#186BDD"></rect></g><g filter="url(#filter1_di_2556_19132)"><rect x="94" y="66" width="45" height="23" rx="1" fill="#186BDD"></rect><rect x="98" y="70.001" width="37" height="15" rx="1" fill="#818081"></rect></g><g filter="url(#filter2_di_2556_19132)"><rect x="139" y="74" width="9" height="7" fill="#186BDD"></rect></g><text x="176" y="82.5" fill="white" text-anchor="start" font-size="medium" font-family="Ubuntu">Y</text><g filter="url(#filter0_di_2556_19132)"><rect x="148" y="91" width="22" height="15" rx="1" fill="#186BDD"></rect></g><g filter="url(#filter1_di_2556_19132)"><rect x="94" y="87" width="45" height="23" rx="1" fill="#186BDD"></rect><rect x="98" y="91.001" width="37" height="15" rx="1" fill="#818081"></rect></g><g filter="url(#filter2_di_2556_19132)"><rect x="139" y="95" width="9" height="7" fill="#186BDD"></rect></g><text x="176" y="103.5" fill="white" text-anchor="start" font-size="medium" font-family="Ubuntu">Z</text><rect x="374" y="49" width="22" height="15" rx="1" fill="#F5C51F"></rect><text x="370" y="61.5" fill="white" text-anchor="end" font-size="medium" font-family="Ubuntu">Vector3</text><path d="M160, 41 v-31 q0,-10,10,-10 h206 q10,0,10,10 v31 h-226" fill="#525152"></path><text x="273" y="28.5" fill="white" text-anchor="middle" font-size="medium" font-family="Ubuntu">Vector3 Create</text></svg>