<svg width="800" height="800"><defs><style type="text/css">@import url('https://fonts.googleapis.com/css2?family=Ubuntu');</style></defs><path fill="#818081" d="M160, 41 v151 q0,10,10,10 h224 q10,0,10,-10 v-151 h244"></path><rect x="148" y="49" width="22" height="15" rx="1" fill="#F5C51F"></rect><text x="176" y="61.5" fill="white" text-anchor="start" font-size="medium" font-family="Ubuntu">Start Position</text><rect x="148" y="70" width="22" height="15" rx="1" fill="#F5C51F"></rect><text x="176" y="82.5" fill="white" text-anchor="start" font-size="medium" font-family="Ubuntu">Direction</text><g filter="url(#filter0_di_2556_19132)"><rect x="148" y="91" width="22" height="15" rx="1" fill="#186BDD"></rect></g><g filter="url(#filter1_di_2556_19132)"><rect x="94" y="87" width="45" height="23" rx="1" fill="#186BDD"></rect><rect x="98" y="91.001" width="37" height="15" rx="1" fill="#818081"></rect></g><g filter="url(#filter2_di_2556_19132)"><rect x="139" y="95" width="9" height="7" fill="#186BDD"></rect></g><text x="176" y="103.5" fill="white" text-anchor="start" font-size="medium" font-family="Ubuntu">Max Distance (m)</text><rect x="318" y="49" width="22" height="15" rx="1" fill="#EA2E50"></rect><text x="314" y="61.5" fill="white" text-anchor="end" font-size="medium" font-family="Ubuntu">Hit</text><rect x="318" y="70" width="22" height="15" rx="1" fill="#F5C51F"></rect><text x="314" y="82.5" fill="white" text-anchor="end" font-size="medium" font-family="Ubuntu">Player</text><rect x="318" y="91" width="22" height="15" rx="1" fill="#F5C51F"></rect><text x="314" y="103.5" fill="white" text-anchor="end" font-size="medium" font-family="Ubuntu">Object</text><rect x="318" y="112" width="22" height="15" rx="1" fill="#186BDD"></rect><text x="314" y="124.5" fill="white" text-anchor="end" font-size="medium" font-family="Ubuntu">Distance</text><rect x="318" y="133" width="22" height="15" rx="1" fill="#F5C51F"></rect><text x="314" y="145.5" fill="white" text-anchor="end" font-size="medium" font-family="Ubuntu">Hit Position</text><rect x="318" y="154" width="22" height="15" rx="1" fill="#F5C51F"></rect><text x="314" y="166.5" fill="white" text-anchor="end" font-size="medium" font-family="Ubuntu">Surface Normal</text><path d="M160, 41 v-31 q0,-10,10,-10 h224 q10,0,10,10 v31 h-244" fill="#525152"></path><text x="245" y="28.5" fill="white" text-anchor="middle" font-size="medium" font-family="Ubuntu">Raycast</text></svg>