<svg width="800" height="800"><defs><style type="text/css">@import url('https://fonts.googleapis.com/css2?family=Ubuntu');</style></defs><path fill="#818081" d="M160, 41 v76 q0,10,10,10 h174 q10,0,10,-10 v-76 h194"></path><path d="M165,49h-16.465c-0.552,0,-1,0.448,-1,1v16c0,0.552,0.448,1,1,1h16.465c0.334,0,0.647,-0.167,0.832,-0.445l5.333,-8c0.224,-0.336,0.224,-0.774,0,-1.11l-5.333,-8c-0.185,-0.278,-0.498,-0.445,-0.832,-0.445z" fill="#F55C1A"></path><text x="176" y="61.5" fill="white" text-anchor="start" font-size="medium" font-family="Ubuntu"></text><g filter="url(#filter0_di_2556_19132)"><rect x="148" y="73" width="22" height="15" rx="1" fill="#F5C51F"></rect></g><g filter="url(#filter1_di_2556_19132)"><rect x="94" y="69" width="45" height="23" rx="1" fill="#F5C51F"></rect><rect x="98" y="73.001" width="37" height="15" rx="1" fill="#818081"></rect></g><g filter="url(#filter2_di_2556_19132)"><rect x="139" y="77" width="9" height="7" fill="#F5C51F"></rect></g><text x="176" y="85.5" fill="white" text-anchor="start" font-size="medium" font-family="Ubuntu">Player</text><rect x="148" y="94" width="22" height="15" rx="1" fill="#F5C51F"></rect><text x="176" y="106.5" fill="white" text-anchor="start" font-size="medium" font-family="Ubuntu">Destination</text><path d="M359,49h-16.465c-0.552,0,-1,0.448,-1,1v16c0,0.552,0.448,1,1,1h16.465c0.334,0,0.647,-0.167,0.832,-0.445l5.333,-8c0.224,-0.336,0.224,-0.774,0,-1.11l-5.333,-8c-0.185,-0.278,-0.498,-0.445,-0.832,-0.445z" fill="#F55C1A"></path><text x="338" y="61.5" fill="white" text-anchor="end" font-size="medium" font-family="Ubuntu"></text><path d="M160, 41 v-31 q0,-10,10,-10 h174 q10,0,10,10 v31 h-194" fill="#525152"></path><text x="257" y="28.5" fill="white" text-anchor="middle" font-size="medium" font-family="Ubuntu">Go To Room</text></svg>