<svg width="800" height="800"><defs><style type="text/css">@import url('https://fonts.googleapis.com/css2?family=Ubuntu');</style></defs><path fill="#818081" d="M160, 41 v126 q0,10,10,10 h310 q10,0,10,-10 v-126 h330"></path><g filter="url(#filter0_di_2556_19132)"><rect x="148" y="49" width="22" height="15" rx="1" fill="#F5C51F"></rect></g><g filter="url(#filter1_di_2556_19132)"><rect x="94" y="45" width="45" height="23" rx="1" fill="#F5C51F"></rect><rect x="98" y="49.001" width="37" height="15" rx="1" fill="#818081"></rect></g><g filter="url(#filter2_di_2556_19132)"><rect x="139" y="53" width="9" height="7" fill="#F5C51F"></rect></g><text x="176" y="61.5" fill="white" text-anchor="start" font-size="medium" font-family="Ubuntu">Player</text><rect x="478" y="49" width="22" height="15" rx="1" fill="#F5C51F"></rect><text x="474" y="61.5" fill="white" text-anchor="end" font-size="medium" font-family="Ubuntu">Dominant Hand Object</text><rect x="478" y="70" width="22" height="15" rx="1" fill="#F5C51F"></rect><text x="474" y="82.5" fill="white" text-anchor="end" font-size="medium" font-family="Ubuntu">Off-Hand Object</text><rect x="478" y="91" width="22" height="15" rx="1" fill="#F5C51F"></rect><text x="474" y="103.5" fill="white" text-anchor="end" font-size="medium" font-family="Ubuntu">Left Hip Holster Object</text><rect x="478" y="112" width="22" height="15" rx="1" fill="#F5C51F"></rect><text x="474" y="124.5" fill="white" text-anchor="end" font-size="medium" font-family="Ubuntu">Right Hip Holster Object</text><rect x="478" y="133" width="22" height="15" rx="1" fill="#F5C51F"></rect><text x="474" y="145.5" fill="white" text-anchor="end" font-size="medium" font-family="Ubuntu">Shoulder Holster Object</text><path d="M160, 41 v-31 q0,-10,10,-10 h310 q10,0,10,10 v31 h-330" fill="#525152"></path><text x="325" y="28.5" fill="white" text-anchor="middle" font-size="medium" font-family="Ubuntu">Player Get Equipped Objects</text></svg>