<svg xmlns="http://www.w3.org/2000/svg" width="360.34375" height="127" viewbox="0 0 360.34375 127"><defs><style>.ubuntu {font-family: 'Ubuntu', sans-serif;}</style></defs><path fill="#818081" class="grabBase" d="M72, 41 v76 q0,10,10,10 h196.34375 q10,0,10,-10 v-76 h216.34375" /><path class="input exec" d="M77,49h-16.465c-0.552,0,-1,0.448,-1,1v16c0,0.552,0.448,1,1,1h16.465c0.334,0,0.647,-0.167,0.832,-0.445l5.333,-8c0.224,-0.336,0.224,-0.774,0,-1.11l-5.333,-8c-0.185,-0.278,-0.498,-0.445,-0.832,-0.445z" fill="#F55C1A" /><text x="88" y="63" fill="white" text-anchor="start" font-size="18px" class="ubuntu" /><rect class="input data ['player', 'rec room object'] nolist nodefault" x="60" y="73" width="22" height="15" rx="1" fill="#F6EEE8" /><text x="88" y="87" fill="white" text-anchor="start" font-size="18px" class="ubuntu">Target</text><rect class="input data ['vector3', 'quaternion'] nolist nodefault" x="60" y="94" width="22" height="15" rx="1" fill="#F6EEE8" /><text x="88" y="108" fill="white" text-anchor="start" font-size="18px" class="ubuntu">Rotation</text><path class="output exec" d="M295.34375,49h-16.465c-0.552,0,-1,0.448,-1,1v16c0,0.552,0.448,1,1,1h16.465c0.334,0,0.647,-0.167,0.832,-0.445l5.333,-8c0.224,-0.336,0.224,-0.774,0,-1.11l-5.333,-8c-0.185,-0.278,-0.498,-0.445,-0.832,-0.445z" fill="#F55C1A" /><text x="272.34375" y="63" fill="white" text-anchor="end" font-size="18px" class="ubuntu" /><rect class="output data bool nolist nodefault" x="278.34375" y="73" width="22" height="15" rx="1" fill="#EA2E50" /><text x="272.34375" y="87" fill="white" text-anchor="end" font-size="18px" class="ubuntu">Success</text><path d="M72, 41 v-31 q0,-10,10,-10 h196.34375 q10,0,10,10 v31 h-216.34375" fill="#525152" /><text text-anchor="middle" fill="white" font-size="18px" x="180.171875" y="26.5" class="ubuntu">Set Rotation</text></svg>