<svg xmlns="http://www.w3.org/2000/svg" width="359.546875" height="77" viewbox="0 0 359.546875 77"><defs><style>.ubuntu {font-family: 'Ubuntu', sans-serif;}</style></defs><path fill="#818081" class="grabBase" d="M72, 41 v26 q0,10,10,10 h195.546875 q10,0,10,-10 v-26 h215.546875" /><g class="input data float nolist default"><rect x="60" y="49" width="22" height="15" fill="#186BDD" rx="1" /><rect x="6" y="46" width="45" height="21" rx="1" fill="#186BDD" /><rect x="10" y="50.001" width="37" height="13" rx="1" fill="#818081" /><rect x="51" y="53" width="9" height="7" rx="1" fill="#186BDD" /></g><text x="88" y="63" fill="white" text-anchor="start" font-size="18px" class="ubuntu">Value</text><rect class="output data int nolist nodefault" x="277.546875" y="49" width="22" height="15" rx="1" fill="#106522" /><text x="271.546875" y="63" fill="white" text-anchor="end" font-size="18px" class="ubuntu">Result</text><path d="M72, 41 v-31 q0,-10,10,-10 h195.546875 q10,0,10,10 v31 h-215.546875" fill="#525152" /><text text-anchor="middle" fill="white" font-size="18px" x="179.7734375" y="26.5" class="ubuntu">Round to Int</text></svg>