<svg xmlns="http://www.w3.org/2000/svg" width="511.609375" height="127" viewbox="0 0 511.609375 127"><defs><style>.ubuntu {font-family: 'Ubuntu', sans-serif;}</style></defs><path fill="#818081" class="grabBase" d="M72, 41 v76 q0,10,10,10 h347.609375 q10,0,10,-10 v-76 h367.609375" /><rect class="input data pathfinder nolist nodefault" x="60" y="49" width="22" height="15" rx="1" fill="#F5C51F" /><text x="88" y="63" fill="white" text-anchor="start" font-size="18px" class="ubuntu">Pathfinder</text><rect class="output data vector3 nolist nodefault" x="429.609375" y="49" width="22" height="15" rx="1" fill="#F5C51F" /><text x="423.609375" y="63" fill="white" text-anchor="end" font-size="18px" class="ubuntu">Target Direction</text><rect class="output data float nolist nodefault" x="429.609375" y="70" width="22" height="15" rx="1" fill="#186BDD" /><text x="423.609375" y="84" fill="white" text-anchor="end" font-size="18px" class="ubuntu">Slowdown Angle</text><rect class="output data float nolist nodefault" x="429.609375" y="91" width="22" height="15" rx="1" fill="#186BDD" /><text x="423.609375" y="105" fill="white" text-anchor="end" font-size="18px" class="ubuntu">Arrival Angle</text><path d="M72, 41 v-31 q0,-10,10,-10 h347.609375 q10,0,10,10 v31 h-367.609375" fill="#525152" /><text text-anchor="middle" fill="white" font-size="18px" x="255.8046875" y="26.5" class="ubuntu">Pathfinder Get Rotation Target</text></svg>