<svg xmlns="http://www.w3.org/2000/svg" width="493.4375" height="227" viewbox="0 0 493.4375 227"><defs><style>.ubuntu {font-family: 'Ubuntu', sans-serif;}</style></defs><path fill="#818081" class="grabBase" d="M72, 41 v176 q0,10,10,10 h329.4375 q10,0,10,-10 v-176 h349.4375" /><path class="input exec" d="M77,49h-16.465c-0.552,0,-1,0.448,-1,1v16c0,0.552,0.448,1,1,1h16.465c0.334,0,0.647,-0.167,0.832,-0.445l5.333,-8c0.224,-0.336,0.224,-0.774,0,-1.11l-5.333,-8c-0.185,-0.278,-0.498,-0.445,-0.832,-0.445z" fill="#F55C1A" /><text x="88" y="63" fill="white" text-anchor="start" font-size="18px" class="ubuntu" /><g class="input data player nolist default"><rect x="60" y="73" width="22" height="15" fill="#F5C51F" rx="1" /><rect x="6" y="70" width="45" height="21" rx="1" fill="#F5C51F" /><rect x="10" y="74.001" width="37" height="13" rx="1" fill="#818081" /><rect x="51" y="77" width="9" height="7" rx="1" fill="#F5C51F" /></g><text x="88" y="87" fill="white" text-anchor="start" font-size="18px" class="ubuntu">Player</text><g class="input data bool nolist default"><rect x="60" y="94" width="22" height="15" fill="#EA2E50" rx="1" /><rect x="6" y="91" width="45" height="21" rx="1" fill="#EA2E50" /><rect x="10" y="95.001" width="37" height="13" rx="1" fill="#818081" /><rect x="51" y="98" width="9" height="7" rx="1" fill="#EA2E50" /></g><text x="88" y="108" fill="white" text-anchor="start" font-size="18px" class="ubuntu">Dominant-Hand</text><g class="input data bool nolist default"><rect x="60" y="115" width="22" height="15" fill="#EA2E50" rx="1" /><rect x="6" y="112" width="45" height="21" rx="1" fill="#EA2E50" /><rect x="10" y="116.001" width="37" height="13" rx="1" fill="#818081" /><rect x="51" y="119" width="9" height="7" rx="1" fill="#EA2E50" /></g><text x="88" y="129" fill="white" text-anchor="start" font-size="18px" class="ubuntu">Off-Hand</text><g class="input data bool nolist default"><rect x="60" y="136" width="22" height="15" fill="#EA2E50" rx="1" /><rect x="6" y="133" width="45" height="21" rx="1" fill="#EA2E50" /><rect x="10" y="137.001" width="37" height="13" rx="1" fill="#818081" /><rect x="51" y="140" width="9" height="7" rx="1" fill="#EA2E50" /></g><text x="88" y="150" fill="white" text-anchor="start" font-size="18px" class="ubuntu">Left Hip Holster</text><g class="input data bool nolist default"><rect x="60" y="157" width="22" height="15" fill="#EA2E50" rx="1" /><rect x="6" y="154" width="45" height="21" rx="1" fill="#EA2E50" /><rect x="10" y="158.001" width="37" height="13" rx="1" fill="#818081" /><rect x="51" y="161" width="9" height="7" rx="1" fill="#EA2E50" /></g><text x="88" y="171" fill="white" text-anchor="start" font-size="18px" class="ubuntu">Right Hip Holster</text><g class="input data bool nolist default"><rect x="60" y="178" width="22" height="15" fill="#EA2E50" rx="1" /><rect x="6" y="175" width="45" height="21" rx="1" fill="#EA2E50" /><rect x="10" y="179.001" width="37" height="13" rx="1" fill="#818081" /><rect x="51" y="182" width="9" height="7" rx="1" fill="#EA2E50" /></g><text x="88" y="192" fill="white" text-anchor="start" font-size="18px" class="ubuntu">Shoulder Holster</text><path class="output exec" d="M428.4375,49h-16.465c-0.552,0,-1,0.448,-1,1v16c0,0.552,0.448,1,1,1h16.465c0.334,0,0.647,-0.167,0.832,-0.445l5.333,-8c0.224,-0.336,0.224,-0.774,0,-1.11l-5.333,-8c-0.185,-0.278,-0.498,-0.445,-0.832,-0.445z" fill="#F55C1A" /><text x="405.4375" y="63" fill="white" text-anchor="end" font-size="18px" class="ubuntu" /><rect class="output data rec room object list nodefault" x="411.4375" y="73" width="22" height="15" rx="1" fill="#F5C51F" /><text x="421.4375" y="74" fill="white" font-size="10px" font-weight="bold" class="ubuntu"><tspan x="417.9375" dy="10" class="ubuntu" style="fill:none;fill-opacity:1;stroke:#000000;stroke-width:0.8px;stroke-linecap:butt;stroke-linejoin:miter;stroke-opacity:0.5;">[ ]</tspan></text><text x="405.4375" y="87" fill="white" text-anchor="end" font-size="18px" class="ubuntu">Objects Unequipped</text><path d="M72, 41 v-31 q0,-10,10,-10 h329.4375 q10,0,10,10 v31 h-349.4375" fill="#525152" /><text text-anchor="middle" fill="white" font-size="18px" x="246.71875" y="26.5" class="ubuntu">Unequip from Slots</text></svg>