<svg xmlns="http://www.w3.org/2000/svg" width="615.0625" height="101" viewbox="0 0 800 800"><defs><style>.ubuntu {font-family: 'Ubuntu', sans-serif;}</style></defs><rect fill="#525152" x="211.90625" y="0" width="271.15625" height="101" /><path fill="#818081" d="M82, 0 h129.90625 v101 h-129.90625 q-10,0,-10,-10 v-81 q0,-10,10,-10" /><path fill="#818081" d="M483.0625, 0 h50 q10,0,10,10 v81 q0,10,-10,10 h-50 v-101" /><text x="0" y="0" fill="white" font-size="18px" text-anchor="middle" class="ubuntu"><tspan x="347.484375" dy="22px" text-anchor="middle">Studio Event Sender - Int</tspan></text><path class="input exec" d="M77,10h-16.465c-0.552,0,-1,0.448,-1,1v16c0,0.552,0.448,1,1,1h16.465c0.334,0,0.647,-0.167,0.832,-0.445l5.333,-8c0.224,-0.336,0.224,-0.774,0,-1.11l-5.333,-8c-0.185,-0.278,-0.498,-0.445,-0.832,-0.445z" fill="#F55C1A" /><text x="88" y="24" fill="white" text-anchor="start" font-size="18px" class="ubuntu" /><rect class="input data studio object nolist nodefault" x="60" y="34" width="22" height="15" rx="1" fill="#F5C51F" /><text x="88" y="48" fill="white" text-anchor="start" font-size="18px" class="ubuntu">Studio Object</text><g class="input data string nolist default"><rect x="60" y="55" width="22" height="15" fill="#784283" rx="1" /><rect x="6" y="52" width="45" height="21" rx="1" fill="#784283" /><rect x="10" y="56.001" width="37" height="13" rx="1" fill="#818081" /><rect x="51" y="59" width="9" height="7" rx="1" fill="#784283" /></g><text x="88" y="69" fill="white" text-anchor="start" font-size="18px" class="ubuntu">Event</text><g class="input data int nolist default"><rect x="60" y="76" width="22" height="15" fill="#106522" rx="1" /><rect x="6" y="73" width="45" height="21" rx="1" fill="#106522" /><rect x="10" y="77.001" width="37" height="13" rx="1" fill="#818081" /><rect x="51" y="80" width="9" height="7" rx="1" fill="#106522" /></g><text x="88" y="90" fill="white" text-anchor="start" font-size="18px" class="ubuntu">Value</text><path class="output exec" d="M550.0625,10h-16.465c-0.552,0,-1,0.448,-1,1v16c0,0.552,0.448,1,1,1h16.465c0.334,0,0.647,-0.167,0.832,-0.445l5.333,-8c0.224,-0.336,0.224,-0.774,0,-1.11l-5.333,-8c-0.185,-0.278,-0.498,-0.445,-0.832,-0.445z" fill="#F55C1A" /><text x="527.0625" y="24" fill="white" text-anchor="end" font-size="18px" class="ubuntu" /><circle cx="520.5625" cy="81" r="2.5" fill="#F6EEE8" /><path d="M524.5625,74c3.483,3.5,3.483,10.5,0,14" stroke="#F6EEE8" fill-opacity="0" stroke-width="3" stroke-linecap="round" stroke-linejoin="round" /><path d="M530.175,71c3.483,3.5,3.483,16.5,0,20" stroke="#F6EEE8" fill-opacity="0" stroke-width="3" stroke-linecap="round" stroke-linejoin="round" /></svg>