<svg xmlns="http://www.w3.org/2000/svg" width="392.640625" height="152" viewbox="0 0 392.640625 152"><defs><style>.ubuntu {font-family: 'Ubuntu', sans-serif;}</style></defs><path fill="#818081" class="grabBase" d="M72, 41 v101 q0,10,10,10 h228.640625 q10,0,10,-10 v-101 h248.640625" /><rect class="input data quaternion nolist nodefault" x="60" y="49" width="22" height="15" rx="1" fill="#F5C51F" /><text x="88" y="63" fill="white" text-anchor="start" font-size="18px" class="ubuntu">Quaternion</text><rect class="output data float nolist nodefault" x="310.640625" y="49" width="22" height="15" rx="1" fill="#186BDD" /><text x="304.640625" y="63" fill="white" text-anchor="end" font-size="18px" class="ubuntu">X</text><rect class="output data float nolist nodefault" x="310.640625" y="70" width="22" height="15" rx="1" fill="#186BDD" /><text x="304.640625" y="84" fill="white" text-anchor="end" font-size="18px" class="ubuntu">Y</text><rect class="output data float nolist nodefault" x="310.640625" y="91" width="22" height="15" rx="1" fill="#186BDD" /><text x="304.640625" y="105" fill="white" text-anchor="end" font-size="18px" class="ubuntu">Z</text><rect class="output data float nolist nodefault" x="310.640625" y="112" width="22" height="15" rx="1" fill="#186BDD" /><text x="304.640625" y="126" fill="white" text-anchor="end" font-size="18px" class="ubuntu">W</text><path d="M72, 41 v-31 q0,-10,10,-10 h228.640625 q10,0,10,10 v31 h-248.640625" fill="#525152" /><text text-anchor="middle" fill="white" font-size="18px" x="196.3203125" y="26.5" class="ubuntu">Quaternion Split</text></svg>