<svg xmlns="http://www.w3.org/2000/svg" width="443.90625" height="127" viewbox="0 0 443.90625 127"><defs><style>.ubuntu {font-family: 'Ubuntu', sans-serif;}</style></defs><path fill="#818081" class="grabBase" d="M72, 41 v76 q0,10,10,10 h279.90625 q10,0,10,-10 v-76 h299.90625" /><rect class="input data vector3 nolist nodefault" x="60" y="49" width="22" height="15" rx="1" fill="#F5C51F" /><text x="88" y="63" fill="white" text-anchor="start" font-size="18px" class="ubuntu">Current</text><rect class="input data vector3 nolist nodefault" x="60" y="70" width="22" height="15" rx="1" fill="#F5C51F" /><text x="88" y="84" fill="white" text-anchor="start" font-size="18px" class="ubuntu">Target</text><g class="input data float nolist default"><rect x="60" y="91" width="22" height="15" fill="#186BDD" rx="1" /><rect x="6" y="88" width="45" height="21" rx="1" fill="#186BDD" /><rect x="10" y="92.001" width="37" height="13" rx="1" fill="#818081" /><rect x="51" y="95" width="9" height="7" rx="1" fill="#186BDD" /></g><text x="88" y="105" fill="white" text-anchor="start" font-size="18px" class="ubuntu">Max Delta</text><rect class="output data vector3 nolist nodefault" x="361.90625" y="49" width="22" height="15" rx="1" fill="#F5C51F" /><text x="355.90625" y="63" fill="white" text-anchor="end" font-size="18px" class="ubuntu">Result</text><path d="M72, 41 v-31 q0,-10,10,-10 h279.90625 q10,0,10,10 v31 h-299.90625" fill="#525152" /><text text-anchor="middle" fill="white" font-size="18px" x="221.953125" y="26.5" class="ubuntu">Vector3 Move Towards</text></svg>