<svg xmlns="http://www.w3.org/2000/svg" width="306.46875" height="102" viewbox="0 0 306.46875 102"><defs><style>.ubuntu {font-family: 'Ubuntu', sans-serif;}</style></defs><path fill="#818081" class="grabBase" d="M72, 41 v51 q0,10,10,10 h142.46875 q10,0,10,-10 v-51 h162.46875" /><g class="input data int nolist default"><rect x="60" y="49" width="22" height="15" fill="#106522" rx="1" /><rect x="6" y="46" width="45" height="21" rx="1" fill="#106522" /><rect x="10" y="50.001" width="37" height="13" rx="1" fill="#818081" /><rect x="51" y="53" width="9" height="7" rx="1" fill="#106522" /></g><text x="88" y="63" fill="white" text-anchor="start" font-size="18px" class="ubuntu" /><g class="input data int nolist default"><rect x="60" y="70" width="22" height="15" fill="#106522" rx="1" /><rect x="6" y="67" width="45" height="21" rx="1" fill="#106522" /><rect x="10" y="71.001" width="37" height="13" rx="1" fill="#818081" /><rect x="51" y="74" width="9" height="7" rx="1" fill="#106522" /></g><text x="88" y="84" fill="white" text-anchor="start" font-size="18px" class="ubuntu" /><rect class="output data int nolist nodefault" x="224.46875" y="49" width="22" height="15" rx="1" fill="#106522" /><text x="218.46875" y="63" fill="white" text-anchor="end" font-size="18px" class="ubuntu">Result</text><path d="M72, 41 v-31 q0,-10,10,-10 h142.46875 q10,0,10,10 v31 h-162.46875" fill="#525152" /><text text-anchor="middle" fill="white" font-size="18px" x="153.234375" y="26.5" class="ubuntu">Bit Or</text></svg>