<svg xmlns="http://www.w3.org/2000/svg" width="490.28125" height="77" viewbox="0 0 490.28125 77"><defs><style>.ubuntu {font-family: 'Ubuntu', sans-serif;}</style></defs><path fill="#818081" d="M72, 41 v26 q0,10,10,10 h326.28125 q10,0,10,-10 v-26 h346.28125" /><g><rect x="60" y="49" width="22" height="15" fill="#784283" rx="1" /><rect x="6" y="46" width="45" height="21" rx="1" fill="#784283" /><rect x="10" y="50.001" width="37" height="13" rx="1" fill="#818081" /><rect x="51" y="53" width="9" height="7" rx="1" fill="#784283" /></g><text x="88" y="63" fill="white" text-anchor="start" font-size="18px" class="ubuntu">Name</text><rect x="408.28125" y="49" width="22" height="15" rx="1" fill="#F5C51F" /><text x="402.28125" y="63" fill="white" text-anchor="end" font-size="18px" class="ubuntu">Player</text><path d="M72, 41 v-31 q0,-10,10,-10 h326.28125 q10,0,10,10 v31 h-346.28125" fill="#525152" /><text text-anchor="middle" fill="white" font-size="18px" x="245.140625" y="26.5" class="ubuntu">Get Player By Account Name</text></svg>