<svg xmlns="http://www.w3.org/2000/svg" width="441.46875" height="127" viewbox="0 0 441.46875 127"><defs><style>.ubuntu {font-family: 'Ubuntu', sans-serif;}</style></defs><path fill="#818081" d="M72, 41 v76 q0,10,10,10 h277.46875 q10,0,10,-10 v-76 h297.46875" /><rect class="input data ['ai', 'combatant', 'player'] nolist nodefault" x="60" y="49" width="22" height="15" rx="1" fill="#F6EEE8" /><text x="88" y="63" fill="white" text-anchor="start" font-size="18px" class="ubuntu">Object</text><rect class="output data int nolist nodefault" x="359.46875" y="49" width="22" height="15" rx="1" fill="#106522" /><text x="353.46875" y="63" fill="white" text-anchor="end" font-size="18px" class="ubuntu">Health</text><rect class="output data int nolist nodefault" x="359.46875" y="70" width="22" height="15" rx="1" fill="#106522" /><text x="353.46875" y="84" fill="white" text-anchor="end" font-size="18px" class="ubuntu">Shield</text><rect class="output data int nolist nodefault" x="359.46875" y="91" width="22" height="15" rx="1" fill="#106522" /><text x="353.46875" y="105" fill="white" text-anchor="end" font-size="18px" class="ubuntu">Max Health</text><path d="M72, 41 v-31 q0,-10,10,-10 h277.46875 q10,0,10,10 v31 h-297.46875" fill="#525152" /><text text-anchor="middle" fill="white" font-size="18px" x="220.734375" y="26.5" class="ubuntu">Combatant Get Health</text></svg>