<svg xmlns="http://www.w3.org/2000/svg" width="591.75" height="177" viewbox="0 0 591.75 177"><defs><style>.ubuntu {font-family: 'Ubuntu', sans-serif;}</style></defs><path fill="#818081" class="grabBase" d="M72, 41 v126 q0,10,10,10 h427.75 q10,0,10,-10 v-126 h447.75" /><path class="input exec" d="M77,49h-16.465c-0.552,0,-1,0.448,-1,1v16c0,0.552,0.448,1,1,1h16.465c0.334,0,0.647,-0.167,0.832,-0.445l5.333,-8c0.224,-0.336,0.224,-0.774,0,-1.11l-5.333,-8c-0.185,-0.278,-0.498,-0.445,-0.832,-0.445z" fill="#F55C1A" /><text x="88" y="63" fill="white" text-anchor="start" font-size="18px" class="ubuntu">Run</text><rect class="input data ['player', 'rec room object'] nolist nodefault" x="60" y="73" width="22" height="15" rx="1" fill="#F6EEE8" /><text x="88" y="87" fill="white" text-anchor="start" font-size="18px" class="ubuntu">Target</text><rect class="input data vector3 nolist nodefault" x="60" y="94" width="22" height="15" rx="1" fill="#F5C51F" /><text x="88" y="108" fill="white" text-anchor="start" font-size="18px" class="ubuntu">Position</text><rect class="input data ['vector3', 'quaternion'] nolist nodefault" x="60" y="115" width="22" height="15" rx="1" fill="#F6EEE8" /><text x="88" y="129" fill="white" text-anchor="start" font-size="18px" class="ubuntu">Rotation</text><rect class="input data ['player', 'rec room object'] nolist nodefault" x="60" y="136" width="22" height="15" rx="1" fill="#F6EEE8" /><text x="88" y="150" fill="white" text-anchor="start" font-size="18px" class="ubuntu">Reference Object</text><path class="output exec" d="M526.75,49h-16.465c-0.552,0,-1,0.448,-1,1v16c0,0.552,0.448,1,1,1h16.465c0.334,0,0.647,-0.167,0.832,-0.445l5.333,-8c0.224,-0.336,0.224,-0.774,0,-1.11l-5.333,-8c-0.185,-0.278,-0.498,-0.445,-0.832,-0.445z" fill="#F55C1A" /><text x="503.75" y="63" fill="white" text-anchor="end" font-size="18px" class="ubuntu">Run</text><rect class="output data bool nolist nodefault" x="509.75" y="73" width="22" height="15" rx="1" fill="#EA2E50" /><text x="503.75" y="87" fill="white" text-anchor="end" font-size="18px" class="ubuntu">Success</text><path d="M72, 41 v-31 q0,-10,10,-10 h427.75 q10,0,10,10 v31 h-447.75" fill="#525152" /><text text-anchor="middle" fill="white" font-size="18px" x="295.875" y="26.5" class="ubuntu">Set Transform in Reference Object Space</text></svg>