<svg xmlns="http://www.w3.org/2000/svg" width="512.84375" height="152" viewbox="0 0 512.84375 152"><defs><style>.ubuntu {font-family: 'Ubuntu', sans-serif;}</style></defs><path fill="#818081" d="M72, 41 v101 q0,10,10,10 h348.84375 q10,0,10,-10 v-101 h368.84375" /><rect class="input data ai nolist nodefault" x="60" y="49" width="22" height="15" rx="1" fill="#F5C51F" /><text x="88" y="63" fill="white" text-anchor="start" font-size="18px" class="ubuntu">AI</text><rect class="output data string nolist nodefault" x="430.84375" y="49" width="22" height="15" rx="1" fill="#784283" /><text x="424.84375" y="63" fill="white" text-anchor="end" font-size="18px" class="ubuntu">Vision Type</text><rect class="output data float nolist nodefault" x="430.84375" y="70" width="22" height="15" rx="1" fill="#186BDD" /><text x="424.84375" y="84" fill="white" text-anchor="end" font-size="18px" class="ubuntu">Vision Range (m)</text><rect class="output data float nolist nodefault" x="430.84375" y="91" width="22" height="15" rx="1" fill="#186BDD" /><text x="424.84375" y="105" fill="white" text-anchor="end" font-size="18px" class="ubuntu">Vision Cone Angle</text><rect class="output data float nolist nodefault" x="430.84375" y="112" width="22" height="15" rx="1" fill="#186BDD" /><text x="424.84375" y="126" fill="white" text-anchor="end" font-size="18px" class="ubuntu">Hearing Range (m)</text><path d="M72, 41 v-31 q0,-10,10,-10 h348.84375 q10,0,10,10 v31 h-368.84375" fill="#525152" /><text text-anchor="middle" fill="white" font-size="18px" x="256.421875" y="26.5" class="ubuntu">AI Get Line of Sight Parameters</text></svg>