<svg xmlns="http://www.w3.org/2000/svg" width="356.6875" height="127" viewbox="0 0 356.6875 127"><defs><style>.ubuntu {font-family: 'Ubuntu', sans-serif;}</style></defs><path fill="#818081" class="grabBase" d="M72, 41 v76 q0,10,10,10 h192.6875 q10,0,10,-10 v-76 h212.6875" /><rect class="input data ['rec room object', 'player', 'vector3'] nolist nodefault" x="60" y="49" width="22" height="15" rx="1" fill="#F6EEE8" /><text x="88" y="63" fill="white" text-anchor="start" font-size="18px" class="ubuntu">Origin</text><rect class="input data ['rec room object', 'player', 'vector3'] list nodefault" x="60" y="70" width="22" height="15" rx="1" fill="#F6EEE8" /><text x="72" y="71" fill="white" font-size="10px" font-weight="bold" class="ubuntu"><tspan x="66.5" dy="10" class="ubuntu" style="fill:none;fill-opacity:1;stroke:#000000;stroke-width:0.8px;stroke-linecap:butt;stroke-linejoin:miter;stroke-opacity:0.5;">[ ]</tspan></text><text x="88" y="84" fill="white" text-anchor="start" font-size="18px" class="ubuntu">Targets</text><rect class="output data ['rec room object', 'player', 'vector3'] nolist nodefault" x="274.6875" y="49" width="22" height="15" rx="1" fill="#F6EEE8" /><text x="268.6875" y="63" fill="white" text-anchor="end" font-size="18px" class="ubuntu">Closest</text><rect class="output data int nolist nodefault" x="274.6875" y="70" width="22" height="15" rx="1" fill="#106522" /><text x="268.6875" y="84" fill="white" text-anchor="end" font-size="18px" class="ubuntu">Closest Index</text><rect class="output data float nolist nodefault" x="274.6875" y="91" width="22" height="15" rx="1" fill="#186BDD" /><text x="268.6875" y="105" fill="white" text-anchor="end" font-size="18px" class="ubuntu">Distance</text><path d="M72, 41 v-31 q0,-10,10,-10 h192.6875 q10,0,10,10 v31 h-212.6875" fill="#525152" /><text text-anchor="middle" fill="white" font-size="18px" x="178.34375" y="26.5" class="ubuntu">Get Closest</text></svg>