<svg xmlns="http://www.w3.org/2000/svg" width="448.1875" height="152" viewbox="0 0 448.1875 152"><defs><style>.ubuntu {font-family: 'Ubuntu', sans-serif;}</style></defs><path fill="#818081" d="M72, 41 v101 q0,10,10,10 h284.1875 q10,0,10,-10 v-101 h304.1875" /><g class="input data player nolist default"><rect x="60" y="49" width="22" height="15" fill="#F5C51F" rx="1" /><rect x="6" y="46" width="45" height="21" rx="1" fill="#F5C51F" /><rect x="10" y="50.001" width="37" height="13" rx="1" fill="#818081" /><rect x="51" y="53" width="9" height="7" rx="1" fill="#F5C51F" /></g><text x="88" y="63" fill="white" text-anchor="start" font-size="18px" class="ubuntu">Player</text><rect class="output data bool nolist nodefault" x="366.1875" y="49" width="22" height="15" rx="1" fill="#EA2E50" /><text x="360.1875" y="63" fill="white" text-anchor="end" font-size="18px" class="ubuntu">Is Grounded</text><rect class="output data float nolist nodefault" x="366.1875" y="70" width="22" height="15" rx="1" fill="#186BDD" /><text x="360.1875" y="84" fill="white" text-anchor="end" font-size="18px" class="ubuntu">Time Since Last Grounded</text><rect class="output data rec room object nolist nodefault" x="366.1875" y="91" width="22" height="15" rx="1" fill="#F5C51F" /><text x="360.1875" y="105" fill="white" text-anchor="end" font-size="18px" class="ubuntu">Surface Object</text><rect class="output data vector3 nolist nodefault" x="366.1875" y="112" width="22" height="15" rx="1" fill="#F5C51F" /><text x="360.1875" y="126" fill="white" text-anchor="end" font-size="18px" class="ubuntu">Surface Normal</text><path d="M72, 41 v-31 q0,-10,10,-10 h284.1875 q10,0,10,10 v31 h-304.1875" fill="#525152" /><text text-anchor="middle" fill="white" font-size="18px" x="224.09375" y="26.5" class="ubuntu">Player Get Is Grounded</text></svg>