<svg xmlns="http://www.w3.org/2000/svg" width="484.296875" height="77" viewbox="0 0 484.296875 77"><defs><style>.ubuntu {font-family: 'Ubuntu', sans-serif;}</style></defs><path fill="#818081" class="grabBase" d="M72, 41 v26 q0,10,10,10 h320.296875 q10,0,10,-10 v-26 h340.296875" /><g class="input data player nolist default"><rect x="60" y="49" width="22" height="15" fill="#F5C51F" rx="1" /><rect x="6" y="46" width="45" height="21" rx="1" fill="#F5C51F" /><rect x="10" y="50.001" width="37" height="13" rx="1" fill="#818081" /><rect x="51" y="53" width="9" height="7" rx="1" fill="#F5C51F" /></g><text x="88" y="63" fill="white" text-anchor="start" font-size="18px" class="ubuntu">Target</text><rect class="output data bool nolist nodefault" x="402.296875" y="49" width="22" height="15" rx="1" fill="#EA2E50" /><text x="396.296875" y="63" fill="white" text-anchor="end" font-size="18px" class="ubuntu">Result</text><path d="M72, 41 v-31 q0,-10,10,-10 h320.296875 q10,0,10,10 v31 h-340.296875" fill="#525152" /><text text-anchor="middle" fill="white" font-size="18px" x="242.1484375" y="26.5" class="ubuntu">Player Is Holding Maker Pen</text></svg>