<svg xmlns="http://www.w3.org/2000/svg" width="525.59375" height="102" viewbox="0 0 525.59375 102"><defs><style>.ubuntu {font-family: 'Ubuntu', sans-serif;}</style></defs><path fill="#818081" d="M72, 41 v51 q0,10,10,10 h361.59375 q10,0,10,-10 v-51 h381.59375" /><path d="M77,49h-16.465c-0.552,0,-1,0.448,-1,1v16c0,0.552,0.448,1,1,1h16.465c0.334,0,0.647,-0.167,0.832,-0.445l5.333,-8c0.224,-0.336,0.224,-0.774,0,-1.11l-5.333,-8c-0.185,-0.278,-0.498,-0.445,-0.832,-0.445z" fill="#F55C1A" /><text x="88" y="63" fill="white" text-anchor="start" font-size="18px" class="ubuntu">Modify</text><path d="M460.59375,49h-16.465c-0.552,0,-1,0.448,-1,1v16c0,0.552,0.448,1,1,1h16.465c0.334,0,0.647,-0.167,0.832,-0.445l5.333,-8c0.224,-0.336,0.224,-0.774,0,-1.11l-5.333,-8c-0.185,-0.278,-0.498,-0.445,-0.832,-0.445z" fill="#F55C1A" /><text x="437.59375" y="63" fill="white" text-anchor="end" font-size="18px" class="ubuntu" /><path d="M460.59375,73h-16.465c-0.552,0,-1,0.448,-1,1v16c0,0.552,0.448,1,1,1h16.465c0.334,0,0.647,-0.167,0.832,-0.445l5.333,-8c0.224,-0.336,0.224,-0.774,0,-1.11l-5.333,-8c-0.185,-0.278,-0.498,-0.445,-0.832,-0.445z" fill="#F55C1A" /><text x="437.59375" y="87" fill="white" text-anchor="end" font-size="18px" class="ubuntu">Blend Finished</text><path d="M72, 41 v-31 q0,-10,10,-10 h361.59375 q10,0,10,10 v31 h-381.59375" fill="#525152" /><text text-anchor="middle" fill="white" font-size="18px" x="262.796875" y="26.5" class="ubuntu">Room Background Objects Reset</text></svg>