<svg xmlns="http://www.w3.org/2000/svg" width="368.046875" height="102" viewbox="0 0 368.046875 102"><defs><style>.ubuntu {font-family: 'Ubuntu', sans-serif;}</style></defs><path fill="#818081" class="grabBase" d="M72, 41 v51 q0,10,10,10 h204.046875 q10,0,10,-10 v-51 h224.046875" /><g class="input data string nolist default"><rect x="60" y="49" width="22" height="15" fill="#784283" rx="1" /><rect x="6" y="46" width="45" height="21" rx="1" fill="#784283" /><rect x="10" y="50.001" width="37" height="13" rx="1" fill="#818081" /><rect x="51" y="53" width="9" height="7" rx="1" fill="#784283" /></g><text x="88" y="63" fill="white" text-anchor="start" font-size="18px" class="ubuntu">Separator</text><g class="input data string nolist default"><rect x="60" y="70" width="22" height="15" fill="#784283" rx="1" /><rect x="6" y="67" width="45" height="21" rx="1" fill="#784283" /><rect x="10" y="71.001" width="37" height="13" rx="1" fill="#818081" /><rect x="51" y="74" width="9" height="7" rx="1" fill="#784283" /></g><text x="88" y="84" fill="white" text-anchor="start" font-size="18px" class="ubuntu">Value</text><rect class="output data string nolist nodefault" x="286.046875" y="49" width="22" height="15" rx="1" fill="#784283" /><text x="280.046875" y="63" fill="white" text-anchor="end" font-size="18px" class="ubuntu">Result</text><path d="M72, 41 v-31 q0,-10,10,-10 h204.046875 q10,0,10,10 v31 h-224.046875" fill="#525152" /><text text-anchor="middle" fill="white" font-size="18px" x="184.0234375" y="26.5" class="ubuntu">String Concat</text></svg>