<svg xmlns="http://www.w3.org/2000/svg" width="447.359375" height="77" viewbox="0 0 447.359375 77"><defs><style>.ubuntu {font-family: 'Ubuntu', sans-serif;}</style></defs><path fill="#818081" class="grabBase" d="M72, 41 v26 q0,10,10,10 h283.359375 q10,0,10,-10 v-26 h303.359375" /><g class="input data string nolist default"><rect x="60" y="49" width="22" height="15" fill="#784283" rx="1" /><rect x="6" y="46" width="45" height="21" rx="1" fill="#784283" /><rect x="10" y="50.001" width="37" height="13" rx="1" fill="#818081" /><rect x="51" y="53" width="9" height="7" rx="1" fill="#784283" /></g><text x="88" y="63" fill="white" text-anchor="start" font-size="18px" class="ubuntu">String</text><rect class="output data string list nodefault" x="365.359375" y="49" width="22" height="15" rx="1" fill="#784283" /><text x="375.359375" y="50" fill="white" font-size="10px" font-weight="bold" class="ubuntu"><tspan x="371.859375" dy="10" class="ubuntu" style="fill:none;fill-opacity:1;stroke:#000000;stroke-width:0.8px;stroke-linecap:butt;stroke-linejoin:miter;stroke-opacity:0.5;">[ ]</tspan></text><text x="359.359375" y="63" fill="white" text-anchor="end" font-size="18px" class="ubuntu">List</text><path d="M72, 41 v-31 q0,-10,10,-10 h283.359375 q10,0,10,10 v31 h-303.359375" fill="#525152" /><text text-anchor="middle" fill="white" font-size="18px" x="223.6796875" y="26.5" class="ubuntu">String Split Whitespace</text></svg>