<svg xmlns="http://www.w3.org/2000/svg" width="576.421875" height="152" viewbox="0 0 576.421875 152"><defs><style>.ubuntu {font-family: 'Ubuntu', sans-serif;}</style></defs><path fill="#818081" class="grabBase" d="M72, 41 v101 q0,10,10,10 h412.421875 q10,0,10,-10 v-101 h432.421875" /><rect class="output data string nolist nodefault" x="494.421875" y="49" width="22" height="15" rx="1" fill="#784283" /><text x="488.421875" y="63" fill="white" text-anchor="end" font-size="18px" class="ubuntu">Header Text</text><rect class="output data color nolist nodefault" x="494.421875" y="70" width="22" height="15" rx="1" fill="#004FB9" /><text x="488.421875" y="84" fill="white" text-anchor="end" font-size="18px" class="ubuntu">Header Text Color</text><rect class="output data string nolist nodefault" x="494.421875" y="91" width="22" height="15" rx="1" fill="#784283" /><text x="488.421875" y="105" fill="white" text-anchor="end" font-size="18px" class="ubuntu">Body Text</text><rect class="output data color nolist nodefault" x="494.421875" y="112" width="22" height="15" rx="1" fill="#004FB9" /><text x="488.421875" y="126" fill="white" text-anchor="end" font-size="18px" class="ubuntu">Body Text Color</text><path d="M72, 41 v-31 q0,-10,10,-10 h412.421875 q10,0,10,10 v31 h-432.421875" fill="#525152" /><text text-anchor="middle" fill="white" font-size="18px" x="288.2109375" y="26.5" class="ubuntu">Local Player Get Objective Log Content</text></svg>