<svg xmlns="http://www.w3.org/2000/svg" width="390.234375" height="127" viewbox="0 0 390.234375 127"><defs><style>.ubuntu {font-family: 'Ubuntu', sans-serif;}</style></defs><path fill="#818081" class="grabBase" d="M72, 41 v76 q0,10,10,10 h226.234375 q10,0,10,-10 v-76 h246.234375" /><rect class="input data combatant nolist nodefault" x="60" y="49" width="22" height="15" rx="1" fill="#F5C51F" /><text x="88" y="63" fill="white" text-anchor="start" font-size="18px" class="ubuntu">Combatant</text><rect class="output data bool nolist nodefault" x="308.234375" y="49" width="22" height="15" rx="1" fill="#EA2E50" /><text x="302.234375" y="63" fill="white" text-anchor="end" font-size="18px" class="ubuntu">Is Player</text><rect class="output data player nolist nodefault" x="308.234375" y="70" width="22" height="15" rx="1" fill="#F5C51F" /><text x="302.234375" y="84" fill="white" text-anchor="end" font-size="18px" class="ubuntu">Player</text><rect class="output data ai nolist nodefault" x="308.234375" y="91" width="22" height="15" rx="1" fill="#F5C51F" /><text x="302.234375" y="105" fill="white" text-anchor="end" font-size="18px" class="ubuntu">AI</text><path d="M72, 41 v-31 q0,-10,10,-10 h226.234375 q10,0,10,10 v31 h-246.234375" fill="#525152" /><text text-anchor="middle" fill="white" font-size="18px" x="195.1171875" y="26.5" class="ubuntu">Combatant Split</text></svg>