<svg xmlns="http://www.w3.org/2000/svg" width="309.890625" height="127" viewbox="0 0 309.890625 127"><defs><style>.ubuntu {font-family: 'Ubuntu', sans-serif;}</style></defs><path fill="#818081" class="grabBase" d="M72, 41 v76 q0,10,10,10 h145.890625 q10,0,10,-10 v-76 h165.890625" /><rect class="input data ['quaternion', 'vector3'] nolist nodefault" x="60" y="49" width="22" height="15" rx="1" fill="#F6EEE8" /><text x="88" y="63" fill="white" text-anchor="start" font-size="18px" class="ubuntu">Start</text><rect class="input data ['quaternion', 'vector3'] nolist nodefault" x="60" y="70" width="22" height="15" rx="1" fill="#F6EEE8" /><text x="88" y="84" fill="white" text-anchor="start" font-size="18px" class="ubuntu">End</text><g class="input data float nolist default"><rect x="60" y="91" width="22" height="15" fill="#186BDD" rx="1" /><rect x="6" y="88" width="45" height="21" rx="1" fill="#186BDD" /><rect x="10" y="92.001" width="37" height="13" rx="1" fill="#818081" /><rect x="51" y="95" width="9" height="7" rx="1" fill="#186BDD" /></g><text x="88" y="105" fill="white" text-anchor="start" font-size="18px" class="ubuntu">Progress</text><rect class="output data ['quaternion', 'vector3'] nolist nodefault" x="227.890625" y="49" width="22" height="15" rx="1" fill="#F6EEE8" /><text x="221.890625" y="63" fill="white" text-anchor="end" font-size="18px" class="ubuntu">Result</text><path d="M72, 41 v-31 q0,-10,10,-10 h145.890625 q10,0,10,10 v31 h-165.890625" fill="#525152" /><text text-anchor="middle" fill="white" font-size="18px" x="154.9453125" y="26.5" class="ubuntu">Slerp</text></svg>