<svg xmlns="http://www.w3.org/2000/svg" width="352.53125" height="77" viewbox="0 0 352.53125 77"><defs><style>.ubuntu {font-family: 'Ubuntu', sans-serif;}</style></defs><path fill="#818081" d="M72, 41 v26 q0,10,10,10 h188.53125 q10,0,10,-10 v-26 h208.53125" /><g class="input data color nolist default"><rect x="60" y="49" width="22" height="15" fill="#004FB9" rx="1" /><rect x="6" y="46" width="45" height="21" rx="1" fill="#004FB9" /><rect x="10" y="50.001" width="37" height="13" rx="1" fill="#818081" /><rect x="51" y="53" width="9" height="7" rx="1" fill="#004FB9" /></g><text x="88" y="63" fill="white" text-anchor="start" font-size="18px" class="ubuntu">Color</text><rect class="output data int nolist nodefault" x="270.53125" y="49" width="22" height="15" rx="1" fill="#106522" /><text x="264.53125" y="63" fill="white" text-anchor="end" font-size="18px" class="ubuntu">Int</text><path d="M72, 41 v-31 q0,-10,10,-10 h188.53125 q10,0,10,10 v31 h-208.53125" fill="#525152" /><text text-anchor="middle" fill="white" font-size="18px" x="176.265625" y="26.5" class="ubuntu">Color To Int</text></svg>