<svg xmlns="http://www.w3.org/2000/svg" width="347.015625" height="102" viewbox="0 0 347.015625 102"><defs><style>.ubuntu {font-family: 'Ubuntu', sans-serif;}</style></defs><path fill="#818081" d="M72, 41 v51 q0,10,10,10 h183.015625 q10,0,10,-10 v-51 h203.015625" /><g class="input data string nolist default"><rect x="60" y="49" width="22" height="15" fill="#784283" rx="1" /><rect x="6" y="46" width="45" height="21" rx="1" fill="#784283" /><rect x="10" y="50.001" width="37" height="13" rx="1" fill="#818081" /><rect x="51" y="53" width="9" height="7" rx="1" fill="#784283" /></g><text x="88" y="63" fill="white" text-anchor="start" font-size="18px" class="ubuntu">String</text><rect class="output data bool nolist nodefault" x="265.015625" y="49" width="22" height="15" rx="1" fill="#EA2E50" /><text x="259.015625" y="63" fill="white" text-anchor="end" font-size="18px" class="ubuntu">Result</text><rect class="output data bool nolist nodefault" x="265.015625" y="70" width="22" height="15" rx="1" fill="#EA2E50" /><text x="259.015625" y="84" fill="white" text-anchor="end" font-size="18px" class="ubuntu">Parse Success</text><path d="M72, 41 v-31 q0,-10,10,-10 h183.015625 q10,0,10,10 v31 h-203.015625" fill="#525152" /><text text-anchor="middle" fill="white" font-size="18px" x="173.5078125" y="26.5" class="ubuntu">Parse Bool</text></svg>