<svg xmlns="http://www.w3.org/2000/svg" width="497.34375" height="152" viewbox="0 0 497.34375 152"><defs><style>.ubuntu {font-family: 'Ubuntu', sans-serif;}</style></defs><path fill="#818081" class="grabBase" d="M72, 41 v101 q0,10,10,10 h333.34375 q10,0,10,-10 v-101 h353.34375" /><rect class="input data inventory item nolist nodefault" x="60" y="49" width="22" height="15" rx="1" fill="#F5C51F" /><text x="88" y="63" fill="white" text-anchor="start" font-size="18px" class="ubuntu">Inventory Item</text><rect class="output data string nolist nodefault" x="415.34375" y="49" width="22" height="15" rx="1" fill="#784283" /><text x="409.34375" y="63" fill="white" text-anchor="end" font-size="18px" class="ubuntu">Name</text><rect class="output data string nolist nodefault" x="415.34375" y="70" width="22" height="15" rx="1" fill="#784283" /><text x="409.34375" y="84" fill="white" text-anchor="end" font-size="18px" class="ubuntu">Description</text><rect class="output data bool nolist nodefault" x="415.34375" y="91" width="22" height="15" rx="1" fill="#EA2E50" /><text x="409.34375" y="105" fill="white" text-anchor="end" font-size="18px" class="ubuntu">SupportsUseAction</text><rect class="output data recnet image nolist nodefault" x="415.34375" y="112" width="22" height="15" rx="1" fill="#F5C51F" /><text x="409.34375" y="126" fill="white" text-anchor="end" font-size="18px" class="ubuntu">Image</text><path d="M72, 41 v-31 q0,-10,10,-10 h333.34375 q10,0,10,10 v31 h-353.34375" fill="#525152" /><text text-anchor="middle" fill="white" font-size="18px" x="248.671875" y="26.5" class="ubuntu">Inventory Item Get Definition</text></svg>