<svg xmlns="http://www.w3.org/2000/svg" width="503.078125" height="127" viewbox="0 0 503.078125 127"><defs><style>.ubuntu {font-family: 'Ubuntu', sans-serif;}</style></defs><path fill="#818081" class="grabBase" d="M72, 41 v76 q0,10,10,10 h339.078125 q10,0,10,-10 v-76 h359.078125" /><rect class="input data pathfinder nolist nodefault" x="60" y="49" width="22" height="15" rx="1" fill="#F5C51F" /><text x="88" y="63" fill="white" text-anchor="start" font-size="18px" class="ubuntu">Pathfinder</text><rect class="output data vector3 nolist nodefault" x="421.078125" y="49" width="22" height="15" rx="1" fill="#F5C51F" /><text x="415.078125" y="63" fill="white" text-anchor="end" font-size="18px" class="ubuntu">Target Position</text><rect class="output data float nolist nodefault" x="421.078125" y="70" width="22" height="15" rx="1" fill="#186BDD" /><text x="415.078125" y="84" fill="white" text-anchor="end" font-size="18px" class="ubuntu">Slowdown Distance</text><rect class="output data float nolist nodefault" x="421.078125" y="91" width="22" height="15" rx="1" fill="#186BDD" /><text x="415.078125" y="105" fill="white" text-anchor="end" font-size="18px" class="ubuntu">Arrival Distance</text><path d="M72, 41 v-31 q0,-10,10,-10 h339.078125 q10,0,10,10 v31 h-359.078125" fill="#525152" /><text text-anchor="middle" fill="white" font-size="18px" x="251.5390625" y="26.5" class="ubuntu">Pathfinder Get Pathing Target</text></svg>