<svg xmlns="http://www.w3.org/2000/svg" width="409.984375" height="97" viewbox="0 0 800 800"><defs><style>.ubuntu {font-family: 'Ubuntu', sans-serif;}</style></defs><rect fill="#525152" x="100" y="0" width="177.984375" height="97" /><path fill="#818081" d="M82, 0 h18 v97 h-18 q-10,0,-10,-10 v-77 q0,-10,10,-10" /><path fill="#818081" d="M277.984375, 0 h50 q10,0,10,10 v77 q0,10,-10,10 h-50 v-97" /><text x="0" y="0" fill="white" font-size="18px" text-anchor="middle" class="ubuntu"><tspan x="188.9921875" dy="18px" text-anchor="middle">Event Sender</tspan></text><path d="M77,10h-16.465c-0.552,0,-1,0.448,-1,1v16c0,0.552,0.448,1,1,1h16.465c0.334,0,0.647,-0.167,0.832,-0.445l5.333,-8c0.224,-0.336,0.224,-0.774,0,-1.11l-5.333,-8c-0.185,-0.278,-0.498,-0.445,-0.832,-0.445z" fill="#F55C1A" /><text x="88" y="24" fill="white" text-anchor="start" font-size="18px" class="ubuntu" /><path d="M344.984375,10h-16.465c-0.552,0,-1,0.448,-1,1v16c0,0.552,0.448,1,1,1h16.465c0.334,0,0.647,-0.167,0.832,-0.445l5.333,-8c0.224,-0.336,0.224,-0.774,0,-1.11l-5.333,-8c-0.185,-0.278,-0.498,-0.445,-0.832,-0.445z" fill="#F55C1A" /><text x="321.984375" y="24" fill="white" text-anchor="end" font-size="18px" class="ubuntu" /><circle cx="315.484375" cy="77" r="2.5" fill="#F6EEE8" /><path d="M319.484375,70c3.483,3.5,3.483,10.5,0,14" stroke="#F6EEE8" fill-opacity="0" stroke-width="3" stroke-linecap="round" stroke-linejoin="round" /><path d="M325.096875,67c3.483,3.5,3.483,16.5,0,20" stroke="#F6EEE8" fill-opacity="0" stroke-width="3" stroke-linecap="round" stroke-linejoin="round" /></svg>