<svg xmlns="http://www.w3.org/2000/svg" width="357.6875" height="127" viewbox="0 0 357.6875 127"><defs><style>.ubuntu {font-family: 'Ubuntu', sans-serif;}</style></defs><path fill="#818081" class="grabBase" d="M72, 41 v76 q0,10,10,10 h193.6875 q10,0,10,-10 v-76 h213.6875" /><rect class="input data ['float', 'color', 'vector3'] nolist nodefault" x="60" y="49" width="22" height="15" rx="1" fill="#F6EEE8" /><text x="88" y="63" fill="white" text-anchor="start" font-size="18px" class="ubuntu">Start</text><rect class="input data ['float', 'color', 'vector3'] nolist nodefault" x="60" y="70" width="22" height="15" rx="1" fill="#F6EEE8" /><text x="88" y="84" fill="white" text-anchor="start" font-size="18px" class="ubuntu">End</text><rect class="input data ['float', 'color', 'vector3'] nolist nodefault" x="60" y="91" width="22" height="15" rx="1" fill="#F6EEE8" /><text x="88" y="105" fill="white" text-anchor="start" font-size="18px" class="ubuntu">Value</text><rect class="output data float nolist nodefault" x="275.6875" y="49" width="22" height="15" rx="1" fill="#186BDD" /><text x="269.6875" y="63" fill="white" text-anchor="end" font-size="18px" class="ubuntu">Result</text><path d="M72, 41 v-31 q0,-10,10,-10 h193.6875 q10,0,10,10 v31 h-213.6875" fill="#525152" /><text text-anchor="middle" fill="white" font-size="18px" x="178.84375" y="26.5" class="ubuntu">Inverse Lerp</text></svg>