<svg xmlns="http://www.w3.org/2000/svg" width="320.0" height="127" viewbox="0 0 320.0 127"><defs><style>.ubuntu {font-family: 'Ubuntu', sans-serif;}</style></defs><path fill="#818081" class="grabBase" d="M72, 41 v76 q0,10,10,10 h156.0 q10,0,10,-10 v-76 h176.0" /><g class="input data bool nolist default"><rect x="60" y="49" width="22" height="15" fill="#EA2E50" rx="1" /><rect x="6" y="46" width="45" height="21" rx="1" fill="#EA2E50" /><rect x="10" y="50.001" width="37" height="13" rx="1" fill="#818081" /><rect x="51" y="53" width="9" height="7" rx="1" fill="#EA2E50" /></g><text x="88" y="63" fill="white" text-anchor="start" font-size="18px" class="ubuntu">If</text><rect class="input data any nolist nodefault" x="60" y="70" width="22" height="15" rx="1" fill="#F6EEE8" /><text x="88" y="84" fill="white" text-anchor="start" font-size="18px" class="ubuntu">Then</text><rect class="input data any nolist nodefault" x="60" y="91" width="22" height="15" rx="1" fill="#F6EEE8" /><text x="88" y="105" fill="white" text-anchor="start" font-size="18px" class="ubuntu">Else</text><rect class="output data any nolist nodefault" x="238.0" y="49" width="22" height="15" rx="1" fill="#F6EEE8" /><text x="232.0" y="63" fill="white" text-anchor="end" font-size="18px" class="ubuntu">Result</text><path d="M72, 41 v-31 q0,-10,10,-10 h156.0 q10,0,10,10 v31 h-176.0" fill="#525152" /><text text-anchor="middle" fill="white" font-size="18px" x="160.0" y="26.5" class="ubuntu">If Value</text></svg>