<svg xmlns="http://www.w3.org/2000/svg" width="537.625" height="102" viewbox="0 0 537.625 102"><defs><style>.ubuntu {font-family: 'Ubuntu', sans-serif;}</style></defs><path fill="#818081" class="grabBase" d="M72, 41 v51 q0,10,10,10 h373.625 q10,0,10,-10 v-51 h393.625" /><rect class="input data studio object nolist nodefault" x="60" y="49" width="22" height="15" rx="1" fill="#F5C51F" /><text x="88" y="63" fill="white" text-anchor="start" font-size="18px" class="ubuntu">Studio Object</text><g class="input data string nolist default"><rect x="60" y="70" width="22" height="15" fill="#784283" rx="1" /><rect x="6" y="67" width="45" height="21" rx="1" fill="#784283" /><rect x="10" y="71.001" width="37" height="13" rx="1" fill="#818081" /><rect x="51" y="74" width="9" height="7" rx="1" fill="#784283" /></g><text x="88" y="84" fill="white" text-anchor="start" font-size="18px" class="ubuntu">Property</text><rect class="output data color nolist nodefault" x="455.625" y="49" width="22" height="15" rx="1" fill="#004FB9" /><text x="449.625" y="63" fill="white" text-anchor="end" font-size="18px" class="ubuntu">Value</text><path d="M72, 41 v-31 q0,-10,10,-10 h373.625 q10,0,10,10 v31 h-393.625" fill="#525152" /><text text-anchor="middle" fill="white" font-size="18px" x="268.8125" y="26.5" class="ubuntu">Studio Object Get Property - Color</text></svg>