<svg xmlns="http://www.w3.org/2000/svg" width="466.3125" height="77" viewbox="0 0 466.3125 77"><defs><style>.ubuntu {font-family: 'Ubuntu', sans-serif;}</style></defs><path fill="#818081" d="M72, 41 v26 q0,10,10,10 h302.3125 q10,0,10,-10 v-26 h322.3125" /><g class="input data player nolist default"><rect x="60" y="49" width="22" height="15" fill="#F5C51F" rx="1" /><rect x="6" y="46" width="45" height="21" rx="1" fill="#F5C51F" /><rect x="10" y="50.001" width="37" height="13" rx="1" fill="#818081" /><rect x="51" y="53" width="9" height="7" rx="1" fill="#F5C51F" /></g><text x="88" y="63" fill="white" text-anchor="start" font-size="18px" class="ubuntu">Player</text><rect class="output data float nolist nodefault" x="384.3125" y="49" width="22" height="15" rx="1" fill="#186BDD" /><text x="378.3125" y="63" fill="white" text-anchor="end" font-size="18px" class="ubuntu">Teleport Delay (s)</text><path d="M72, 41 v-31 q0,-10,10,-10 h302.3125 q10,0,10,10 v31 h-322.3125" fill="#525152" /><text text-anchor="middle" fill="white" font-size="18px" x="233.15625" y="26.5" class="ubuntu">Player Get Teleport Delay</text></svg>