<svg xmlns="http://www.w3.org/2000/svg" width="512.078125" height="127" viewbox="0 0 512.078125 127"><defs><style>.ubuntu {font-family: 'Ubuntu', sans-serif;}</style></defs><path fill="#818081" class="grabBase" d="M72, 41 v76 q0,10,10,10 h348.078125 q10,0,10,-10 v-76 h368.078125" /><rect class="input data vector3 nolist nodefault" x="60" y="49" width="22" height="15" rx="1" fill="#F5C51F" /><text x="88" y="63" fill="white" text-anchor="start" font-size="18px" class="ubuntu">Position</text><rect class="input data vector3 nolist nodefault" x="60" y="70" width="22" height="15" rx="1" fill="#F5C51F" /><text x="88" y="84" fill="white" text-anchor="start" font-size="18px" class="ubuntu">Plane Position</text><rect class="input data vector3 nolist nodefault" x="60" y="91" width="22" height="15" rx="1" fill="#F5C51F" /><text x="88" y="105" fill="white" text-anchor="start" font-size="18px" class="ubuntu">Plane Normal</text><rect class="output data vector3 nolist nodefault" x="430.078125" y="49" width="22" height="15" rx="1" fill="#F5C51F" /><text x="424.078125" y="63" fill="white" text-anchor="end" font-size="18px" class="ubuntu">Result</text><path d="M72, 41 v-31 q0,-10,10,-10 h348.078125 q10,0,10,10 v31 h-368.078125" fill="#525152" /><text text-anchor="middle" fill="white" font-size="18px" x="256.0390625" y="26.5" class="ubuntu">Vector3 Closest Point On Plane</text></svg>