<svg xmlns="http://www.w3.org/2000/svg" width="552.296875" height="152" viewbox="0 0 552.296875 152"><defs><style>.ubuntu {font-family: 'Ubuntu', sans-serif;}</style></defs><path fill="#818081" d="M72, 41 v101 q0,10,10,10 h388.296875 q10,0,10,-10 v-101 h408.296875" /><path d="M77,49h-16.465c-0.552,0,-1,0.448,-1,1v16c0,0.552,0.448,1,1,1h16.465c0.334,0,0.647,-0.167,0.832,-0.445l5.333,-8c0.224,-0.336,0.224,-0.774,0,-1.11l-5.333,-8c-0.185,-0.278,-0.498,-0.445,-0.832,-0.445z" fill="#F55C1A" /><text x="88" y="63" fill="white" text-anchor="start" font-size="18px" class="ubuntu">Run</text><g><rect x="60" y="73" width="22" height="15" fill="#F5C51F" rx="1" /><rect x="6" y="70" width="45" height="21" rx="1" fill="#F5C51F" /><rect x="10" y="74.001" width="37" height="13" rx="1" fill="#818081" /><rect x="51" y="77" width="9" height="7" rx="1" fill="#F5C51F" /></g><text x="88" y="87" fill="white" text-anchor="start" font-size="18px" class="ubuntu">Player</text><rect x="60" y="94" width="22" height="15" rx="1" fill="#F5C51F" /><text x="88" y="108" fill="white" text-anchor="start" font-size="18px" class="ubuntu">Inventory Item</text><rect x="60" y="115" width="22" height="15" rx="1" fill="#F5C51F" /><text x="88" y="129" fill="white" text-anchor="start" font-size="18px" class="ubuntu">Inventory Equipment Slot</text><path d="M487.296875,49h-16.465c-0.552,0,-1,0.448,-1,1v16c0,0.552,0.448,1,1,1h16.465c0.334,0,0.647,-0.167,0.832,-0.445l5.333,-8c0.224,-0.336,0.224,-0.774,0,-1.11l-5.333,-8c-0.185,-0.278,-0.498,-0.445,-0.832,-0.445z" fill="#F55C1A" /><text x="464.296875" y="63" fill="white" text-anchor="end" font-size="18px" class="ubuntu">Run</text><path d="M487.296875,73h-16.465c-0.552,0,-1,0.448,-1,1v16c0,0.552,0.448,1,1,1h16.465c0.334,0,0.647,-0.167,0.832,-0.445l5.333,-8c0.224,-0.336,0.224,-0.774,0,-1.11l-5.333,-8c-0.185,-0.278,-0.498,-0.445,-0.832,-0.445z" fill="#F55C1A" /><text x="464.296875" y="87" fill="white" text-anchor="end" font-size="18px" class="ubuntu">On Equip Complete</text><rect x="470.296875" y="97" width="22" height="15" rx="1" fill="#EA2E50" /><text x="464.296875" y="111" fill="white" text-anchor="end" font-size="18px" class="ubuntu">Was Equipped</text><path d="M72, 41 v-31 q0,-10,10,-10 h388.296875 q10,0,10,10 v31 h-408.296875" fill="#525152" /><text text-anchor="middle" fill="white" font-size="18px" x="276.1484375" y="26.5" class="ubuntu">Player Equip Inventory Item</text></svg>