<svg xmlns="http://www.w3.org/2000/svg" width="499.921875" height="227" viewbox="0 0 499.921875 227"><defs><style>.ubuntu {font-family: 'Ubuntu', sans-serif;}</style></defs><path fill="#818081" class="grabBase" d="M72, 41 v176 q0,10,10,10 h335.921875 q10,0,10,-10 v-176 h355.921875" /><path class="input exec" d="M77,49h-16.465c-0.552,0,-1,0.448,-1,1v16c0,0.552,0.448,1,1,1h16.465c0.334,0,0.647,-0.167,0.832,-0.445l5.333,-8c0.224,-0.336,0.224,-0.774,0,-1.11l-5.333,-8c-0.185,-0.278,-0.498,-0.445,-0.832,-0.445z" fill="#F55C1A" /><text x="88" y="63" fill="white" text-anchor="start" font-size="18px" class="ubuntu" /><rect class="input data vector3 nolist nodefault" x="60" y="73" width="22" height="15" rx="1" fill="#F5C51F" /><text x="88" y="87" fill="white" text-anchor="start" font-size="18px" class="ubuntu">Ledge Position</text><rect class="input data vector3 nolist nodefault" x="60" y="94" width="22" height="15" rx="1" fill="#F5C51F" /><text x="88" y="108" fill="white" text-anchor="start" font-size="18px" class="ubuntu">Wall Normal</text><rect class="input data rec room object nolist nodefault" x="60" y="115" width="22" height="15" rx="1" fill="#F5C51F" /><text x="88" y="129" fill="white" text-anchor="start" font-size="18px" class="ubuntu">Wall Object</text><g class="input data bool nolist default"><rect x="60" y="136" width="22" height="15" fill="#EA2E50" rx="1" /><rect x="6" y="133" width="45" height="21" rx="1" fill="#EA2E50" /><rect x="10" y="137.001" width="37" height="13" rx="1" fill="#818081" /><rect x="51" y="140" width="9" height="7" rx="1" fill="#EA2E50" /></g><text x="88" y="150" fill="white" text-anchor="start" font-size="18px" class="ubuntu">Mantle</text><g class="input data float nolist default"><rect x="60" y="157" width="22" height="15" fill="#186BDD" rx="1" /><rect x="6" y="154" width="45" height="21" rx="1" fill="#186BDD" /><rect x="10" y="158.001" width="37" height="13" rx="1" fill="#818081" /><rect x="51" y="161" width="9" height="7" rx="1" fill="#186BDD" /></g><text x="88" y="171" fill="white" text-anchor="start" font-size="18px" class="ubuntu">Duration</text><g class="input data float nolist default"><rect x="60" y="178" width="22" height="15" fill="#186BDD" rx="1" /><rect x="6" y="175" width="45" height="21" rx="1" fill="#186BDD" /><rect x="10" y="179.001" width="37" height="13" rx="1" fill="#818081" /><rect x="51" y="182" width="9" height="7" rx="1" fill="#186BDD" /></g><text x="88" y="192" fill="white" text-anchor="start" font-size="18px" class="ubuntu">Post Clamber Velocity Multiplier</text><path class="output exec" d="M434.921875,49h-16.465c-0.552,0,-1,0.448,-1,1v16c0,0.552,0.448,1,1,1h16.465c0.334,0,0.647,-0.167,0.832,-0.445l5.333,-8c0.224,-0.336,0.224,-0.774,0,-1.11l-5.333,-8c-0.185,-0.278,-0.498,-0.445,-0.832,-0.445z" fill="#F55C1A" /><text x="411.921875" y="63" fill="white" text-anchor="end" font-size="18px" class="ubuntu" /><path d="M72, 41 v-31 q0,-10,10,-10 h335.921875 q10,0,10,10 v31 h-355.921875" fill="#525152" /><text text-anchor="middle" fill="white" font-size="18px" x="249.9609375" y="26.5" class="ubuntu">Locomotion Request Clamber</text></svg>