<svg xmlns="http://www.w3.org/2000/svg" width="435.828125" height="102" viewbox="0 0 435.828125 102"><defs><style>.ubuntu {font-family: 'Ubuntu', sans-serif;}</style></defs><path fill="#818081" d="M72, 41 v51 q0,10,10,10 h271.828125 q10,0,10,-10 v-51 h291.828125" /><path d="M77,49h-16.465c-0.552,0,-1,0.448,-1,1v16c0,0.552,0.448,1,1,1h16.465c0.334,0,0.647,-0.167,0.832,-0.445l5.333,-8c0.224,-0.336,0.224,-0.774,0,-1.11l-5.333,-8c-0.185,-0.278,-0.498,-0.445,-0.832,-0.445z" fill="#F55C1A" /><text x="88" y="63" fill="white" text-anchor="start" font-size="18px" class="ubuntu">Modify</text><path d="M370.828125,49h-16.465c-0.552,0,-1,0.448,-1,1v16c0,0.552,0.448,1,1,1h16.465c0.334,0,0.647,-0.167,0.832,-0.445l5.333,-8c0.224,-0.336,0.224,-0.774,0,-1.11l-5.333,-8c-0.185,-0.278,-0.498,-0.445,-0.832,-0.445z" fill="#F55C1A" /><text x="347.828125" y="63" fill="white" text-anchor="end" font-size="18px" class="ubuntu" /><path d="M370.828125,73h-16.465c-0.552,0,-1,0.448,-1,1v16c0,0.552,0.448,1,1,1h16.465c0.334,0,0.647,-0.167,0.832,-0.445l5.333,-8c0.224,-0.336,0.224,-0.774,0,-1.11l-5.333,-8c-0.185,-0.278,-0.498,-0.445,-0.832,-0.445z" fill="#F55C1A" /><text x="347.828125" y="87" fill="white" text-anchor="end" font-size="18px" class="ubuntu">Blend Finished</text><path d="M72, 41 v-31 q0,-10,10,-10 h271.828125 q10,0,10,10 v31 h-291.828125" fill="#525152" /><text text-anchor="middle" fill="white" font-size="18px" x="217.9140625" y="26.5" class="ubuntu">Room Skydome Reset</text></svg>