<svg xmlns="http://www.w3.org/2000/svg" width="579.125" height="127" viewbox="0 0 579.125 127"><defs><style>.ubuntu {font-family: 'Ubuntu', sans-serif;}</style></defs><path fill="#818081" d="M72, 41 v76 q0,10,10,10 h415.125 q10,0,10,-10 v-76 h435.125" /><rect class="input data touchpad nolist nodefault" x="60" y="49" width="22" height="15" rx="1" fill="#F5C51F" /><text x="88" y="63" fill="white" text-anchor="start" font-size="18px" class="ubuntu">Target</text><rect class="output data bool nolist nodefault" x="497.125" y="49" width="22" height="15" rx="1" fill="#EA2E50" /><text x="491.125" y="63" fill="white" text-anchor="end" font-size="18px" class="ubuntu">Is Touch Active</text><rect class="output data vector3 nolist nodefault" x="497.125" y="70" width="22" height="15" rx="1" fill="#F5C51F" /><text x="491.125" y="84" fill="white" text-anchor="end" font-size="18px" class="ubuntu">Touch Position</text><rect class="output data vector3 nolist nodefault" x="497.125" y="91" width="22" height="15" rx="1" fill="#F5C51F" /><text x="491.125" y="105" fill="white" text-anchor="end" font-size="18px" class="ubuntu">World Position</text><path d="M72, 41 v-31 q0,-10,10,-10 h415.125 q10,0,10,10 v31 h-435.125" fill="#525152" /><text text-anchor="middle" fill="white" font-size="18px" x="289.5625" y="26.5" class="ubuntu">Touchpad Component Get Active Touch</text></svg>