<svg xmlns="http://www.w3.org/2000/svg" width="471.90625" height="152" viewbox="0 0 471.90625 152"><defs><style>.ubuntu {font-family: 'Ubuntu', sans-serif;}</style></defs><path fill="#818081" d="M72, 41 v101 q0,10,10,10 h307.90625 q10,0,10,-10 v-101 h327.90625" /><path class="input exec" d="M77,49h-16.465c-0.552,0,-1,0.448,-1,1v16c0,0.552,0.448,1,1,1h16.465c0.334,0,0.647,-0.167,0.832,-0.445l5.333,-8c0.224,-0.336,0.224,-0.774,0,-1.11l-5.333,-8c-0.185,-0.278,-0.498,-0.445,-0.832,-0.445z" fill="#F55C1A" /><text x="88" y="63" fill="white" text-anchor="start" font-size="18px" class="ubuntu" /><rect class="input data fog nolist nodefault" x="60" y="73" width="22" height="15" rx="1" fill="#F5C51F" /><text x="88" y="87" fill="white" text-anchor="start" font-size="18px" class="ubuntu">Fog</text><g class="input data player nolist default"><rect x="60" y="94" width="22" height="15" fill="#F5C51F" rx="1" /><rect x="6" y="91" width="45" height="21" rx="1" fill="#F5C51F" /><rect x="10" y="95.001" width="37" height="13" rx="1" fill="#818081" /><rect x="51" y="98" width="9" height="7" rx="1" fill="#F5C51F" /></g><text x="88" y="108" fill="white" text-anchor="start" font-size="18px" class="ubuntu">Player</text><g class="input data float nolist default"><rect x="60" y="115" width="22" height="15" fill="#186BDD" rx="1" /><rect x="6" y="112" width="45" height="21" rx="1" fill="#186BDD" /><rect x="10" y="116.001" width="37" height="13" rx="1" fill="#818081" /><rect x="51" y="119" width="9" height="7" rx="1" fill="#186BDD" /></g><text x="88" y="129" fill="white" text-anchor="start" font-size="18px" class="ubuntu">Blend Time</text><path class="output exec" d="M406.90625,49h-16.465c-0.552,0,-1,0.448,-1,1v16c0,0.552,0.448,1,1,1h16.465c0.334,0,0.647,-0.167,0.832,-0.445l5.333,-8c0.224,-0.336,0.224,-0.774,0,-1.11l-5.333,-8c-0.185,-0.278,-0.498,-0.445,-0.832,-0.445z" fill="#F55C1A" /><text x="383.90625" y="63" fill="white" text-anchor="end" font-size="18px" class="ubuntu" /><path class="output exec" d="M406.90625,73h-16.465c-0.552,0,-1,0.448,-1,1v16c0,0.552,0.448,1,1,1h16.465c0.334,0,0.647,-0.167,0.832,-0.445l5.333,-8c0.224,-0.336,0.224,-0.774,0,-1.11l-5.333,-8c-0.185,-0.278,-0.498,-0.445,-0.832,-0.445z" fill="#F55C1A" /><text x="383.90625" y="87" fill="white" text-anchor="end" font-size="18px" class="ubuntu">Blend Finished</text><path d="M72, 41 v-31 q0,-10,10,-10 h307.90625 q10,0,10,10 v31 h-327.90625" fill="#525152" /><text text-anchor="middle" fill="white" font-size="18px" x="235.953125" y="26.5" class="ubuntu">Room Fog Player Override</text></svg>