<svg xmlns="http://www.w3.org/2000/svg" width="364.921875" height="127" viewbox="0 0 364.921875 127"><defs><style>.ubuntu {font-family: 'Ubuntu', sans-serif;}</style></defs><path fill="#818081" d="M72, 41 v76 q0,10,10,10 h200.921875 q10,0,10,-10 v-76 h220.921875" /><g class="input data float nolist default"><rect x="60" y="49" width="22" height="15" fill="#186BDD" rx="1" /><rect x="6" y="46" width="45" height="21" rx="1" fill="#186BDD" /><rect x="10" y="50.001" width="37" height="13" rx="1" fill="#818081" /><rect x="51" y="53" width="9" height="7" rx="1" fill="#186BDD" /></g><text x="88" y="63" fill="white" text-anchor="start" font-size="18px" class="ubuntu">Red</text><g class="input data float nolist default"><rect x="60" y="70" width="22" height="15" fill="#186BDD" rx="1" /><rect x="6" y="67" width="45" height="21" rx="1" fill="#186BDD" /><rect x="10" y="71.001" width="37" height="13" rx="1" fill="#818081" /><rect x="51" y="74" width="9" height="7" rx="1" fill="#186BDD" /></g><text x="88" y="84" fill="white" text-anchor="start" font-size="18px" class="ubuntu">Green</text><g class="input data float nolist default"><rect x="60" y="91" width="22" height="15" fill="#186BDD" rx="1" /><rect x="6" y="88" width="45" height="21" rx="1" fill="#186BDD" /><rect x="10" y="92.001" width="37" height="13" rx="1" fill="#818081" /><rect x="51" y="95" width="9" height="7" rx="1" fill="#186BDD" /></g><text x="88" y="105" fill="white" text-anchor="start" font-size="18px" class="ubuntu">Blue</text><rect class="output data color nolist nodefault" x="282.921875" y="49" width="22" height="15" rx="1" fill="#004FB9" /><text x="276.921875" y="63" fill="white" text-anchor="end" font-size="18px" class="ubuntu">Color</text><path d="M72, 41 v-31 q0,-10,10,-10 h200.921875 q10,0,10,10 v31 h-220.921875" fill="#525152" /><text text-anchor="middle" fill="white" font-size="18px" x="182.4609375" y="26.5" class="ubuntu">RGB To Color</text></svg>