<svg xmlns="http://www.w3.org/2000/svg" width="378.578125" height="76" viewbox="0 0 378.578125 76"><defs><style>.ubuntu {font-family: 'Ubuntu', sans-serif;}</style></defs><rect x="72" y="0" width="234.578125" height="76" rx="10" fill="#818081" /><rect x="92" y="15" width="194.578125" height="46" rx="10" fill="#525152" /><path class="input exec" d="M77,17h-16.465c-0.552,0,-1,0.448,-1,1v16c0,0.552,0.448,1,1,1h16.465c0.334,0,0.647,-0.167,0.832,-0.445l5.333,-8c0.224,-0.336,0.224,-0.774,0,-1.11l-5.333,-8c-0.185,-0.278,-0.498,-0.445,-0.832,-0.445z" fill="#F55C1A" /><text x="88" y="31" fill="white" text-anchor="start" font-size="18px" class="ubuntu" /><rect class="input data combatant nolist nodefault" x="60" y="41" width="22" height="15" rx="1" fill="#F5C51F" /><text x="88" y="55" fill="white" text-anchor="start" font-size="18px" class="ubuntu" /><path class="output exec" d="M313.578125,17h-16.465c-0.552,0,-1,0.448,-1,1v16c0,0.552,0.448,1,1,1h16.465c0.334,0,0.647,-0.167,0.832,-0.445l5.333,-8c0.224,-0.336,0.224,-0.774,0,-1.11l-5.333,-8c-0.185,-0.278,-0.498,-0.445,-0.832,-0.445z" fill="#F55C1A" /><text x="290.578125" y="31" fill="white" text-anchor="end" font-size="18px" class="ubuntu" /><rect class="output data combatant nolist nodefault" x="296.578125" y="41" width="22" height="15" rx="1" fill="#F5C51F" /><text x="290.578125" y="55" fill="white" text-anchor="end" font-size="18px" class="ubuntu" /><text x="189.2890625" y="44.0" text-anchor="middle" fill="white" font-size="18px" class="ubuntu">Combatant Variable</text></svg>