<svg xmlns="http://www.w3.org/2000/svg" width="410.4375" height="152" viewbox="0 0 410.4375 152"><defs><style>.ubuntu {font-family: 'Ubuntu', sans-serif;}</style></defs><path fill="#818081" d="M72, 41 v101 q0,10,10,10 h246.4375 q10,0,10,-10 v-101 h266.4375" /><g class="input data float nolist default"><rect x="60" y="49" width="22" height="15" fill="#186BDD" rx="1" /><rect x="6" y="46" width="45" height="21" rx="1" fill="#186BDD" /><rect x="10" y="50.001" width="37" height="13" rx="1" fill="#818081" /><rect x="51" y="53" width="9" height="7" rx="1" fill="#186BDD" /></g><text x="88" y="63" fill="white" text-anchor="start" font-size="18px" class="ubuntu">X</text><g class="input data float nolist default"><rect x="60" y="70" width="22" height="15" fill="#186BDD" rx="1" /><rect x="6" y="67" width="45" height="21" rx="1" fill="#186BDD" /><rect x="10" y="71.001" width="37" height="13" rx="1" fill="#818081" /><rect x="51" y="74" width="9" height="7" rx="1" fill="#186BDD" /></g><text x="88" y="84" fill="white" text-anchor="start" font-size="18px" class="ubuntu">Y</text><g class="input data float nolist default"><rect x="60" y="91" width="22" height="15" fill="#186BDD" rx="1" /><rect x="6" y="88" width="45" height="21" rx="1" fill="#186BDD" /><rect x="10" y="92.001" width="37" height="13" rx="1" fill="#818081" /><rect x="51" y="95" width="9" height="7" rx="1" fill="#186BDD" /></g><text x="88" y="105" fill="white" text-anchor="start" font-size="18px" class="ubuntu">Z</text><g class="input data float nolist default"><rect x="60" y="112" width="22" height="15" fill="#186BDD" rx="1" /><rect x="6" y="109" width="45" height="21" rx="1" fill="#186BDD" /><rect x="10" y="113.001" width="37" height="13" rx="1" fill="#818081" /><rect x="51" y="116" width="9" height="7" rx="1" fill="#186BDD" /></g><text x="88" y="126" fill="white" text-anchor="start" font-size="18px" class="ubuntu">W</text><rect class="output data quaternion nolist nodefault" x="328.4375" y="49" width="22" height="15" rx="1" fill="#F5C51F" /><text x="322.4375" y="63" fill="white" text-anchor="end" font-size="18px" class="ubuntu">Quaternion</text><path d="M72, 41 v-31 q0,-10,10,-10 h246.4375 q10,0,10,10 v31 h-266.4375" fill="#525152" /><text text-anchor="middle" fill="white" font-size="18px" x="205.21875" y="26.5" class="ubuntu">Quaternion Create</text></svg>