<svg xmlns="http://www.w3.org/2000/svg" width="500.578125" height="102" viewbox="0 0 500.578125 102"><defs><style>.ubuntu {font-family: 'Ubuntu', sans-serif;}</style></defs><path fill="#818081" class="grabBase" d="M72, 41 v51 q0,10,10,10 h336.578125 q10,0,10,-10 v-51 h356.578125" /><g class="input data float nolist default"><rect x="60" y="49" width="22" height="15" fill="#186BDD" rx="1" /><rect x="6" y="46" width="45" height="21" rx="1" fill="#186BDD" /><rect x="10" y="50.001" width="37" height="13" rx="1" fill="#818081" /><rect x="51" y="53" width="9" height="7" rx="1" fill="#186BDD" /></g><text x="88" y="63" fill="white" text-anchor="start" font-size="18px" class="ubuntu">Angle</text><rect class="input data vector3 nolist nodefault" x="60" y="70" width="22" height="15" rx="1" fill="#F5C51F" /><text x="88" y="84" fill="white" text-anchor="start" font-size="18px" class="ubuntu">Axis</text><rect class="output data quaternion nolist nodefault" x="418.578125" y="49" width="22" height="15" rx="1" fill="#F5C51F" /><text x="412.578125" y="63" fill="white" text-anchor="end" font-size="18px" class="ubuntu">Result</text><path d="M72, 41 v-31 q0,-10,10,-10 h336.578125 q10,0,10,10 v31 h-356.578125" fill="#525152" /><text text-anchor="middle" fill="white" font-size="18px" x="250.2890625" y="26.5" class="ubuntu">Quaternion Create Angle Axis</text></svg>