<svg xmlns="http://www.w3.org/2000/svg" width="368.640625" height="77" viewbox="0 0 368.640625 77"><defs><style>.ubuntu {font-family: 'Ubuntu', sans-serif;}</style></defs><path fill="#818081" class="grabBase" d="M72, 41 v26 q0,10,10,10 h204.640625 q10,0,10,-10 v-26 h224.640625" /><g class="input data string nolist default"><rect x="60" y="49" width="22" height="15" fill="#784283" rx="1" /><rect x="6" y="46" width="45" height="21" rx="1" fill="#784283" /><rect x="10" y="50.001" width="37" height="13" rx="1" fill="#818081" /><rect x="51" y="53" width="9" height="7" rx="1" fill="#784283" /></g><text x="88" y="63" fill="white" text-anchor="start" font-size="18px" class="ubuntu">String</text><rect class="output data int nolist nodefault" x="286.640625" y="49" width="22" height="15" rx="1" fill="#106522" /><text x="280.640625" y="63" fill="white" text-anchor="end" font-size="18px" class="ubuntu">Length</text><path d="M72, 41 v-31 q0,-10,10,-10 h204.640625 q10,0,10,10 v31 h-224.640625" fill="#525152" /><text text-anchor="middle" fill="white" font-size="18px" x="184.3203125" y="26.5" class="ubuntu">String Length</text></svg>