<svg xmlns="http://www.w3.org/2000/svg" width="393.234375" height="102" viewbox="0 0 393.234375 102"><defs><style>.ubuntu {font-family: 'Ubuntu', sans-serif;}</style></defs><path fill="#818081" d="M72, 41 v51 q0,10,10,10 h229.234375 q10,0,10,-10 v-51 h249.234375" /><rect class="input data any list nodefault" x="60" y="49" width="22" height="15" rx="1" fill="#F6EEE8" /><text x="72" y="50" fill="white" font-size="10px" font-weight="bold" class="ubuntu"><tspan x="66.5" dy="10" class="ubuntu" style="fill:none;fill-opacity:1;stroke:#000000;stroke-width:0.8px;stroke-linecap:butt;stroke-linejoin:miter;stroke-opacity:0.5;">[ ]</tspan></text><text x="88" y="63" fill="white" text-anchor="start" font-size="18px" class="ubuntu">List</text><g class="input data int nolist default"><rect x="60" y="70" width="22" height="15" fill="#106522" rx="1" /><rect x="6" y="67" width="45" height="21" rx="1" fill="#106522" /><rect x="10" y="71.001" width="37" height="13" rx="1" fill="#818081" /><rect x="51" y="74" width="9" height="7" rx="1" fill="#106522" /></g><text x="88" y="84" fill="white" text-anchor="start" font-size="18px" class="ubuntu">Index</text><rect class="output data any nolist nodefault" x="311.234375" y="49" width="22" height="15" rx="1" fill="#F6EEE8" /><text x="305.234375" y="63" fill="white" text-anchor="end" font-size="18px" class="ubuntu">Value</text><path d="M72, 41 v-31 q0,-10,10,-10 h229.234375 q10,0,10,10 v31 h-249.234375" fill="#525152" /><text text-anchor="middle" fill="white" font-size="18px" x="196.6171875" y="26.5" class="ubuntu">List Get Element</text></svg>