<svg xmlns="http://www.w3.org/2000/svg" width="512.9375" height="127" viewbox="0 0 512.9375 127"><defs><style>.ubuntu {font-family: 'Ubuntu', sans-serif;}</style></defs><path fill="#818081" class="grabBase" d="M72, 41 v76 q0,10,10,10 h348.9375 q10,0,10,-10 v-76 h368.9375" /><path class="input exec" d="M77,49h-16.465c-0.552,0,-1,0.448,-1,1v16c0,0.552,0.448,1,1,1h16.465c0.334,0,0.647,-0.167,0.832,-0.445l5.333,-8c0.224,-0.336,0.224,-0.774,0,-1.11l-5.333,-8c-0.185,-0.278,-0.498,-0.445,-0.832,-0.445z" fill="#F55C1A" /><text x="88" y="63" fill="white" text-anchor="start" font-size="18px" class="ubuntu" /><rect class="input data gun handle nolist nodefault" x="60" y="73" width="22" height="15" rx="1" fill="#F5C51F" /><text x="88" y="87" fill="white" text-anchor="start" font-size="18px" class="ubuntu">Target</text><rect class="input data string list nodefault" x="60" y="94" width="22" height="15" rx="1" fill="#784283" /><text x="72" y="95" fill="white" font-size="10px" font-weight="bold" class="ubuntu"><tspan x="66.5" dy="10" class="ubuntu" style="fill:none;fill-opacity:1;stroke:#000000;stroke-width:0.8px;stroke-linecap:butt;stroke-linejoin:miter;stroke-opacity:0.5;">[ ]</tspan></text><text x="88" y="108" fill="white" text-anchor="start" font-size="18px" class="ubuntu">Roles</text><path class="output exec" d="M447.9375,49h-16.465c-0.552,0,-1,0.448,-1,1v16c0,0.552,0.448,1,1,1h16.465c0.334,0,0.647,-0.167,0.832,-0.445l5.333,-8c0.224,-0.336,0.224,-0.774,0,-1.11l-5.333,-8c-0.185,-0.278,-0.498,-0.445,-0.832,-0.445z" fill="#F55C1A" /><text x="424.9375" y="63" fill="white" text-anchor="end" font-size="18px" class="ubuntu" /><path d="M72, 41 v-31 q0,-10,10,-10 h348.9375 q10,0,10,10 v31 h-368.9375" fill="#525152" /><text text-anchor="middle" fill="white" font-size="18px" x="256.46875" y="26.5" class="ubuntu">Gun Handle Set Auto Aim Roles</text></svg>