<svg xmlns="http://www.w3.org/2000/svg" width="412.203125" height="102" viewbox="0 0 412.203125 102"><defs><style>.ubuntu {font-family: 'Ubuntu', sans-serif;}</style></defs><path fill="#818081" class="grabBase" d="M72, 41 v51 q0,10,10,10 h248.203125 q10,0,10,-10 v-51 h268.203125" /><path class="input exec" d="M77,49h-16.465c-0.552,0,-1,0.448,-1,1v16c0,0.552,0.448,1,1,1h16.465c0.334,0,0.647,-0.167,0.832,-0.445l5.333,-8c0.224,-0.336,0.224,-0.774,0,-1.11l-5.333,-8c-0.185,-0.278,-0.498,-0.445,-0.832,-0.445z" fill="#F55C1A" /><text x="88" y="63" fill="white" text-anchor="start" font-size="18px" class="ubuntu">Run</text><rect class="input data inventory item nolist nodefault" x="60" y="73" width="22" height="15" rx="1" fill="#F5C51F" /><text x="88" y="87" fill="white" text-anchor="start" font-size="18px" class="ubuntu">Inventory Item</text><path class="output exec" d="M347.203125,49h-16.465c-0.552,0,-1,0.448,-1,1v16c0,0.552,0.448,1,1,1h16.465c0.334,0,0.647,-0.167,0.832,-0.445l5.333,-8c0.224,-0.336,0.224,-0.774,0,-1.11l-5.333,-8c-0.185,-0.278,-0.498,-0.445,-0.832,-0.445z" fill="#F55C1A" /><text x="324.203125" y="63" fill="white" text-anchor="end" font-size="18px" class="ubuntu">Run</text><path d="M72, 41 v-31 q0,-10,10,-10 h248.203125 q10,0,10,10 v31 h-268.203125" fill="#525152" /><text text-anchor="middle" fill="white" font-size="18px" x="206.1015625" y="26.5" class="ubuntu">Inventory Item Use</text></svg>