<svg xmlns="http://www.w3.org/2000/svg" width="316.484375" height="77" viewbox="0 0 316.484375 77"><defs><style>.ubuntu {font-family: 'Ubuntu', sans-serif;}</style></defs><path fill="#818081" d="M72, 41 v26 q0,10,10,10 h152.484375 q10,0,10,-10 v-26 h172.484375" /><g><rect x="60" y="49" width="22" height="15" fill="#106522" rx="1" /><rect x="6" y="46" width="45" height="21" rx="1" fill="#106522" /><rect x="10" y="50.001" width="37" height="13" rx="1" fill="#818081" /><rect x="51" y="53" width="9" height="7" rx="1" fill="#106522" /></g><text x="88" y="63" fill="white" text-anchor="start" font-size="18px" class="ubuntu" /><rect x="234.484375" y="49" width="22" height="15" rx="1" fill="#106522" /><text x="228.484375" y="63" fill="white" text-anchor="end" font-size="18px" class="ubuntu">Result</text><path d="M72, 41 v-31 q0,-10,10,-10 h152.484375 q10,0,10,10 v31 h-172.484375" fill="#525152" /><text text-anchor="middle" fill="white" font-size="18px" x="158.2421875" y="26.5" class="ubuntu">Bit Not</text></svg>