<svg xmlns="http://www.w3.org/2000/svg" width="386.859375" height="202" viewbox="0 0 386.859375 202"><defs><style>.ubuntu {font-family: 'Ubuntu', sans-serif;}</style></defs><path fill="#818081" class="grabBase" d="M72, 41 v151 q0,10,10,10 h222.859375 q10,0,10,-10 v-151 h242.859375" /><path class="input exec" d="M77,49h-16.465c-0.552,0,-1,0.448,-1,1v16c0,0.552,0.448,1,1,1h16.465c0.334,0,0.647,-0.167,0.832,-0.445l5.333,-8c0.224,-0.336,0.224,-0.774,0,-1.11l-5.333,-8c-0.185,-0.278,-0.498,-0.445,-0.832,-0.445z" fill="#F55C1A" /><text x="88" y="63" fill="white" text-anchor="start" font-size="18px" class="ubuntu">Reflect Velocity</text><rect class="input data ['player', 'rec room object'] nolist nodefault" x="60" y="73" width="22" height="15" rx="1" fill="#F6EEE8" /><text x="88" y="87" fill="white" text-anchor="start" font-size="18px" class="ubuntu">Target</text><g class="input data float nolist default"><rect x="60" y="94" width="22" height="15" fill="#186BDD" rx="1" /><rect x="6" y="91" width="45" height="21" rx="1" fill="#186BDD" /><rect x="10" y="95.001" width="37" height="13" rx="1" fill="#818081" /><rect x="51" y="98" width="9" height="7" rx="1" fill="#186BDD" /></g><text x="88" y="108" fill="white" text-anchor="start" font-size="18px" class="ubuntu">Additional Speed (m/s)</text><g class="input data float nolist default"><rect x="60" y="115" width="22" height="15" fill="#186BDD" rx="1" /><rect x="6" y="112" width="45" height="21" rx="1" fill="#186BDD" /><rect x="10" y="116.001" width="37" height="13" rx="1" fill="#818081" /><rect x="51" y="119" width="9" height="7" rx="1" fill="#186BDD" /></g><text x="88" y="129" fill="white" text-anchor="start" font-size="18px" class="ubuntu">Speed Multiplier</text><rect class="input data vector3 nolist nodefault" x="60" y="136" width="22" height="15" rx="1" fill="#F5C51F" /><text x="88" y="150" fill="white" text-anchor="start" font-size="18px" class="ubuntu">Direction</text><g class="input data float nolist default"><rect x="60" y="157" width="22" height="15" fill="#186BDD" rx="1" /><rect x="6" y="154" width="45" height="21" rx="1" fill="#186BDD" /><rect x="10" y="158.001" width="37" height="13" rx="1" fill="#818081" /><rect x="51" y="161" width="9" height="7" rx="1" fill="#186BDD" /></g><text x="88" y="171" fill="white" text-anchor="start" font-size="18px" class="ubuntu">Maximum Speed (m/s)</text><path class="output exec" d="M321.859375,49h-16.465c-0.552,0,-1,0.448,-1,1v16c0,0.552,0.448,1,1,1h16.465c0.334,0,0.647,-0.167,0.832,-0.445l5.333,-8c0.224,-0.336,0.224,-0.774,0,-1.11l-5.333,-8c-0.185,-0.278,-0.498,-0.445,-0.832,-0.445z" fill="#F55C1A" /><text x="298.859375" y="63" fill="white" text-anchor="end" font-size="18px" class="ubuntu" /><path d="M72, 41 v-31 q0,-10,10,-10 h222.859375 q10,0,10,10 v31 h-242.859375" fill="#525152" /><text text-anchor="middle" fill="white" font-size="18px" x="193.4296875" y="26.5" class="ubuntu">Velocity Reflect</text></svg>