<svg xmlns="http://www.w3.org/2000/svg" width="492.984375" height="127" viewbox="0 0 492.984375 127"><defs><style>.ubuntu {font-family: 'Ubuntu', sans-serif;}</style></defs><path fill="#818081" class="grabBase" d="M72, 41 v76 q0,10,10,10 h328.984375 q10,0,10,-10 v-76 h348.984375" /><rect class="input data pathfinder nolist nodefault" x="60" y="49" width="22" height="15" rx="1" fill="#F5C51F" /><text x="88" y="63" fill="white" text-anchor="start" font-size="18px" class="ubuntu">Pathfinder</text><rect class="output data bool nolist nodefault" x="410.984375" y="49" width="22" height="15" rx="1" fill="#EA2E50" /><text x="404.984375" y="63" fill="white" text-anchor="end" font-size="18px" class="ubuntu">Is Pathing</text><rect class="output data bool nolist nodefault" x="410.984375" y="70" width="22" height="15" rx="1" fill="#EA2E50" /><text x="404.984375" y="84" fill="white" text-anchor="end" font-size="18px" class="ubuntu">Has Arrived</text><rect class="output data bool nolist nodefault" x="410.984375" y="91" width="22" height="15" rx="1" fill="#EA2E50" /><text x="404.984375" y="105" fill="white" text-anchor="end" font-size="18px" class="ubuntu">Within Slowdown Distance</text><path d="M72, 41 v-31 q0,-10,10,-10 h328.984375 q10,0,10,10 v31 h-348.984375" fill="#525152" /><text text-anchor="middle" fill="white" font-size="18px" x="246.4921875" y="26.5" class="ubuntu">Pathfinder Get Pathing State</text></svg>