<svg xmlns="http://www.w3.org/2000/svg" width="309.5625" height="127" viewbox="0 0 309.5625 127"><defs><style>.ubuntu {font-family: 'Ubuntu', sans-serif;}</style></defs><path fill="#818081" class="grabBase" d="M72, 41 v76 q0,10,10,10 h145.5625 q10,0,10,-10 v-76 h165.5625" /><rect class="input data ['float', 'int'] nolist nodefault" x="60" y="49" width="22" height="15" rx="1" fill="#F6EEE8" /><text x="88" y="63" fill="white" text-anchor="start" font-size="18px" class="ubuntu">Value</text><rect class="input data ['float', 'int'] nolist nodefault" x="60" y="70" width="22" height="15" rx="1" fill="#F6EEE8" /><text x="88" y="84" fill="white" text-anchor="start" font-size="18px" class="ubuntu">Min</text><rect class="input data ['float', 'int'] nolist nodefault" x="60" y="91" width="22" height="15" rx="1" fill="#F6EEE8" /><text x="88" y="105" fill="white" text-anchor="start" font-size="18px" class="ubuntu">Max</text><rect class="output data ['float', 'int'] nolist nodefault" x="227.5625" y="49" width="22" height="15" rx="1" fill="#F6EEE8" /><text x="221.5625" y="63" fill="white" text-anchor="end" font-size="18px" class="ubuntu">Result</text><path d="M72, 41 v-31 q0,-10,10,-10 h145.5625 q10,0,10,10 v31 h-165.5625" fill="#525152" /><text text-anchor="middle" fill="white" font-size="18px" x="154.78125" y="26.5" class="ubuntu">Clamp</text></svg>