<svg xmlns="http://www.w3.org/2000/svg" width="452.359375" height="202" viewbox="0 0 452.359375 202"><defs><style>.ubuntu {font-family: 'Ubuntu', sans-serif;}</style></defs><path fill="#818081" d="M72, 41 v151 q0,10,10,10 h288.359375 q10,0,10,-10 v-151 h308.359375" /><rect x="60" y="49" width="22" height="15" rx="1" fill="#F5C51F" /><text x="88" y="63" fill="white" text-anchor="start" font-size="18px" class="ubuntu">Start Position</text><g><rect x="60" y="70" width="22" height="15" fill="#186BDD" rx="1" /><rect x="6" y="67" width="45" height="21" rx="1" fill="#186BDD" /><rect x="10" y="71.001" width="37" height="13" rx="1" fill="#818081" /><rect x="51" y="74" width="9" height="7" rx="1" fill="#186BDD" /></g><text x="88" y="84" fill="white" text-anchor="start" font-size="18px" class="ubuntu">Radius</text><rect x="60" y="91" width="22" height="15" rx="1" fill="#F5C51F" /><text x="88" y="105" fill="white" text-anchor="start" font-size="18px" class="ubuntu">Direction</text><g><rect x="60" y="112" width="22" height="15" fill="#186BDD" rx="1" /><rect x="6" y="109" width="45" height="21" rx="1" fill="#186BDD" /><rect x="10" y="113.001" width="37" height="13" rx="1" fill="#818081" /><rect x="51" y="116" width="9" height="7" rx="1" fill="#186BDD" /></g><text x="88" y="126" fill="white" text-anchor="start" font-size="18px" class="ubuntu">Max Distance (m)</text><rect x="370.359375" y="49" width="22" height="15" rx="1" fill="#EA2E50" /><text x="364.359375" y="63" fill="white" text-anchor="end" font-size="18px" class="ubuntu">Hit</text><rect x="370.359375" y="70" width="22" height="15" rx="1" fill="#F5C51F" /><text x="364.359375" y="84" fill="white" text-anchor="end" font-size="18px" class="ubuntu">Player</text><rect x="370.359375" y="91" width="22" height="15" rx="1" fill="#F5C51F" /><text x="364.359375" y="105" fill="white" text-anchor="end" font-size="18px" class="ubuntu">Object</text><rect x="370.359375" y="112" width="22" height="15" rx="1" fill="#186BDD" /><text x="364.359375" y="126" fill="white" text-anchor="end" font-size="18px" class="ubuntu">Distance</text><rect x="370.359375" y="133" width="22" height="15" rx="1" fill="#F5C51F" /><text x="364.359375" y="147" fill="white" text-anchor="end" font-size="18px" class="ubuntu">Hit Position</text><rect x="370.359375" y="154" width="22" height="15" rx="1" fill="#F5C51F" /><text x="364.359375" y="168" fill="white" text-anchor="end" font-size="18px" class="ubuntu">Surface Normal</text><path d="M72, 41 v-31 q0,-10,10,-10 h288.359375 q10,0,10,10 v31 h-308.359375" fill="#525152" /><text text-anchor="middle" fill="white" font-size="18px" x="226.1796875" y="26.5" class="ubuntu">Spherecast</text></svg>