<svg xmlns="http://www.w3.org/2000/svg" width="358.6875" height="152" viewbox="0 0 358.6875 152"><defs><style>.ubuntu {font-family: 'Ubuntu', sans-serif;}</style></defs><path fill="#818081" d="M72, 41 v101 q0,10,10,10 h194.6875 q10,0,10,-10 v-101 h214.6875" /><path d="M77,49h-16.465c-0.552,0,-1,0.448,-1,1v16c0,0.552,0.448,1,1,1h16.465c0.334,0,0.647,-0.167,0.832,-0.445l5.333,-8c0.224,-0.336,0.224,-0.774,0,-1.11l-5.333,-8c-0.185,-0.278,-0.498,-0.445,-0.832,-0.445z" fill="#F55C1A" /><text x="88" y="63" fill="white" text-anchor="start" font-size="18px" class="ubuntu" /><rect x="60" y="73" width="22" height="15" rx="1" fill="#F5C51F" /><text x="88" y="87" fill="white" text-anchor="start" font-size="18px" class="ubuntu">Center</text><rect x="60" y="94" width="22" height="15" rx="1" fill="#F5C51F" /><text x="88" y="108" fill="white" text-anchor="start" font-size="18px" class="ubuntu">Extents</text><rect x="60" y="115" width="22" height="15" rx="1" fill="#F5C51F" /><text x="88" y="129" fill="white" text-anchor="start" font-size="18px" class="ubuntu">Orientation</text><path d="M293.6875,49h-16.465c-0.552,0,-1,0.448,-1,1v16c0,0.552,0.448,1,1,1h16.465c0.334,0,0.647,-0.167,0.832,-0.445l5.333,-8c0.224,-0.336,0.224,-0.774,0,-1.11l-5.333,-8c-0.185,-0.278,-0.498,-0.445,-0.832,-0.445z" fill="#F55C1A" /><text x="270.6875" y="63" fill="white" text-anchor="end" font-size="18px" class="ubuntu" /><rect x="276.6875" y="73" width="22" height="15" rx="1" fill="#F5C51F" /><text x="286.6875" y="74" fill="white" font-size="10px" font-weight="bold" class="ubuntu"><tspan x="283.1875" dy="10" class="ubuntu" style="fill:none;fill-opacity:1;stroke:#000000;stroke-width:0.8px;stroke-linecap:butt;stroke-linejoin:miter;stroke-opacity:0.5;">[ ]</tspan></text><text x="270.6875" y="87" fill="white" text-anchor="end" font-size="18px" class="ubuntu">Collisions</text><path d="M72, 41 v-31 q0,-10,10,-10 h194.6875 q10,0,10,10 v31 h-214.6875" fill="#525152" /><text text-anchor="middle" fill="white" font-size="18px" x="179.34375" y="26.5" class="ubuntu">Overlap Box</text></svg>