<svg xmlns="http://www.w3.org/2000/svg" width="526.71875" height="102" viewbox="0 0 526.71875 102"><defs><style>.ubuntu {font-family: 'Ubuntu', sans-serif;}</style></defs><path fill="#818081" d="M72, 41 v51 q0,10,10,10 h362.71875 q10,0,10,-10 v-51 h382.71875" /><g><rect x="60" y="49" width="22" height="15" fill="#F5C51F" rx="1" /><rect x="6" y="46" width="45" height="21" rx="1" fill="#F5C51F" /><rect x="10" y="50.001" width="37" height="13" rx="1" fill="#818081" /><rect x="51" y="53" width="9" height="7" rx="1" fill="#F5C51F" /></g><text x="88" y="63" fill="white" text-anchor="start" font-size="18px" class="ubuntu">Player</text><rect x="444.71875" y="49" width="22" height="15" rx="1" fill="#186BDD" /><text x="438.71875" y="63" fill="white" text-anchor="end" font-size="18px" class="ubuntu">Voice Rolloff Distance (m)</text><rect x="444.71875" y="70" width="22" height="15" rx="1" fill="#EA2E50" /><text x="438.71875" y="84" fill="white" text-anchor="end" font-size="18px" class="ubuntu">Has Local Override</text><path d="M72, 41 v-31 q0,-10,10,-10 h362.71875 q10,0,10,10 v31 h-382.71875" fill="#525152" /><text text-anchor="middle" fill="white" font-size="18px" x="263.359375" y="26.5" class="ubuntu">Player Get Voice Rolloff Distance</text></svg>