<svg xmlns="http://www.w3.org/2000/svg" width="285.23" height="66" viewbox="0 0 285.23 66"><defs><style>.ubuntu {font-family: 'Ubuntu', sans-serif;}</style></defs><path fill="#525152" d="M0, 10 q0,-10,10,-10 h177.23 v66 h-177.23 q-10,0,-10,-10 v-46" /><path fill="#818081" d="M182.23, 0 h30 q10,0,10,10 v46 q0,10,-10,10 h-30 v-66" /><circle cx="7.5" cy="35.5" r="2.5" fill="#F6EEE8" /><path d="M11.5,28.5c3.483,3.5,3.483,10.5,0,14" stroke="#F6EEE8" fill-opacity="0" stroke-width="3" stroke-linecap="round" stroke-linejoin="round" /><path d="M17.1125,25.5c3.483,3.5,3.483,16.5,0,20" stroke="#F6EEE8" fill-opacity="0" stroke-width="3" stroke-linecap="round" stroke-linejoin="round" /><path d="M227.23,12h-16.465c-0.552,0,-1,0.448,-1,1v16c0,0.552,0.448,1,1,1h16.465c0.334,0,0.647,-0.167,0.832,-0.445l5.333,-8c0.224,-0.336,0.224,-0.774,0,-1.11l-5.333,-8c-0.185,-0.278,-0.498,-0.445,-0.832,-0.445z" fill="#F55C1A" /><text x="204.23" y="26" fill="white" text-anchor="end" font-size="18px" class="ubuntu" /><text x="112.28125" y="5" text-anchor="middle" fill="white" font-size="18px" class="ubuntu"><tspan x="104.25294117647059" dy="18px">Event Receiver</tspan></text></svg>