<svg xmlns="http://www.w3.org/2000/svg" width="516.890625" height="102" viewbox="0 0 516.890625 102"><defs><style>.ubuntu {font-family: 'Ubuntu', sans-serif;}</style></defs><path fill="#818081" d="M72, 41 v51 q0,10,10,10 h352.890625 q10,0,10,-10 v-51 h372.890625" /><g><rect x="60" y="49" width="22" height="15" fill="#F5C51F" rx="1" /><rect x="6" y="46" width="45" height="21" rx="1" fill="#F5C51F" /><rect x="10" y="50.001" width="37" height="13" rx="1" fill="#818081" /><rect x="51" y="53" width="9" height="7" rx="1" fill="#F5C51F" /></g><text x="88" y="63" fill="white" text-anchor="start" font-size="18px" class="ubuntu">Player</text><rect x="434.890625" y="49" width="22" height="15" rx="1" fill="#EA2E50" /><text x="428.890625" y="63" fill="white" text-anchor="end" font-size="18px" class="ubuntu">Is Jumping Or Falling</text><rect x="434.890625" y="70" width="22" height="15" rx="1" fill="#F5C51F" /><text x="428.890625" y="84" fill="white" text-anchor="end" font-size="18px" class="ubuntu">Contact Surface</text><path d="M72, 41 v-31 q0,-10,10,-10 h352.890625 q10,0,10,10 v31 h-372.890625" fill="#525152" /><text text-anchor="middle" fill="white" font-size="18px" x="258.4453125" y="26.5" class="ubuntu">Player Get Is Jumping Or Falling</text></svg>