<svg xmlns="http://www.w3.org/2000/svg" width="539.046875" height="202" viewbox="0 0 539.046875 202"><defs><style>.ubuntu {font-family: 'Ubuntu', sans-serif;}</style></defs><path fill="#818081" d="M72, 41 v151 q0,10,10,10 h375.046875 q10,0,10,-10 v-151 h395.046875" /><rect x="457.046875" y="49" width="22" height="15" rx="1" fill="#106522" /><text x="451.046875" y="63" fill="white" text-anchor="end" font-size="18px" class="ubuntu">Year</text><rect x="457.046875" y="70" width="22" height="15" rx="1" fill="#106522" /><text x="451.046875" y="84" fill="white" text-anchor="end" font-size="18px" class="ubuntu">Month</text><rect x="457.046875" y="91" width="22" height="15" rx="1" fill="#106522" /><text x="451.046875" y="105" fill="white" text-anchor="end" font-size="18px" class="ubuntu">Day</text><rect x="457.046875" y="112" width="22" height="15" rx="1" fill="#106522" /><text x="451.046875" y="126" fill="white" text-anchor="end" font-size="18px" class="ubuntu">Hour</text><rect x="457.046875" y="133" width="22" height="15" rx="1" fill="#106522" /><text x="451.046875" y="147" fill="white" text-anchor="end" font-size="18px" class="ubuntu">Minute</text><rect x="457.046875" y="154" width="22" height="15" rx="1" fill="#106522" /><text x="451.046875" y="168" fill="white" text-anchor="end" font-size="18px" class="ubuntu">Second</text><path d="M72, 41 v-31 q0,-10,10,-10 h375.046875 q10,0,10,10 v31 h-395.046875" fill="#525152" /><text text-anchor="middle" fill="white" font-size="18px" x="269.5234375" y="26.5" class="ubuntu">Time Get Unsynced Universal Time</text></svg>