<svg xmlns="http://www.w3.org/2000/svg" width="492.21875" height="302" viewbox="0 0 492.21875 302"><defs><style>.ubuntu {font-family: 'Ubuntu', sans-serif;}</style></defs><path fill="#818081" d="M72, 41 v251 q0,10,10,10 h328.21875 q10,0,10,-10 v-251 h348.21875" /><path d="M77,49h-16.465c-0.552,0,-1,0.448,-1,1v16c0,0.552,0.448,1,1,1h16.465c0.334,0,0.647,-0.167,0.832,-0.445l5.333,-8c0.224,-0.336,0.224,-0.774,0,-1.11l-5.333,-8c-0.185,-0.278,-0.498,-0.445,-0.832,-0.445z" fill="#F55C1A" /><text x="88" y="63" fill="white" text-anchor="start" font-size="18px" class="ubuntu" /><rect x="60" y="73" width="22" height="15" rx="1" fill="#F5C51F" /><text x="88" y="87" fill="white" text-anchor="start" font-size="18px" class="ubuntu">Target</text><g><rect x="60" y="94" width="22" height="15" fill="#EA2E50" rx="1" /><rect x="6" y="91" width="45" height="21" rx="1" fill="#EA2E50" /><rect x="10" y="95.001" width="37" height="13" rx="1" fill="#818081" /><rect x="51" y="98" width="9" height="7" rx="1" fill="#EA2E50" /></g><text x="88" y="108" fill="white" text-anchor="start" font-size="18px" class="ubuntu">Button 1 Enabled</text><g><rect x="60" y="115" width="22" height="15" fill="#784283" rx="1" /><rect x="6" y="112" width="45" height="21" rx="1" fill="#784283" /><rect x="10" y="116.001" width="37" height="13" rx="1" fill="#818081" /><rect x="51" y="119" width="9" height="7" rx="1" fill="#784283" /></g><text x="88" y="129" fill="white" text-anchor="start" font-size="18px" class="ubuntu">Button 1 Text</text><g><rect x="60" y="136" width="22" height="15" fill="#EA2E50" rx="1" /><rect x="6" y="133" width="45" height="21" rx="1" fill="#EA2E50" /><rect x="10" y="137.001" width="37" height="13" rx="1" fill="#818081" /><rect x="51" y="140" width="9" height="7" rx="1" fill="#EA2E50" /></g><text x="88" y="150" fill="white" text-anchor="start" font-size="18px" class="ubuntu">Button 2 Enabled</text><g><rect x="60" y="157" width="22" height="15" fill="#784283" rx="1" /><rect x="6" y="154" width="45" height="21" rx="1" fill="#784283" /><rect x="10" y="158.001" width="37" height="13" rx="1" fill="#818081" /><rect x="51" y="161" width="9" height="7" rx="1" fill="#784283" /></g><text x="88" y="171" fill="white" text-anchor="start" font-size="18px" class="ubuntu">Button 2 Text</text><g><rect x="60" y="178" width="22" height="15" fill="#EA2E50" rx="1" /><rect x="6" y="175" width="45" height="21" rx="1" fill="#EA2E50" /><rect x="10" y="179.001" width="37" height="13" rx="1" fill="#818081" /><rect x="51" y="182" width="9" height="7" rx="1" fill="#EA2E50" /></g><text x="88" y="192" fill="white" text-anchor="start" font-size="18px" class="ubuntu">Button 3 Enabled</text><g><rect x="60" y="199" width="22" height="15" fill="#784283" rx="1" /><rect x="6" y="196" width="45" height="21" rx="1" fill="#784283" /><rect x="10" y="200.001" width="37" height="13" rx="1" fill="#818081" /><rect x="51" y="203" width="9" height="7" rx="1" fill="#784283" /></g><text x="88" y="213" fill="white" text-anchor="start" font-size="18px" class="ubuntu">Button 3 Text</text><g><rect x="60" y="220" width="22" height="15" fill="#EA2E50" rx="1" /><rect x="6" y="217" width="45" height="21" rx="1" fill="#EA2E50" /><rect x="10" y="221.001" width="37" height="13" rx="1" fill="#818081" /><rect x="51" y="224" width="9" height="7" rx="1" fill="#EA2E50" /></g><text x="88" y="234" fill="white" text-anchor="start" font-size="18px" class="ubuntu">Button 4 Enabled</text><g><rect x="60" y="241" width="22" height="15" fill="#784283" rx="1" /><rect x="6" y="238" width="45" height="21" rx="1" fill="#784283" /><rect x="10" y="242.001" width="37" height="13" rx="1" fill="#818081" /><rect x="51" y="245" width="9" height="7" rx="1" fill="#784283" /></g><text x="88" y="255" fill="white" text-anchor="start" font-size="18px" class="ubuntu">Button 4 Text</text><path d="M427.21875,49h-16.465c-0.552,0,-1,0.448,-1,1v16c0,0.552,0.448,1,1,1h16.465c0.334,0,0.647,-0.167,0.832,-0.445l5.333,-8c0.224,-0.336,0.224,-0.774,0,-1.11l-5.333,-8c-0.185,-0.278,-0.498,-0.445,-0.832,-0.445z" fill="#F55C1A" /><text x="404.21875" y="63" fill="white" text-anchor="end" font-size="18px" class="ubuntu" /><path d="M72, 41 v-31 q0,-10,10,-10 h328.21875 q10,0,10,10 v31 h-348.21875" fill="#525152" /><text text-anchor="middle" fill="white" font-size="18px" x="246.109375" y="26.5" class="ubuntu">Dialogue UI Set Button State</text></svg>