<svg width="401" height="304" viewBox="0 0 401 304" fill="none" xmlns="http://www.w3.org/2000/svg">
<rect x="42.7666" y="0.015625" width="313.572" height="303.12" rx="40" fill="#525152"/>
<path d="M62.1887 86.4854H5.00668C2.24526 86.4854 0.00668335 88.7239 0.00668335 91.4853V146.1C0.00668335 148.862 2.24526 151.1 5.00668 151.1H62.1887C63.8575 151.1 65.4162 150.268 66.3442 148.881L84.6161 121.573C85.7421 119.891 85.7421 117.695 84.6161 116.012L66.3442 88.7048C65.4162 87.3179 63.8575 86.4854 62.1887 86.4854Z" fill="#F55C1A"/>
<path d="M375.761 86.4854H318.579C315.818 86.4854 313.579 88.7239 313.579 91.4853V146.1C313.579 148.862 315.818 151.1 318.579 151.1H375.761C377.43 151.1 378.989 150.268 379.917 148.881L398.188 121.573C399.314 119.891 399.314 117.695 398.188 116.012L379.917 88.7048C378.989 87.3179 377.43 86.4854 375.761 86.4854Z" fill="#F55C1A"/>
<path d="M119.734 86.4854H280.321" stroke="#818081" stroke-width="33" stroke-linecap="round"/>
<path d="M119.734 151.101H280.321" stroke="#818081" stroke-width="33" stroke-linecap="round"/>
<path d="M119.734 215.715H280.321" stroke="#818081" stroke-width="33" stroke-linecap="round"/>
</svg>
