<svg width="400" height="400" viewBox="0 0 2007 301" fill="none" xmlns="http://www.w3.org/2000/svg">
<rect x="716" width="574" height="301" rx="51" fill="#F68C4E"/>
<path d="M884.375 177.625H921.75C921 189.875 917.625 200.75 911.625 210.25C905.708 219.75 897.417 227.167 886.75 232.5C876.167 237.833 863.417 240.5 848.5 240.5C836.833 240.5 826.375 238.5 817.125 234.5C807.875 230.417 799.958 224.583 793.375 217C786.875 209.417 781.917 200.25 778.5 189.5C775.083 178.75 773.375 166.708 773.375 153.375V140.75C773.375 127.417 775.125 115.375 778.625 104.625C782.208 93.7917 787.292 84.5833 793.875 77C800.542 69.4167 808.5 63.5833 817.75 59.5C827 55.4167 837.333 53.375 848.75 53.375C863.917 53.375 876.708 56.125 887.125 61.625C897.625 67.125 905.75 74.7083 911.5 84.375C917.333 94.0417 920.833 105.042 922 117.375H884.5C884.083 110.042 882.625 103.833 880.125 98.75C877.625 93.5833 873.833 89.7083 868.75 87.125C863.75 84.4583 857.083 83.125 848.75 83.125C842.5 83.125 837.042 84.2917 832.375 86.625C827.708 88.9583 823.792 92.5 820.625 97.25C817.458 102 815.083 108 813.5 115.25C812 122.417 811.25 130.833 811.25 140.5V153.375C811.25 162.792 811.958 171.083 813.375 178.25C814.792 185.333 816.958 191.333 819.875 196.25C822.875 201.083 826.708 204.75 831.375 207.25C836.125 209.667 841.833 210.875 848.5 210.875C856.333 210.875 862.792 209.625 867.875 207.125C872.958 204.625 876.833 200.917 879.5 196C882.25 191.083 883.875 184.958 884.375 177.625ZM1012 200L1054.88 56H1096.62L1033.25 238H1005.75L1012 200ZM972.5 56L1015.25 200L1021.75 238H994L931 56H972.5ZM1234.38 209.875V238H1109.88V214L1168.75 150.875C1174.67 144.292 1179.33 138.5 1182.75 133.5C1186.17 128.417 1188.62 123.875 1190.12 119.875C1191.71 115.792 1192.5 111.917 1192.5 108.25C1192.5 102.75 1191.58 98.0417 1189.75 94.125C1187.92 90.125 1185.21 87.0417 1181.62 84.875C1178.12 82.7083 1173.79 81.625 1168.62 81.625C1163.12 81.625 1158.38 82.9583 1154.38 85.625C1150.46 88.2917 1147.46 92 1145.38 96.75C1143.38 101.5 1142.38 106.875 1142.38 112.875H1106.25C1106.25 102.042 1108.83 92.125 1114 83.125C1119.17 74.0417 1126.46 66.8333 1135.88 61.5C1145.29 56.0833 1156.46 53.375 1169.38 53.375C1182.12 53.375 1192.88 55.4583 1201.62 59.625C1210.46 63.7083 1217.12 69.625 1221.62 77.375C1226.21 85.0417 1228.5 94.2083 1228.5 104.875C1228.5 110.875 1227.54 116.75 1225.62 122.5C1223.71 128.167 1220.96 133.833 1217.38 139.5C1213.88 145.083 1209.62 150.75 1204.62 156.5C1199.62 162.25 1194.08 168.208 1188 174.375L1156.38 209.875H1234.38Z" fill="#293274"/>
</svg>
