<svg width="400" height="400" viewBox="0 0 400 400" fill="none" xmlns="http://www.w3.org/2000/svg">
<rect x="42.7554" y="48.4561" width="313.539" height="303.088" rx="40" fill="#525152"/>
<path d="M64.3115 134.917H1C0.447715 134.917 0 135.364 0 135.917V198.525C0 199.077 0.447717 199.525 1 199.525H64.3115C64.6453 199.525 64.957 199.358 65.1426 199.081L86.0887 167.777C86.3139 167.44 86.3139 167.001 86.0887 166.665L65.1426 135.361C64.957 135.083 64.6453 134.917 64.3115 134.917Z" fill="#F55C1A"/>
<path d="M377.851 134.917H314.539C313.987 134.917 313.539 135.364 313.539 135.917V198.525C313.539 199.077 313.987 199.525 314.539 199.525H377.851C378.184 199.525 378.496 199.358 378.682 199.081L399.628 167.777C399.853 167.44 399.853 167.001 399.628 166.665L378.682 135.361C378.496 135.083 378.184 134.917 377.851 134.917Z" fill="#F55C1A"/>
<path d="M119.715 134.917H280.285" stroke="#818081" stroke-width="33" stroke-linecap="round"/>
<path d="M119.715 199.525H280.285" stroke="#818081" stroke-width="33" stroke-linecap="round"/>
<path d="M119.715 264.133H280.285" stroke="#818081" stroke-width="33" stroke-linecap="round"/>
</svg>
