<svg width="800" height="202" xmlns="http://www.w3.org/2000/svg" viewbox="0 0 800 202"><path fill="#818081" d="M72, 41 v151 q0,10,10,10 h293.26 q10,0,10,-10 v-151 h313.26"></path><rect x="375.26" y="49" width="22" height="15" rx="1" fill="#106522"></rect><text x="369.26" y="61.5" fill="white" text-anchor="end" font-size="medium" class="uwuntu">Year</text><rect x="375.26" y="70" width="22" height="15" rx="1" fill="#106522"></rect><text x="369.26" y="82.5" fill="white" text-anchor="end" font-size="medium" class="uwuntu">Month</text><rect x="375.26" y="91" width="22" height="15" rx="1" fill="#106522"></rect><text x="369.26" y="103.5" fill="white" text-anchor="end" font-size="medium" class="uwuntu">Day</text><rect x="375.26" y="112" width="22" height="15" rx="1" fill="#106522"></rect><text x="369.26" y="124.5" fill="white" text-anchor="end" font-size="medium" class="uwuntu">Hour</text><rect x="375.26" y="133" width="22" height="15" rx="1" fill="#106522"></rect><text x="369.26" y="145.5" fill="white" text-anchor="end" font-size="medium" class="uwuntu">Minute</text><rect x="375.26" y="154" width="22" height="15" rx="1" fill="#106522"></rect><text x="369.26" y="166.5" fill="white" text-anchor="end" font-size="medium" class="uwuntu">Second</text><path d="M72, 41 v-31 q0,-10,10,-10 h293.26 q10,0,10,10 v31 h-313.26" fill="#525152"></path><text x="228.63" y="29.5" fill="white" text-anchor="middle" font-size="18px" class="uwuntu">Time Get Universal Time</text></svg>