<svg width="800" height="152" xmlns="http://www.w3.org/2000/svg" viewbox="0 0 800 152"><path fill="#818081" d="M72, 41 v101 q0,10,10,10 h223.6 q10,0,10,-10 v-101 h243.6"></path><rect x="60" y="49" width="22" height="15" rx="1" fill="#F5C51F"></rect><text x="88" y="61.5" fill="white" text-anchor="start" font-size="medium" class="uwuntu">Quaternion</text><rect x="305.6" y="49" width="22" height="15" rx="1" fill="#186BDD"></rect><text x="299.6" y="61.5" fill="white" text-anchor="end" font-size="medium" class="uwuntu">X</text><rect x="305.6" y="70" width="22" height="15" rx="1" fill="#186BDD"></rect><text x="299.6" y="82.5" fill="white" text-anchor="end" font-size="medium" class="uwuntu">Y</text><rect x="305.6" y="91" width="22" height="15" rx="1" fill="#186BDD"></rect><text x="299.6" y="103.5" fill="white" text-anchor="end" font-size="medium" class="uwuntu">Z</text><rect x="305.6" y="112" width="22" height="15" rx="1" fill="#186BDD"></rect><text x="299.6" y="124.5" fill="white" text-anchor="end" font-size="medium" class="uwuntu">W</text><path d="M72, 41 v-31 q0,-10,10,-10 h223.6 q10,0,10,10 v31 h-243.6" fill="#525152"></path><text x="193.8" y="26.5" fill="white" text-anchor="middle" font-size="18px" class="uwuntu">Quaternion Split</text></svg>