<svg width="800" height="216.42000000000002" xmlns="http://www.w3.org/2000/svg" viewbox="0 0 800 216.42000000000002"><path fill="#818081" d="M160, 41 v76 q0,10,10,10 h196.42000000000002 q10,0,10,-10 v-76 h216.42000000000002"></path><rect x="148" y="49" width="22" height="15" rx="1" fill="#F5C51F"></rect><text x="176" y="61.5" fill="white" text-anchor="start" font-size="medium" class="uwuntu">Vector3</text><rect x="366.42" y="49" width="22" height="15" rx="1" fill="#186BDD"></rect><text x="360.42" y="61.5" fill="white" text-anchor="end" font-size="medium" class="uwuntu">X</text><rect x="366.42" y="70" width="22" height="15" rx="1" fill="#186BDD"></rect><text x="360.42" y="82.5" fill="white" text-anchor="end" font-size="medium" class="uwuntu">Y</text><rect x="366.42" y="91" width="22" height="15" rx="1" fill="#186BDD"></rect><text x="360.42" y="103.5" fill="white" text-anchor="end" font-size="medium" class="uwuntu">Z</text><path d="M160, 41 v-31 q0,-10,10,-10 h196.42000000000002 q10,0,10,10 v31 h-216.42000000000002" fill="#525152"></path><text x="268.21000000000004" y="29.5" fill="white" text-anchor="middle" font-size="18px" class="uwuntu">Vector3 Split</text></svg>