<svg xmlns="http://www.w3.org/2000/svg" width="363.1875" height="127" viewbox="0 0 363.1875 127"><defs><style>.ubuntu {font-family: 'Ubuntu', sans-serif;}</style></defs><path fill="#818081" d="M72, 41 v76 q0,10,10,10 h199.1875 q10,0,10,-10 v-76 h219.1875" /><rect x="60" y="49" width="22" height="15" rx="1" fill="#F5C51F" /><text x="88" y="63" fill="white" text-anchor="start" font-size="18px" class="ubuntu">Vector3</text><rect x="281.1875" y="49" width="22" height="15" rx="1" fill="#186BDD" /><text x="275.1875" y="63" fill="white" text-anchor="end" font-size="18px" class="ubuntu">X</text><rect x="281.1875" y="70" width="22" height="15" rx="1" fill="#186BDD" /><text x="275.1875" y="84" fill="white" text-anchor="end" font-size="18px" class="ubuntu">Y</text><rect x="281.1875" y="91" width="22" height="15" rx="1" fill="#186BDD" /><text x="275.1875" y="105" fill="white" text-anchor="end" font-size="18px" class="ubuntu">Z</text><path d="M72, 41 v-31 q0,-10,10,-10 h199.1875 q10,0,10,10 v31 h-219.1875" fill="#525152" /><text text-anchor="middle" fill="white" font-size="18px" x="181.59375" y="26.5" class="ubuntu">Vector3 Split</text></svg>