<svg width="800" height="127" xmlns="http://www.w3.org/2000/svg" viewbox="0 0 800 127"><path fill="#818081" d="M72, 41 v76 q0,10,10,10 h196.42000000000002 q10,0,10,-10 v-76 h216.42000000000002"></path><rect x="60" y="49" width="22" height="15" rx="1" fill="#F5C51F"></rect><text x="88" y="61.5" fill="white" text-anchor="start" font-size="medium" class="uwuntu">Vector3</text><rect x="278.42" y="49" width="22" height="15" rx="1" fill="#186BDD"></rect><text x="272.42" y="61.5" fill="white" text-anchor="end" font-size="medium" class="uwuntu">X</text><rect x="278.42" y="70" width="22" height="15" rx="1" fill="#186BDD"></rect><text x="272.42" y="82.5" fill="white" text-anchor="end" font-size="medium" class="uwuntu">Y</text><rect x="278.42" y="91" width="22" height="15" rx="1" fill="#186BDD"></rect><text x="272.42" y="103.5" fill="white" text-anchor="end" font-size="medium" class="uwuntu">Z</text><path d="M72, 41 v-31 q0,-10,10,-10 h196.42000000000002 q10,0,10,10 v31 h-216.42000000000002" fill="#525152"></path><text x="180.21" y="26.5" fill="white" text-anchor="middle" font-size="18px" class="uwuntu">Vector3 Split</text></svg>