<svg width="800" height="127" xmlns="http://www.w3.org/2000/svg" viewbox="0 0 800 127"><path fill="#818081" d="M72, 41 v76 q0,10,10,10 h205.24 q10,0,10,-10 v-76 h225.24"></path><g filter="url(#filter0_di_2556_19132)"><rect x="60" y="49" width="22" height="15" rx="1" fill="#186BDD"></rect></g><g filter="url(#filter1_di_2556_19132)"><rect x="6" y="46" width="45" height="21" rx="1" fill="#186BDD"></rect><rect x="10" y="50.001" width="37" height="13" rx="1" fill="#818081"></rect></g><g filter="url(#filter2_di_2556_19132)"><rect x="51" y="53" width="9" height="7" fill="#186BDD"></rect></g><text x="88" y="61.5" fill="white" text-anchor="start" font-size="medium" class="uwuntu">Hue</text><g filter="url(#filter0_di_2556_19132)"><rect x="60" y="70" width="22" height="15" rx="1" fill="#186BDD"></rect></g><g filter="url(#filter1_di_2556_19132)"><rect x="6" y="67" width="45" height="21" rx="1" fill="#186BDD"></rect><rect x="10" y="71.001" width="37" height="13" rx="1" fill="#818081"></rect></g><g filter="url(#filter2_di_2556_19132)"><rect x="51" y="74" width="9" height="7" fill="#186BDD"></rect></g><text x="88" y="82.5" fill="white" text-anchor="start" font-size="medium" class="uwuntu">Saturation</text><g filter="url(#filter0_di_2556_19132)"><rect x="60" y="91" width="22" height="15" rx="1" fill="#186BDD"></rect></g><g filter="url(#filter1_di_2556_19132)"><rect x="6" y="88" width="45" height="21" rx="1" fill="#186BDD"></rect><rect x="10" y="92.001" width="37" height="13" rx="1" fill="#818081"></rect></g><g filter="url(#filter2_di_2556_19132)"><rect x="51" y="95" width="9" height="7" fill="#186BDD"></rect></g><text x="88" y="103.5" fill="white" text-anchor="start" font-size="medium" class="uwuntu">Value</text><rect x="287.24" y="49" width="22" height="15" rx="1" fill="#004FB9"></rect><text x="281.24" y="61.5" fill="white" text-anchor="end" font-size="medium" class="uwuntu">Color</text><path d="M72, 41 v-31 q0,-10,10,-10 h205.24 q10,0,10,10 v31 h-225.24" fill="#525152"></path><text x="184.62" y="26.5" fill="white" text-anchor="middle" font-size="18px" class="uwuntu">HSV To Color</text></svg>