<svg width="800" height="348.9" xmlns="http://www.w3.org/2000/svg" viewbox="0 0 800 348.9"><defs><style type="text/css">@import url('https://fonts.googleapis.com/css2?family=Ubuntu');</style></defs><path fill="#818081" d="M160, 41 v26 q0,10,10,10 h328.9 q10,0,10,-10 v-26 h348.9"></path><g filter="url(#filter0_di_2556_19132)"><rect x="148" y="49" width="22" height="15" rx="1" fill="#784283"></rect></g><g filter="url(#filter1_di_2556_19132)"><rect x="94" y="45" width="45" height="23" rx="1" fill="#784283"></rect><rect x="98" y="49.001" width="37" height="15" rx="1" fill="#818081"></rect></g><g filter="url(#filter2_di_2556_19132)"><rect x="139" y="53" width="9" height="7" fill="#784283"></rect></g><text x="176" y="61.5" fill="white" text-anchor="start" font-size="medium" font-family="Ubuntu">Name</text><rect x="498.9" y="49" width="22" height="15" rx="1" fill="#F5C51F"></rect><text x="492.9" y="61.5" fill="white" text-anchor="end" font-size="medium" font-family="Ubuntu">Player</text><path d="M160, 41 v-31 q0,-10,10,-10 h328.9 q10,0,10,10 v31 h-348.9" fill="#525152"></path><text x="334.45" y="29.5" fill="white" text-anchor="middle" font-size="18px" font-family="Ubuntu">Get Player By Account Name</text></svg>