<svg xmlns="http://www.w3.org/2000/svg" width="387.78125" height="76" viewbox="0 0 387.78125 76"><defs><style>.ubuntu {font-family: 'Ubuntu', sans-serif;}</style></defs><rect x="72" y="0" width="243.78125" height="76" rx="10" fill="#818081" /><rect x="92" y="15" width="203.78125" height="46" rx="10" fill="#525152" /><path d="M77,17h-16.465c-0.552,0,-1,0.448,-1,1v16c0,0.552,0.448,1,1,1h16.465c0.334,0,0.647,-0.167,0.832,-0.445l5.333,-8c0.224,-0.336,0.224,-0.774,0,-1.11l-5.333,-8c-0.185,-0.278,-0.498,-0.445,-0.832,-0.445z" fill="#F55C1A" /><text x="88" y="31" fill="white" text-anchor="start" font-size="18px" class="ubuntu" /><rect x="60" y="41" width="22" height="15" rx="1" fill="#F5C51F" /><text x="72" y="42" fill="white" font-size="10px" font-weight="bold" class="ubuntu"><tspan x="66.5" dy="10" class="ubuntu" style="fill:none;fill-opacity:1;stroke:#000000;stroke-width:0.8px;stroke-linecap:butt;stroke-linejoin:miter;stroke-opacity:0.5;">[ ]</tspan></text><text x="88" y="55" fill="white" text-anchor="start" font-size="18px" class="ubuntu" /><path d="M322.78125,17h-16.465c-0.552,0,-1,0.448,-1,1v16c0,0.552,0.448,1,1,1h16.465c0.334,0,0.647,-0.167,0.832,-0.445l5.333,-8c0.224,-0.336,0.224,-0.774,0,-1.11l-5.333,-8c-0.185,-0.278,-0.498,-0.445,-0.832,-0.445z" fill="#F55C1A" /><text x="299.78125" y="31" fill="white" text-anchor="end" font-size="18px" class="ubuntu" /><rect x="305.78125" y="41" width="22" height="15" rx="1" fill="#F5C51F" /><text x="315.78125" y="42" fill="white" font-size="10px" font-weight="bold" class="ubuntu"><tspan x="312.28125" dy="10" class="ubuntu" style="fill:none;fill-opacity:1;stroke:#000000;stroke-width:0.8px;stroke-linecap:butt;stroke-linejoin:miter;stroke-opacity:0.5;">[ ]</tspan></text><text x="299.78125" y="55" fill="white" text-anchor="end" font-size="18px" class="ubuntu" /><text x="193.890625" y="44.0" text-anchor="middle" fill="white" font-size="18px" class="ubuntu">List&lt;Player&gt; Variable</text></svg>