<svg width="800" height="800" xmlns="http://www.w3.org/2000/svg" viewbox="0 0 800 800"><rect x="72" y="0" width="254.36" height="76" fill="#818081" rx="10"></rect><rect x="92" y="15" width="214.36" height="46" fill="#525152" rx="10"></rect><path d="M77,17h-16.465c-0.552,0,-1,0.448,-1,1v16c0,0.552,0.448,1,1,1h16.465c0.334,0,0.647,-0.167,0.832,-0.445l5.333,-8c0.224,-0.336,0.224,-0.774,0,-1.11l-5.333,-8c-0.185,-0.278,-0.498,-0.445,-0.832,-0.445z" fill="#F55C1A"></path><text x="88" y="29.5" fill="white" text-anchor="start" font-size="medium" class="uwuntu"></text><g filter="url(#filter0_di_2556_19132)"><rect x="60" y="41" width="22" height="15" rx="1" fill="#106522"></rect></g><g filter="url(#filter1_di_2556_19132)"><rect x="6" y="38" width="45" height="21" rx="1" fill="#106522"></rect><rect x="10" y="42.001" width="37" height="13" rx="1" fill="#818081"></rect></g><g filter="url(#filter2_di_2556_19132)"><rect x="51" y="45" width="9" height="7" fill="#106522"></rect></g><text x="88" y="53.5" fill="white" text-anchor="start" font-size="medium" class="uwuntu"></text><path d="M333.36,17h-16.465c-0.552,0,-1,0.448,-1,1v16c0,0.552,0.448,1,1,1h16.465c0.334,0,0.647,-0.167,0.832,-0.445l5.333,-8c0.224,-0.336,0.224,-0.774,0,-1.11l-5.333,-8c-0.185,-0.278,-0.498,-0.445,-0.832,-0.445z" fill="#F55C1A"></path><text x="310.36" y="29.5" fill="white" text-anchor="end" font-size="medium" class="uwuntu"></text><rect x="316.36" y="41" width="22" height="15" rx="1" fill="#106522"></rect><text x="310.36" y="53.5" fill="white" text-anchor="end" font-size="medium" class="uwuntu"></text><text x="199.18" y="44" fill="white" text-anchor="middle" font-size="18px" class="uwuntu">int Variable</text></svg>