<svg width="437.82" height="127" xmlns="http://www.w3.org/2000/svg" viewbox="0 0 437.82 127"><path fill="#818081" d="M72, 41 v76 q0,10,10,10 h273.82 q10,0,10,-10 v-76 h293.82"></path><rect x="60" y="49" width="22" height="15" rx="1" fill="#F6EEE8"></rect><text x="88" y="61.5" fill="white" text-anchor="start" font-size="medium" class="uwuntu">Object</text><rect x="355.82" y="49" width="22" height="15" rx="1" fill="#106522"></rect><text x="349.82" y="61.5" fill="white" text-anchor="end" font-size="medium" class="uwuntu">Health</text><rect x="355.82" y="70" width="22" height="15" rx="1" fill="#106522"></rect><text x="349.82" y="82.5" fill="white" text-anchor="end" font-size="medium" class="uwuntu">Shield</text><rect x="355.82" y="91" width="22" height="15" rx="1" fill="#106522"></rect><text x="349.82" y="103.5" fill="white" text-anchor="end" font-size="medium" class="uwuntu">Max Health</text><path d="M72, 41 v-31 q0,-10,10,-10 h273.82 q10,0,10,10 v31 h-293.82" fill="#525152"></path><text x="218.91" y="26.5" fill="white" text-anchor="middle" font-size="18px" class="uwuntu">Combatant Get Health</text></svg>