<svg width="800" height="293.82" xmlns="http://www.w3.org/2000/svg" viewbox="0 0 800 293.82"><defs><style type="text/css">@import url('https://fonts.googleapis.com/css2?family=Ubuntu');</style></defs><path fill="#818081" d="M160, 41 v76 q0,10,10,10 h273.82 q10,0,10,-10 v-76 h293.82"></path><rect x="148" y="49" width="22" height="15" rx="1" fill="#F6EEE8"></rect><text x="176" y="61.5" fill="white" text-anchor="start" font-size="medium" font-family="Ubuntu">Object</text><rect x="443.82" y="49" width="22" height="15" rx="1" fill="#106522"></rect><text x="437.82" y="61.5" fill="white" text-anchor="end" font-size="medium" font-family="Ubuntu">Health</text><rect x="443.82" y="70" width="22" height="15" rx="1" fill="#106522"></rect><text x="437.82" y="82.5" fill="white" text-anchor="end" font-size="medium" font-family="Ubuntu">Shield</text><rect x="443.82" y="91" width="22" height="15" rx="1" fill="#106522"></rect><text x="437.82" y="103.5" fill="white" text-anchor="end" font-size="medium" font-family="Ubuntu">Max Health</text><path d="M160, 41 v-31 q0,-10,10,-10 h273.82 q10,0,10,10 v31 h-293.82" fill="#525152"></path><text x="306.90999999999997" y="29.5" fill="white" text-anchor="middle" font-size="18px" font-family="Ubuntu">Combatant Get Health</text></svg>