<svg width="800" height="152" xmlns="http://www.w3.org/2000/svg" viewbox="0 0 800 152"><path fill="#818081" d="M72, 41 v101 q0,10,10,10 h349.24 q10,0,10,-10 v-101 h369.24"></path><rect x="60" y="49" width="22" height="15" rx="1" fill="#F5C51F"></rect><text x="88" y="61.5" fill="white" text-anchor="start" font-size="medium" class="uwuntu">AI</text><rect x="431.24" y="49" width="22" height="15" rx="1" fill="#784283"></rect><text x="425.24" y="61.5" fill="white" text-anchor="end" font-size="medium" class="uwuntu">Vision Type</text><rect x="431.24" y="70" width="22" height="15" rx="1" fill="#186BDD"></rect><text x="425.24" y="82.5" fill="white" text-anchor="end" font-size="medium" class="uwuntu">Vision Range (m)</text><rect x="431.24" y="91" width="22" height="15" rx="1" fill="#186BDD"></rect><text x="425.24" y="103.5" fill="white" text-anchor="end" font-size="medium" class="uwuntu">Vision Cone Angle</text><rect x="431.24" y="112" width="22" height="15" rx="1" fill="#186BDD"></rect><text x="425.24" y="124.5" fill="white" text-anchor="end" font-size="medium" class="uwuntu">Hearing Range (m)</text><path d="M72, 41 v-31 q0,-10,10,-10 h349.24 q10,0,10,10 v31 h-369.24" fill="#525152"></path><text x="256.62" y="26.5" fill="white" text-anchor="middle" font-size="18px" class="uwuntu">AI Get Line of Sight Parameters</text></svg>