<svg xmlns="http://www.w3.org/2000/svg" width="516.03125" height="102" viewbox="0 0 516.03125 102"><defs><style>.ubuntu {font-family: 'Ubuntu', sans-serif;}</style></defs><path fill="#818081" d="M72, 41 v51 q0,10,10,10 h352.03125 q10,0,10,-10 v-51 h372.03125" /><rect x="60" y="49" width="22" height="15" rx="1" fill="#F5C51F" /><text x="88" y="63" fill="white" text-anchor="start" font-size="18px" class="ubuntu">Studio Object</text><g><rect x="60" y="70" width="22" height="15" fill="#784283" rx="1" /><rect x="6" y="67" width="45" height="21" rx="1" fill="#784283" /><rect x="10" y="71.001" width="37" height="13" rx="1" fill="#818081" /><rect x="51" y="74" width="9" height="7" rx="1" fill="#784283" /></g><text x="88" y="84" fill="white" text-anchor="start" font-size="18px" class="ubuntu">Property</text><rect x="434.03125" y="49" width="22" height="15" rx="1" fill="#106522" /><text x="428.03125" y="63" fill="white" text-anchor="end" font-size="18px" class="ubuntu">Value</text><path d="M72, 41 v-31 q0,-10,10,-10 h352.03125 q10,0,10,10 v31 h-372.03125" fill="#525152" /><text text-anchor="middle" fill="white" font-size="18px" x="258.015625" y="26.5" class="ubuntu">Studio Object Get Property - Int</text></svg>