<svg width="380.58" height="102" xmlns="http://www.w3.org/2000/svg" viewbox="0 0 380.58 102"><path fill="#818081" d="M72, 41 v51 q0,10,10,10 h216.57999999999998 q10,0,10,-10 v-51 h236.57999999999998"></path><path d="M77,49h-16.465c-0.552,0,-1,0.448,-1,1v16c0,0.552,0.448,1,1,1h16.465c0.334,0,0.647,-0.167,0.832,-0.445l5.333,-8c0.224,-0.336,0.224,-0.774,0,-1.11l-5.333,-8c-0.185,-0.278,-0.498,-0.445,-0.832,-0.445z" fill="#F55C1A"></path><text x="88" y="61.5" fill="white" text-anchor="start" font-size="medium" class="uwuntu"></text><rect x="60" y="73" width="22" height="15" rx="1" fill="#F5C51F"></rect><text x="88" y="85.5" fill="white" text-anchor="start" font-size="medium" class="uwuntu">Animator</text><path d="M315.58,49h-16.465c-0.552,0,-1,0.448,-1,1v16c0,0.552,0.448,1,1,1h16.465c0.334,0,0.647,-0.167,0.832,-0.445l5.333,-8c0.224,-0.336,0.224,-0.774,0,-1.11l-5.333,-8c-0.185,-0.278,-0.498,-0.445,-0.832,-0.445z" fill="#F55C1A"></path><text x="292.58" y="61.5" fill="white" text-anchor="end" font-size="medium" class="uwuntu"></text><path d="M72, 41 v-31 q0,-10,10,-10 h216.57999999999998 q10,0,10,10 v31 h-236.57999999999998" fill="#525152"></path><text x="190.29" y="26.5" fill="white" text-anchor="middle" font-size="18px" class="uwuntu">Animation Stop</text></svg>