<svg width="800" height="276.53999999999996" xmlns="http://www.w3.org/2000/svg" viewbox="0 0 800 276.53999999999996"><path fill="#818081" d="M160, 41 v101 q0,10,10,10 h256.53999999999996 q10,0,10,-10 v-101 h276.53999999999996"></path><path d="M165,49h-16.465c-0.552,0,-1,0.448,-1,1v16c0,0.552,0.448,1,1,1h16.465c0.334,0,0.647,-0.167,0.832,-0.445l5.333,-8c0.224,-0.336,0.224,-0.774,0,-1.11l-5.333,-8c-0.185,-0.278,-0.498,-0.445,-0.832,-0.445z" fill="#F55C1A"></path><text x="176" y="61.5" fill="white" text-anchor="start" font-size="medium" class="uwuntu"></text><g filter="url(#filter0_di_2556_19132)"><rect x="148" y="73" width="22" height="15" rx="1" fill="#784283"></rect></g><g filter="url(#filter1_di_2556_19132)"><rect x="94" y="69" width="45" height="23" rx="1" fill="#784283"></rect><rect x="98" y="73.001" width="37" height="15" rx="1" fill="#818081"></rect></g><g filter="url(#filter2_di_2556_19132)"><rect x="139" y="77" width="9" height="7" fill="#784283"></rect></g><text x="176" y="85.5" fill="white" text-anchor="start" font-size="medium" class="uwuntu">Prompt Title</text><g filter="url(#filter0_di_2556_19132)"><rect x="148" y="94" width="22" height="15" rx="1" fill="#784283"></rect></g><g filter="url(#filter1_di_2556_19132)"><rect x="94" y="90" width="45" height="23" rx="1" fill="#784283"></rect><rect x="98" y="94.001" width="37" height="15" rx="1" fill="#818081"></rect></g><g filter="url(#filter2_di_2556_19132)"><rect x="139" y="98" width="9" height="7" fill="#784283"></rect></g><text x="176" y="106.5" fill="white" text-anchor="start" font-size="medium" class="uwuntu">Prompt</text><path d="M443.53999999999996,49h-16.465c-0.552,0,-1,0.448,-1,1v16c0,0.552,0.448,1,1,1h16.465c0.334,0,0.647,-0.167,0.832,-0.445l5.333,-8c0.224,-0.336,0.224,-0.774,0,-1.11l-5.333,-8c-0.185,-0.278,-0.498,-0.445,-0.832,-0.445z" fill="#F55C1A"></path><text x="420.53999999999996" y="61.5" fill="white" text-anchor="end" font-size="medium" class="uwuntu"></text><path d="M443.53999999999996,73h-16.465c-0.552,0,-1,0.448,-1,1v16c0,0.552,0.448,1,1,1h16.465c0.334,0,0.647,-0.167,0.832,-0.445l5.333,-8c0.224,-0.336,0.224,-0.774,0,-1.11l-5.333,-8c-0.185,-0.278,-0.498,-0.445,-0.832,-0.445z" fill="#F55C1A"></path><text x="420.53999999999996" y="85.5" fill="white" text-anchor="end" font-size="medium" class="uwuntu">Complete</text><rect x="426.53999999999996" y="97" width="22" height="15" rx="1" fill="#784283"></rect><text x="420.53999999999996" y="109.5" fill="white" text-anchor="end" font-size="medium" class="uwuntu">Response</text><path d="M443.53999999999996,118h-16.465c-0.552,0,-1,0.448,-1,1v16c0,0.552,0.448,1,1,1h16.465c0.334,0,0.647,-0.167,0.832,-0.445l5.333,-8c0.224,-0.336,0.224,-0.774,0,-1.11l-5.333,-8c-0.185,-0.278,-0.498,-0.445,-0.832,-0.445z" fill="#F55C1A"></path><text x="420.53999999999996" y="130.5" fill="white" text-anchor="end" font-size="medium" class="uwuntu">Failed</text><path d="M160, 41 v-31 q0,-10,10,-10 h256.53999999999996 q10,0,10,10 v31 h-276.53999999999996" fill="#525152"></path><text x="298.27" y="29.5" fill="white" text-anchor="middle" font-size="18px" class="uwuntu">Prompt Local Player</text></svg>