<svg width="352.32" height="127" xmlns="http://www.w3.org/2000/svg" viewbox="0 0 352.32 127"><path fill="#818081" d="M72, 41 v76 q0,10,10,10 h188.32 q10,0,10,-10 v-76 h208.32"></path><rect x="60" y="49" width="22" height="15" rx="1" fill="#F6EEE8"></rect><text x="88" y="61.5" fill="white" text-anchor="start" font-size="medium" class="uwuntu">Origin</text><rect x="60" y="70" width="22" height="15" rx="1" fill="#F6EEE8"></rect><text x="88" y="82.5" fill="white" text-anchor="start" font-size="medium" class="uwuntu">Targets</text><rect x="270.32" y="49" width="22" height="15" rx="1" fill="#F6EEE8"></rect><text x="264.32" y="61.5" fill="white" text-anchor="end" font-size="medium" class="uwuntu">Closest</text><rect x="270.32" y="70" width="22" height="15" rx="1" fill="#106522"></rect><text x="264.32" y="82.5" fill="white" text-anchor="end" font-size="medium" class="uwuntu">Closest Index</text><rect x="270.32" y="91" width="22" height="15" rx="1" fill="#186BDD"></rect><text x="264.32" y="103.5" fill="white" text-anchor="end" font-size="medium" class="uwuntu">Distance</text><path d="M72, 41 v-31 q0,-10,10,-10 h188.32 q10,0,10,10 v31 h-208.32" fill="#525152"></path><text x="176.16" y="26.5" fill="white" text-anchor="middle" font-size="18px" class="uwuntu">Get Closest</text></svg>