<svg width="576.5999999999999" height="102" xmlns="http://www.w3.org/2000/svg" viewbox="0 0 576.5999999999999 102"><path fill="#818081" d="M72, 41 v51 q0,10,10,10 h412.59999999999997 q10,0,10,-10 v-51 h432.59999999999997"></path><path d="M77,49h-16.465c-0.552,0,-1,0.448,-1,1v16c0,0.552,0.448,1,1,1h16.465c0.334,0,0.647,-0.167,0.832,-0.445l5.333,-8c0.224,-0.336,0.224,-0.774,0,-1.11l-5.333,-8c-0.185,-0.278,-0.498,-0.445,-0.832,-0.445z" fill="#F55C1A"></path><text x="88" y="61.5" fill="white" text-anchor="start" font-size="medium" class="uwuntu"></text><g filter="url(#filter0_di_2556_19132)"><rect x="60" y="73" width="22" height="15" rx="1" fill="#EA2E50"></rect></g><g filter="url(#filter1_di_2556_19132)"><rect x="6" y="70" width="45" height="21" rx="1" fill="#EA2E50"></rect><rect x="10" y="74.001" width="37" height="13" rx="1" fill="#818081"></rect></g><g filter="url(#filter2_di_2556_19132)"><rect x="51" y="77" width="9" height="7" fill="#EA2E50"></rect></g><text x="88" y="85.5" fill="white" text-anchor="start" font-size="medium" class="uwuntu">Enable</text><path d="M511.59999999999997,49h-16.465c-0.552,0,-1,0.448,-1,1v16c0,0.552,0.448,1,1,1h16.465c0.334,0,0.647,-0.167,0.832,-0.445l5.333,-8c0.224,-0.336,0.224,-0.774,0,-1.11l-5.333,-8c-0.185,-0.278,-0.498,-0.445,-0.832,-0.445z" fill="#F55C1A"></path><text x="488.59999999999997" y="61.5" fill="white" text-anchor="end" font-size="medium" class="uwuntu"></text><path d="M72, 41 v-31 q0,-10,10,-10 h412.59999999999997 q10,0,10,10 v31 h-432.59999999999997" fill="#525152"></path><text x="288.29999999999995" y="26.5" fill="white" text-anchor="middle" font-size="18px" class="uwuntu">Local Player Set Objective Log Enabled</text></svg>