<svg width="800" height="213.36" xmlns="http://www.w3.org/2000/svg" viewbox="0 0 800 213.36"><path fill="#818081" d="M160, 41 v101 q0,10,10,10 h193.36 q10,0,10,-10 v-101 h213.36"></path><path d="M165,49h-16.465c-0.552,0,-1,0.448,-1,1v16c0,0.552,0.448,1,1,1h16.465c0.334,0,0.647,-0.167,0.832,-0.445l5.333,-8c0.224,-0.336,0.224,-0.774,0,-1.11l-5.333,-8c-0.185,-0.278,-0.498,-0.445,-0.832,-0.445z" fill="#F55C1A"></path><text x="176" y="61.5" fill="white" text-anchor="start" font-size="medium" class="uwuntu"></text><rect x="148" y="73" width="22" height="15" rx="1" fill="#F5C51F"></rect><text x="176" y="85.5" fill="white" text-anchor="start" font-size="medium" class="uwuntu">Center</text><rect x="148" y="94" width="22" height="15" rx="1" fill="#F5C51F"></rect><text x="176" y="106.5" fill="white" text-anchor="start" font-size="medium" class="uwuntu">Extents</text><rect x="148" y="115" width="22" height="15" rx="1" fill="#F5C51F"></rect><text x="176" y="127.5" fill="white" text-anchor="start" font-size="medium" class="uwuntu">Orientation</text><path d="M380.36,49h-16.465c-0.552,0,-1,0.448,-1,1v16c0,0.552,0.448,1,1,1h16.465c0.334,0,0.647,-0.167,0.832,-0.445l5.333,-8c0.224,-0.336,0.224,-0.774,0,-1.11l-5.333,-8c-0.185,-0.278,-0.498,-0.445,-0.832,-0.445z" fill="#F55C1A"></path><text x="357.36" y="61.5" fill="white" text-anchor="end" font-size="medium" class="uwuntu"></text><rect x="363.36" y="73" width="22" height="15" rx="1" fill="#F5C51F"></rect><text x="357.36" y="85.5" fill="white" text-anchor="end" font-size="medium" class="uwuntu">Collisions</text><path d="M160, 41 v-31 q0,-10,10,-10 h193.36 q10,0,10,10 v31 h-213.36" fill="#525152"></path><text x="266.68" y="29.5" fill="white" text-anchor="middle" font-size="18px" class="uwuntu">Overlap Box</text></svg>