<svg width="800" height="102" xmlns="http://www.w3.org/2000/svg" viewbox="0 0 800 102"><path fill="#818081" d="M72, 41 v51 q0,10,10,10 h186.34 q10,0,10,-10 v-51 h206.34"></path><g filter="url(#filter0_di_2556_19132)"><rect x="60" y="49" width="22" height="15" rx="1" fill="#784283"></rect></g><g filter="url(#filter1_di_2556_19132)"><rect x="6" y="45" width="45" height="23" rx="1" fill="#784283"></rect><rect x="10" y="49.001" width="37" height="15" rx="1" fill="#818081"></rect></g><g filter="url(#filter2_di_2556_19132)"><rect x="51" y="53" width="9" height="7" fill="#784283"></rect></g><text x="88" y="61.5" fill="white" text-anchor="start" font-size="medium" class="uwuntu">String</text><rect x="268.34000000000003" y="49" width="22" height="15" rx="1" fill="#186BDD"></rect><text x="262.34000000000003" y="61.5" fill="white" text-anchor="end" font-size="medium" class="uwuntu">Result</text><rect x="268.34000000000003" y="70" width="22" height="15" rx="1" fill="#EA2E50"></rect><text x="262.34000000000003" y="82.5" fill="white" text-anchor="end" font-size="medium" class="uwuntu">Parse Success</text><path d="M72, 41 v-31 q0,-10,10,-10 h186.34 q10,0,10,10 v31 h-206.34" fill="#525152"></path><text x="175.17000000000002" y="29.5" fill="white" text-anchor="middle" font-size="18px" class="uwuntu">Parse Float</text></svg>