<svg width="800" height="317.94" xmlns="http://www.w3.org/2000/svg" viewbox="0 0 800 317.94"><path fill="#818081" d="M160, 41 v26 q0,10,10,10 h297.94 q10,0,10,-10 v-26 h317.94"></path><g filter="url(#filter0_di_2556_19132)"><rect x="148" y="49" width="22" height="15" rx="1" fill="#F5C51F"></rect></g><g filter="url(#filter1_di_2556_19132)"><rect x="94" y="45" width="45" height="23" rx="1" fill="#F5C51F"></rect><rect x="98" y="49.001" width="37" height="15" rx="1" fill="#818081"></rect></g><g filter="url(#filter2_di_2556_19132)"><rect x="139" y="53" width="9" height="7" fill="#F5C51F"></rect></g><text x="176" y="61.5" fill="white" text-anchor="start" font-size="medium" class="uwuntu">Target</text><rect x="467.94" y="49" width="22" height="15" rx="1" fill="#F5C51F"></rect><text x="461.94" y="61.5" fill="white" text-anchor="end" font-size="medium" class="uwuntu">Vector</text><path d="M160, 41 v-31 q0,-10,10,-10 h297.94 q10,0,10,10 v31 h-317.94" fill="#525152"></path><text x="318.97" y="29.5" fill="white" text-anchor="middle" font-size="18px" class="uwuntu">Player Left Hand Position</text></svg>