<svg width="800" height="301.74" xmlns="http://www.w3.org/2000/svg" viewbox="0 0 800 301.74"><path fill="#818081" d="M160, 41 v26 q0,10,10,10 h281.74 q10,0,10,-10 v-26 h301.74"></path><g filter="url(#filter0_di_2556_19132)"><rect x="148" y="49" width="22" height="15" rx="1" fill="#106522"></rect></g><g filter="url(#filter1_di_2556_19132)"><rect x="94" y="45" width="45" height="23" rx="1" fill="#106522"></rect><rect x="98" y="49.001" width="37" height="15" rx="1" fill="#818081"></rect></g><g filter="url(#filter2_di_2556_19132)"><rect x="139" y="53" width="9" height="7" fill="#106522"></rect></g><text x="176" y="61.5" fill="white" text-anchor="start" font-size="medium" class="uwuntu">Room Index</text><rect x="451.74" y="49" width="22" height="15" rx="1" fill="#F5C51F"></rect><text x="445.74" y="61.5" fill="white" text-anchor="end" font-size="medium" class="uwuntu">Player</text><path d="M160, 41 v-31 q0,-10,10,-10 h281.74 q10,0,10,10 v31 h-301.74" fill="#525152"></path><text x="310.87" y="29.5" fill="white" text-anchor="middle" font-size="18px" class="Uwuntu">Room Index Get Player</text></svg>