<svg width="800" height="263.4" xmlns="http://www.w3.org/2000/svg" viewbox="0 0 800 263.4"><defs><style type="text/css">@import url('https://fonts.googleapis.com/css2?family=Ubuntu');</style></defs><path fill="#818081" d="M160, 41 v76 q0,10,10,10 h243.39999999999998 q10,0,10,-10 v-76 h263.4"></path><rect x="148" y="49" width="22" height="15" rx="1" fill="#F5C51F"></rect><text x="176" y="61.5" fill="white" text-anchor="start" font-size="medium" font-family="Ubuntu">LocalPoint</text><rect x="148" y="70" width="22" height="15" rx="1" fill="#F5C51F"></rect><text x="176" y="82.5" fill="white" text-anchor="start" font-size="medium" font-family="Ubuntu">WorldOrigin</text><rect x="148" y="91" width="22" height="15" rx="1" fill="#F5C51F"></rect><text x="176" y="103.5" fill="white" text-anchor="start" font-size="medium" font-family="Ubuntu">WorldOrientation</text><rect x="413.4" y="49" width="22" height="15" rx="1" fill="#F5C51F"></rect><text x="407.4" y="61.5" fill="white" text-anchor="end" font-size="medium" font-family="Ubuntu">Result</text><path d="M160, 41 v-31 q0,-10,10,-10 h243.39999999999998 q10,0,10,10 v31 h-263.4" fill="#525152"></path><text x="291.7" y="29.5" fill="white" text-anchor="middle" font-size="18px" font-family="Ubuntu">Vector3 Transform</text></svg>