<svg width="800" height="177" xmlns="http://www.w3.org/2000/svg" viewbox="0 0 800 177"><path fill="#818081" d="M72, 41 v126 q0,10,10,10 h325.84000000000003 q10,0,10,-10 v-126 h345.84000000000003"></path><path d="M77,49h-16.465c-0.552,0,-1,0.448,-1,1v16c0,0.552,0.448,1,1,1h16.465c0.334,0,0.647,-0.167,0.832,-0.445l5.333,-8c0.224,-0.336,0.224,-0.774,0,-1.11l-5.333,-8c-0.185,-0.278,-0.498,-0.445,-0.832,-0.445z" fill="#F55C1A"></path><text x="88" y="61.5" fill="white" text-anchor="start" font-size="medium" class="uwuntu"></text><rect x="60" y="73" width="22" height="15" rx="1" fill="#F6EEE8"></rect><text x="88" y="85.5" fill="white" text-anchor="start" font-size="medium" class="uwuntu">Target</text><g filter="url(#filter0_di_2556_19132)"><rect x="60" y="94" width="22" height="15" rx="1" fill="#106522"></rect></g><g filter="url(#filter1_di_2556_19132)"><rect x="6" y="90" width="45" height="23" rx="1" fill="#106522"></rect><rect x="10" y="94.001" width="37" height="15" rx="1" fill="#818081"></rect></g><g filter="url(#filter2_di_2556_19132)"><rect x="51" y="98" width="9" height="7" fill="#106522"></rect></g><text x="88" y="106.5" fill="white" text-anchor="start" font-size="medium" class="uwuntu">Damage</text><g filter="url(#filter0_di_2556_19132)"><rect x="60" y="115" width="22" height="15" rx="1" fill="#EA2E50"></rect></g><g filter="url(#filter1_di_2556_19132)"><rect x="6" y="111" width="45" height="23" rx="1" fill="#EA2E50"></rect><rect x="10" y="115.001" width="37" height="15" rx="1" fill="#818081"></rect></g><g filter="url(#filter2_di_2556_19132)"><rect x="51" y="119" width="9" height="7" fill="#EA2E50"></rect></g><text x="88" y="127.5" fill="white" text-anchor="start" font-size="medium" class="uwuntu">Ignore Shield</text><rect x="60" y="136" width="22" height="15" rx="1" fill="#F6EEE8"></rect><text x="88" y="148.5" fill="white" text-anchor="start" font-size="medium" class="uwuntu">Damage Source (Combatant)</text><path d="M424.84000000000003,49h-16.465c-0.552,0,-1,0.448,-1,1v16c0,0.552,0.448,1,1,1h16.465c0.334,0,0.647,-0.167,0.832,-0.445l5.333,-8c0.224,-0.336,0.224,-0.774,0,-1.11l-5.333,-8c-0.185,-0.278,-0.498,-0.445,-0.832,-0.445z" fill="#F55C1A"></path><text x="401.84000000000003" y="61.5" fill="white" text-anchor="end" font-size="medium" class="uwuntu"></text><path d="M72, 41 v-31 q0,-10,10,-10 h325.84000000000003 q10,0,10,10 v31 h-345.84000000000003" fill="#525152"></path><text x="244.92000000000002" y="29.5" fill="white" text-anchor="middle" font-size="18px" class="uwuntu">Combatant Receive Damage</text></svg>