<svg width="800" height="152" xmlns="http://www.w3.org/2000/svg" viewbox="0 0 800 152"><path fill="#818081" d="M72, 41 v101 q0,10,10,10 h208.3 q10,0,10,-10 v-101 h228.3"></path><path d="M77,49h-16.465c-0.552,0,-1,0.448,-1,1v16c0,0.552,0.448,1,1,1h16.465c0.334,0,0.647,-0.167,0.832,-0.445l5.333,-8c0.224,-0.336,0.224,-0.774,0,-1.11l-5.333,-8c-0.185,-0.278,-0.498,-0.445,-0.832,-0.445z" fill="#F55C1A"></path><text x="88" y="61.5" fill="white" text-anchor="start" font-size="medium" class="uwuntu"></text><rect x="60" y="73" width="22" height="15" rx="1" fill="#F6EEE8"></rect><text x="88" y="85.5" fill="white" text-anchor="start" font-size="medium" class="uwuntu">Target</text><rect x="60" y="94" width="22" height="15" rx="1" fill="#F5C51F"></rect><text x="88" y="106.5" fill="white" text-anchor="start" font-size="medium" class="uwuntu">Position</text><rect x="60" y="115" width="22" height="15" rx="1" fill="#F6EEE8"></rect><text x="88" y="127.5" fill="white" text-anchor="start" font-size="medium" class="uwuntu">Rotation</text><path d="M307.3,49h-16.465c-0.552,0,-1,0.448,-1,1v16c0,0.552,0.448,1,1,1h16.465c0.334,0,0.647,-0.167,0.832,-0.445l5.333,-8c0.224,-0.336,0.224,-0.774,0,-1.11l-5.333,-8c-0.185,-0.278,-0.498,-0.445,-0.832,-0.445z" fill="#F55C1A"></path><text x="284.3" y="61.5" fill="white" text-anchor="end" font-size="medium" class="uwuntu"></text><rect x="290.3" y="73" width="22" height="15" rx="1" fill="#EA2E50"></rect><text x="284.3" y="85.5" fill="white" text-anchor="end" font-size="medium" class="uwuntu">Success</text><path d="M72, 41 v-31 q0,-10,10,-10 h208.3 q10,0,10,10 v31 h-228.3" fill="#525152"></path><text x="186.15" y="26.5" fill="white" text-anchor="middle" font-size="18px" class="uwuntu">Set Transform</text></svg>