<svg width="800" height="77" xmlns="http://www.w3.org/2000/svg" viewbox="0 0 800 77"><path fill="#818081" d="M72, 41 v26 q0,10,10,10 h280.65999999999997 q10,0,10,-10 v-26 h300.65999999999997"></path><g filter="url(#filter0_di_2556_19132)"><rect x="60" y="49" width="22" height="15" rx="1" fill="#784283"></rect></g><g filter="url(#filter1_di_2556_19132)"><rect x="6" y="46" width="45" height="21" rx="1" fill="#784283"></rect><rect x="10" y="50.001" width="37" height="13" rx="1" fill="#818081"></rect></g><g filter="url(#filter2_di_2556_19132)"><rect x="51" y="53" width="9" height="7" fill="#784283"></rect></g><text x="88" y="61.5" fill="white" text-anchor="start" font-size="medium" class="uwuntu">String</text><rect x="362.65999999999997" y="49" width="22" height="15" rx="1" fill="#784283"></rect><text x="356.65999999999997" y="61.5" fill="white" text-anchor="end" font-size="medium" class="uwuntu">List</text><path d="M72, 41 v-31 q0,-10,10,-10 h280.65999999999997 q10,0,10,10 v31 h-300.65999999999997" fill="#525152"></path><text x="222.32999999999998" y="26.5" fill="white" text-anchor="middle" font-size="18px" class="uwuntu">String Split Whitespace</text></svg>