<svg width="800" height="77" xmlns="http://www.w3.org/2000/svg" viewbox="0 0 800 77"><path fill="#818081" d="M72, 41 v26 q0,10,10,10 h230.26 q10,0,10,-10 v-26 h250.26"></path><g filter="url(#filter0_di_2556_19132)"><rect x="60" y="49" width="22" height="15" rx="1" fill="#106522"></rect></g><g filter="url(#filter1_di_2556_19132)"><rect x="6" y="46" width="45" height="21" rx="1" fill="#106522"></rect><rect x="10" y="50.001" width="37" height="13" rx="1" fill="#818081"></rect></g><g filter="url(#filter2_di_2556_19132)"><rect x="51" y="53" width="9" height="7" fill="#106522"></rect></g><text x="88" y="61.5" fill="white" text-anchor="start" font-size="medium" class="uwuntu">Value</text><rect x="312.26" y="49" width="22" height="15" rx="1" fill="#106522"></rect><text x="306.26" y="61.5" fill="white" text-anchor="end" font-size="medium" class="uwuntu">Trailing Zeros</text><path d="M72, 41 v-31 q0,-10,10,-10 h230.26 q10,0,10,10 v31 h-250.26" fill="#525152"></path><text x="197.13" y="29.5" fill="white" text-anchor="middle" font-size="18px" class="uwuntu">Bit Trailing Zeros</text></svg>