<svg width="526.2" height="102" xmlns="http://www.w3.org/2000/svg" viewbox="0 0 526.2 102"><path fill="#818081" d="M72, 41 v51 q0,10,10,10 h362.2 q10,0,10,-10 v-51 h382.2"></path><rect x="60" y="49" width="22" height="15" rx="1" fill="#F5C51F"></rect><text x="88" y="61.5" fill="white" text-anchor="start" font-size="medium" class="uwuntu">Studio Object</text><g filter="url(#filter0_di_2556_19132)"><rect x="60" y="70" width="22" height="15" rx="1" fill="#784283"></rect></g><g filter="url(#filter1_di_2556_19132)"><rect x="6" y="67" width="45" height="21" rx="1" fill="#784283"></rect><rect x="10" y="71.001" width="37" height="13" rx="1" fill="#818081"></rect></g><g filter="url(#filter2_di_2556_19132)"><rect x="51" y="74" width="9" height="7" fill="#784283"></rect></g><text x="88" y="82.5" fill="white" text-anchor="start" font-size="medium" class="uwuntu">Property</text><rect x="444.2" y="49" width="22" height="15" rx="1" fill="#EA2E50"></rect><text x="438.2" y="61.5" fill="white" text-anchor="end" font-size="medium" class="uwuntu">Value</text><path d="M72, 41 v-31 q0,-10,10,-10 h362.2 q10,0,10,10 v31 h-382.2" fill="#525152"></path><text x="263.1" y="26.5" fill="white" text-anchor="middle" font-size="18px" class="uwuntu">Studio Object Get Property - Bool</text></svg>