<svg width="510.9" height="77" xmlns="http://www.w3.org/2000/svg" viewbox="0 0 510.9 77"><path fill="#818081" d="M72, 41 v26 q0,10,10,10 h346.9 q10,0,10,-10 v-26 h366.9"></path><g filter="url(#filter0_di_2556_19132)"><rect x="60" y="49" width="22" height="15" rx="1" fill="#F5C51F"></rect></g><g filter="url(#filter1_di_2556_19132)"><rect x="6" y="46" width="45" height="21" rx="1" fill="#F5C51F"></rect><rect x="10" y="50.001" width="37" height="13" rx="1" fill="#818081"></rect></g><g filter="url(#filter2_di_2556_19132)"><rect x="51" y="53" width="9" height="7" fill="#F5C51F"></rect></g><text x="88" y="61.5" fill="white" text-anchor="start" font-size="medium" class="uwuntu">Player</text><rect x="428.9" y="49" width="22" height="15" rx="1" fill="#EA2E50"></rect><text x="422.9" y="61.5" fill="white" text-anchor="end" font-size="medium" class="uwuntu">Force Manual Sprint</text><path d="M72, 41 v-31 q0,-10,10,-10 h346.9 q10,0,10,10 v31 h-366.9" fill="#525152"></path><text x="255.45" y="26.5" fill="white" text-anchor="middle" font-size="18px" class="uwuntu">Player Get Force Manual Sprint</text></svg>