<svg width="575.52" height="152" xmlns="http://www.w3.org/2000/svg" viewbox="0 0 575.52 152"><path fill="#818081" d="M72, 41 v101 q0,10,10,10 h411.52 q10,0,10,-10 v-101 h431.52"></path><rect x="493.52" y="49" width="22" height="15" rx="1" fill="#784283"></rect><text x="487.52" y="61.5" fill="white" text-anchor="end" font-size="medium" class="uwuntu">Header Text</text><rect x="493.52" y="70" width="22" height="15" rx="1" fill="#004FB9"></rect><text x="487.52" y="82.5" fill="white" text-anchor="end" font-size="medium" class="uwuntu">Header Text Color</text><rect x="493.52" y="91" width="22" height="15" rx="1" fill="#784283"></rect><text x="487.52" y="103.5" fill="white" text-anchor="end" font-size="medium" class="uwuntu">Body Text</text><rect x="493.52" y="112" width="22" height="15" rx="1" fill="#004FB9"></rect><text x="487.52" y="124.5" fill="white" text-anchor="end" font-size="medium" class="uwuntu">Body Text Color</text><path d="M72, 41 v-31 q0,-10,10,-10 h411.52 q10,0,10,10 v31 h-431.52" fill="#525152"></path><text x="287.76" y="26.5" fill="white" text-anchor="middle" font-size="18px" class="uwuntu">Local Player Get Objective Log Content</text></svg>