<svg width="386.52" height="127" xmlns="http://www.w3.org/2000/svg" viewbox="0 0 386.52 127"><path fill="#818081" d="M72, 41 v76 q0,10,10,10 h222.51999999999998 q10,0,10,-10 v-76 h242.51999999999998"></path><rect x="60" y="49" width="22" height="15" rx="1" fill="#F5C51F"></rect><text x="88" y="61.5" fill="white" text-anchor="start" font-size="medium" class="uwuntu">Combatant</text><rect x="304.52" y="49" width="22" height="15" rx="1" fill="#EA2E50"></rect><text x="298.52" y="61.5" fill="white" text-anchor="end" font-size="medium" class="uwuntu">Is Player</text><rect x="304.52" y="70" width="22" height="15" rx="1" fill="#F5C51F"></rect><text x="298.52" y="82.5" fill="white" text-anchor="end" font-size="medium" class="uwuntu">Player</text><rect x="304.52" y="91" width="22" height="15" rx="1" fill="#F5C51F"></rect><text x="298.52" y="103.5" fill="white" text-anchor="end" font-size="medium" class="uwuntu">AI</text><path d="M72, 41 v-31 q0,-10,10,-10 h222.51999999999998 q10,0,10,10 v31 h-242.51999999999998" fill="#525152"></path><text x="193.26" y="26.5" fill="white" text-anchor="middle" font-size="18px" class="uwuntu">Combatant Split</text></svg>