<svg width="800" height="242.51999999999998" xmlns="http://www.w3.org/2000/svg" viewbox="0 0 800 242.51999999999998"><path fill="#818081" d="M160, 41 v76 q0,10,10,10 h222.51999999999998 q10,0,10,-10 v-76 h242.51999999999998"></path><rect x="148" y="49" width="22" height="15" rx="1" fill="#F5C51F"></rect><text x="176" y="61.5" fill="white" text-anchor="start" font-size="medium" class="uwuntu">Combatant</text><rect x="392.52" y="49" width="22" height="15" rx="1" fill="#EA2E50"></rect><text x="386.52" y="61.5" fill="white" text-anchor="end" font-size="medium" class="uwuntu">Is Player</text><rect x="392.52" y="70" width="22" height="15" rx="1" fill="#F5C51F"></rect><text x="386.52" y="82.5" fill="white" text-anchor="end" font-size="medium" class="uwuntu">Player</text><rect x="392.52" y="91" width="22" height="15" rx="1" fill="#F5C51F"></rect><text x="386.52" y="103.5" fill="white" text-anchor="end" font-size="medium" class="uwuntu">AI</text><path d="M160, 41 v-31 q0,-10,10,-10 h222.51999999999998 q10,0,10,10 v31 h-242.51999999999998" fill="#525152"></path><text x="281.26" y="29.5" fill="white" text-anchor="middle" font-size="18px" class="Uwuntu">Combatant Split</text></svg>