<svg width="350.15999999999997" height="102" xmlns="http://www.w3.org/2000/svg" viewbox="0 0 350.15999999999997 102"><path fill="#818081" d="M72, 41 v51 q0,10,10,10 h186.16 q10,0,10,-10 v-51 h206.16"></path><g filter="url(#filter0_di_2556_19132)"><rect x="60" y="49" width="22" height="15" rx="1" fill="#784283"></rect></g><g filter="url(#filter1_di_2556_19132)"><rect x="6" y="46" width="45" height="21" rx="1" fill="#784283"></rect><rect x="10" y="50.001" width="37" height="13" rx="1" fill="#818081"></rect></g><g filter="url(#filter2_di_2556_19132)"><rect x="51" y="53" width="9" height="7" fill="#784283"></rect></g><text x="88" y="61.5" fill="white" text-anchor="start" font-size="medium" class="uwuntu">Time</text><rect x="268.15999999999997" y="49" width="22" height="15" rx="1" fill="#106522"></rect><text x="262.15999999999997" y="61.5" fill="white" text-anchor="end" font-size="medium" class="uwuntu">Universal Seconds</text><rect x="268.15999999999997" y="70" width="22" height="15" rx="1" fill="#EA2E50"></rect><text x="262.15999999999997" y="82.5" fill="white" text-anchor="end" font-size="medium" class="uwuntu">Success</text><path d="M72, 41 v-31 q0,-10,10,-10 h186.16 q10,0,10,10 v31 h-206.16" fill="#525152"></path><text x="175.07999999999998" y="26.5" fill="white" text-anchor="middle" font-size="18px" class="uwuntu">Parse Time</text></svg>
