<svg width="569.76" height="77" xmlns="http://www.w3.org/2000/svg" viewbox="0 0 569.76 77"><path fill="#818081" d="M72, 41 v26 q0,10,10,10 h405.76 q10,0,10,-10 v-26 h425.76"></path><g filter="url(#filter0_di_2556_19132)"><rect x="60" y="49" width="22" height="15" rx="1" fill="#F5C51F"></rect></g><g filter="url(#filter1_di_2556_19132)"><rect x="6" y="46" width="45" height="21" rx="1" fill="#F5C51F"></rect><rect x="10" y="50.001" width="37" height="13" rx="1" fill="#818081"></rect></g><g filter="url(#filter2_di_2556_19132)"><rect x="51" y="53" width="9" height="7" fill="#F5C51F"></rect></g><text x="88" y="61.5" fill="white" text-anchor="start" font-size="medium" class="uwuntu">Target</text><rect x="487.76" y="49" width="22" height="15" rx="1" fill="#106522"></rect><text x="481.76" y="61.5" fill="white" text-anchor="end" font-size="medium" class="uwuntu">Value</text><path d="M72, 41 v-31 q0,-10,10,-10 h405.76 q10,0,10,10 v31 h-425.76" fill="#525152"></path><text x="284.88" y="26.5" fill="white" text-anchor="middle" font-size="18px" class="uwuntu">Get Player World UI Primary Bar Value</text></svg>