<svg width="401.46000000000004" height="127" xmlns="http://www.w3.org/2000/svg" viewbox="0 0 401.46000000000004 127"><path fill="#818081" d="M72, 41 v76 q0,10,10,10 h237.46000000000004 q10,0,10,-10 v-76 h257.46000000000004"></path><path d="M77,49h-16.465c-0.552,0,-1,0.448,-1,1v16c0,0.552,0.448,1,1,1h16.465c0.334,0,0.647,-0.167,0.832,-0.445l5.333,-8c0.224,-0.336,0.224,-0.774,0,-1.11l-5.333,-8c-0.185,-0.278,-0.498,-0.445,-0.832,-0.445z" fill="#F55C1A"></path><text x="88" y="61.5" fill="white" text-anchor="start" font-size="medium" class="uwuntu">Modify</text><rect x="60" y="73" width="22" height="15" rx="1" fill="#F5C51F"></rect><text x="88" y="85.5" fill="white" text-anchor="start" font-size="medium" class="uwuntu">Sun Constant</text><rect x="60" y="94" width="22" height="15" rx="1" fill="#F5C51F"></rect><text x="88" y="106.5" fill="white" text-anchor="start" font-size="medium" class="uwuntu">Sun Direction</text><path d="M336.46000000000004,49h-16.465c-0.552,0,-1,0.448,-1,1v16c0,0.552,0.448,1,1,1h16.465c0.334,0,0.647,-0.167,0.832,-0.445l5.333,-8c0.224,-0.336,0.224,-0.774,0,-1.11l-5.333,-8c-0.185,-0.278,-0.498,-0.445,-0.832,-0.445z" fill="#F55C1A"></path><text x="313.46000000000004" y="61.5" fill="white" text-anchor="end" font-size="medium" class="uwuntu"></text><path d="M336.46000000000004,73h-16.465c-0.552,0,-1,0.448,-1,1v16c0,0.552,0.448,1,1,1h16.465c0.334,0,0.647,-0.167,0.832,-0.445l5.333,-8c0.224,-0.336,0.224,-0.774,0,-1.11l-5.333,-8c-0.185,-0.278,-0.498,-0.445,-0.832,-0.445z" fill="#F55C1A"></path><text x="313.46000000000004" y="85.5" fill="white" text-anchor="end" font-size="medium" class="uwuntu">Blend Finished</text><rect x="319.46000000000004" y="97" width="22" height="15" rx="1" fill="#EA2E50"></rect><text x="313.46000000000004" y="109.5" fill="white" text-anchor="end" font-size="medium" class="uwuntu">Success</text><path d="M72, 41 v-31 q0,-10,10,-10 h237.46000000000004 q10,0,10,10 v31 h-257.46000000000004" fill="#525152"></path><text x="200.73000000000002" y="26.5" fill="white" text-anchor="middle" font-size="18px" class="uwuntu">Room Sun Modify</text></svg>