<svg width="380.4" height="77" xmlns="http://www.w3.org/2000/svg" viewbox="0 0 380.4 77"><path fill="#818081" d="M72, 41 v26 q0,10,10,10 h216.39999999999998 q10,0,10,-10 v-26 h236.39999999999998"></path><path d="M315.4,49h-16.465c-0.552,0,-1,0.448,-1,1v16c0,0.552,0.448,1,1,1h16.465c0.334,0,0.647,-0.167,0.832,-0.445l5.333,-8c0.224,-0.336,0.224,-0.774,0,-1.11l-5.333,-8c-0.185,-0.278,-0.498,-0.445,-0.832,-0.445z" fill="#F55C1A"></path><text x="292.4" y="61.5" fill="white" text-anchor="end" font-size="medium" class="uwuntu"></text><path d="M72, 41 v-31 q0,-10,10,-10 h216.39999999999998 q10,0,10,10 v31 h-236.39999999999998" fill="#525152"></path><text x="190.2" y="26.5" fill="white" text-anchor="middle" font-size="18px" class="uwuntu">Event Receiver</text></svg>