<svg width="800" height="152.16" xmlns="http://www.w3.org/2000/svg" viewbox="0 0 800 152.16"><path fill="#818081" d="M160, 41 v51 q0,10,10,10 h132.16 q10,0,10,-10 v-51 h152.16"></path><g filter="url(#filter0_di_2556_19132)"><rect x="148" y="49" width="22" height="15" rx="1" fill="#186BDD"></rect></g><g filter="url(#filter1_di_2556_19132)"><rect x="94" y="45" width="45" height="23" rx="1" fill="#186BDD"></rect><rect x="98" y="49.001" width="37" height="15" rx="1" fill="#818081"></rect></g><g filter="url(#filter2_di_2556_19132)"><rect x="139" y="53" width="9" height="7" fill="#186BDD"></rect></g><text x="176" y="61.5" fill="white" text-anchor="start" font-size="medium" class="uwuntu">Value</text><g filter="url(#filter0_di_2556_19132)"><rect x="148" y="70" width="22" height="15" rx="1" fill="#186BDD"></rect></g><g filter="url(#filter1_di_2556_19132)"><rect x="94" y="66" width="45" height="23" rx="1" fill="#186BDD"></rect><rect x="98" y="70.001" width="37" height="15" rx="1" fill="#818081"></rect></g><g filter="url(#filter2_di_2556_19132)"><rect x="139" y="74" width="9" height="7" fill="#186BDD"></rect></g><text x="176" y="82.5" fill="white" text-anchor="start" font-size="medium" class="uwuntu">Root</text><rect x="302.15999999999997" y="49" width="22" height="15" rx="1" fill="#186BDD"></rect><text x="296.15999999999997" y="61.5" fill="white" text-anchor="end" font-size="medium" class="uwuntu">Result</text><path d="M160, 41 v-31 q0,-10,10,-10 h132.16 q10,0,10,10 v31 h-152.16" fill="#525152"></path><text x="236.07999999999998" y="29.5" fill="white" text-anchor="middle" font-size="18px" class="uwuntu">Root</text></svg>