<svg width="800" height="127" xmlns="http://www.w3.org/2000/svg" viewbox="0 0 800 127"><path fill="#818081" d="M72, 41 v76 q0,10,10,10 h194.44 q10,0,10,-10 v-76 h214.44"></path><rect x="60" y="49" width="22" height="15" rx="1" fill="#F6EEE8"></rect><text x="88" y="61.5" fill="white" text-anchor="start" font-size="medium" class="uwuntu">Origin</text><rect x="60" y="70" width="22" height="15" rx="1" fill="#F6EEE8"></rect><text x="88" y="82.5" fill="white" text-anchor="start" font-size="medium" class="uwuntu">Targets</text><rect x="276.44" y="49" width="22" height="15" rx="1" fill="#F6EEE8"></rect><text x="270.44" y="61.5" fill="white" text-anchor="end" font-size="medium" class="uwuntu">Farthest</text><rect x="276.44" y="70" width="22" height="15" rx="1" fill="#106522"></rect><text x="270.44" y="82.5" fill="white" text-anchor="end" font-size="medium" class="uwuntu">Farthest Index</text><rect x="276.44" y="91" width="22" height="15" rx="1" fill="#186BDD"></rect><text x="270.44" y="103.5" fill="white" text-anchor="end" font-size="medium" class="uwuntu">Distance</text><path d="M72, 41 v-31 q0,-10,10,-10 h194.44 q10,0,10,10 v31 h-214.44" fill="#525152"></path><text x="179.22" y="29.5" fill="white" text-anchor="middle" font-size="18px" class="uwuntu">Get Farthest</text></svg>