<svg width="800" height="214.44" xmlns="http://www.w3.org/2000/svg" viewbox="0 0 800 214.44"><defs><style type="text/css">@import url('https://fonts.googleapis.com/css2?family=Ubuntu');</style></defs><path fill="#818081" d="M160, 41 v76 q0,10,10,10 h194.44 q10,0,10,-10 v-76 h214.44"></path><rect x="148" y="49" width="22" height="15" rx="1" fill="#F6EEE8"></rect><text x="176" y="61.5" fill="white" text-anchor="start" font-size="medium" font-family="Ubuntu">Origin</text><rect x="148" y="70" width="22" height="15" rx="1" fill="#F6EEE8"></rect><text x="176" y="82.5" fill="white" text-anchor="start" font-size="medium" font-family="Ubuntu">Targets</text><rect x="364.44" y="49" width="22" height="15" rx="1" fill="#F6EEE8"></rect><text x="358.44" y="61.5" fill="white" text-anchor="end" font-size="medium" font-family="Ubuntu">Farthest</text><rect x="364.44" y="70" width="22" height="15" rx="1" fill="#106522"></rect><text x="358.44" y="82.5" fill="white" text-anchor="end" font-size="medium" font-family="Ubuntu">Farthest Index</text><rect x="364.44" y="91" width="22" height="15" rx="1" fill="#186BDD"></rect><text x="358.44" y="103.5" fill="white" text-anchor="end" font-size="medium" font-family="Ubuntu">Distance</text><path d="M160, 41 v-31 q0,-10,10,-10 h194.44 q10,0,10,10 v31 h-214.44" fill="#525152"></path><text x="267.22" y="29.5" fill="white" text-anchor="middle" font-size="18px" font-family="Ubuntu">Get Farthest</text></svg>