<svg width="800" height="102" xmlns="http://www.w3.org/2000/svg" viewbox="0 0 800 102"><path fill="#818081" d="M72, 41 v51 q0,10,10,10 h257.26 q10,0,10,-10 v-51 h277.26"></path><path d="M77,49h-16.465c-0.552,0,-1,0.448,-1,1v16c0,0.552,0.448,1,1,1h16.465c0.334,0,0.647,-0.167,0.832,-0.445l5.333,-8c0.224,-0.336,0.224,-0.774,0,-1.11l-5.333,-8c-0.185,-0.278,-0.498,-0.445,-0.832,-0.445z" fill="#F55C1A"></path><text x="88" y="61.5" fill="white" text-anchor="start" font-size="medium" class="uwuntu"></text><g filter="url(#filter0_di_2556_19132)"><rect x="60" y="73" width="22" height="15" rx="1" fill="#004FB9"></rect></g><g filter="url(#filter1_di_2556_19132)"><rect x="6" y="69" width="45" height="23" rx="1" fill="#004FB9"></rect><rect x="10" y="73.001" width="37" height="15" rx="1" fill="#818081"></rect></g><g filter="url(#filter2_di_2556_19132)"><rect x="51" y="77" width="9" height="7" fill="#004FB9"></rect></g><text x="88" y="85.5" fill="white" text-anchor="start" font-size="medium" class="uwuntu"></text><path d="M356.26,49h-16.465c-0.552,0,-1,0.448,-1,1v16c0,0.552,0.448,1,1,1h16.465c0.334,0,0.647,-0.167,0.832,-0.445l5.333,-8c0.224,-0.336,0.224,-0.774,0,-1.11l-5.333,-8c-0.185,-0.278,-0.498,-0.445,-0.832,-0.445z" fill="#F55C1A"></path><text x="333.26" y="61.5" fill="white" text-anchor="end" font-size="medium" class="uwuntu"></text><rect x="339.26" y="73" width="22" height="15" rx="1" fill="#004FB9"></rect><text x="333.26" y="85.5" fill="white" text-anchor="end" font-size="medium" class="uwuntu"></text><path d="M72, 41 v-31 q0,-10,10,-10 h257.26 q10,0,10,10 v31 h-277.26" fill="#525152"></path><text x="210.63" y="29.5" fill="white" text-anchor="middle" font-size="18px" class="uwuntu">List&lt;Color&gt; Variable</text></svg>