<svg width="486.96" height="152" xmlns="http://www.w3.org/2000/svg" viewbox="0 0 486.96 152"><path fill="#818081" d="M72, 41 v101 q0,10,10,10 h322.96 q10,0,10,-10 v-101 h342.96"></path><rect x="60" y="49" width="22" height="15" rx="1" fill="#F5C51F"></rect><text x="88" y="61.5" fill="white" text-anchor="start" font-size="medium" class="uwuntu">Inventory Item</text><rect x="404.96" y="49" width="22" height="15" rx="1" fill="#784283"></rect><text x="398.96" y="61.5" fill="white" text-anchor="end" font-size="medium" class="uwuntu">Name</text><rect x="404.96" y="70" width="22" height="15" rx="1" fill="#784283"></rect><text x="398.96" y="82.5" fill="white" text-anchor="end" font-size="medium" class="uwuntu">Description</text><rect x="404.96" y="91" width="22" height="15" rx="1" fill="#EA2E50"></rect><text x="398.96" y="103.5" fill="white" text-anchor="end" font-size="medium" class="uwuntu">SupportsUseAction</text><rect x="404.96" y="112" width="22" height="15" rx="1" fill="#F5C51F"></rect><text x="398.96" y="124.5" fill="white" text-anchor="end" font-size="medium" class="uwuntu">Image</text><path d="M72, 41 v-31 q0,-10,10,-10 h322.96 q10,0,10,10 v31 h-342.96" fill="#525152"></path><text x="243.48" y="26.5" fill="white" text-anchor="middle" font-size="18px" class="uwuntu">Inventory Item Get Definition</text></svg>