<svg width="800" height="327.65999999999997" xmlns="http://www.w3.org/2000/svg" viewbox="0 0 800 327.65999999999997"><path fill="#818081" d="M160, 41 v76 q0,10,10,10 h307.65999999999997 q10,0,10,-10 v-76 h327.65999999999997"></path><rect x="148" y="49" width="22" height="15" rx="1" fill="#F5C51F"></rect><text x="176" y="61.5" fill="white" text-anchor="start" font-size="medium" class="uwuntu">WorldPoint</text><rect x="148" y="70" width="22" height="15" rx="1" fill="#F5C51F"></rect><text x="176" y="82.5" fill="white" text-anchor="start" font-size="medium" class="uwuntu">WorldOrigin</text><rect x="148" y="91" width="22" height="15" rx="1" fill="#F5C51F"></rect><text x="176" y="103.5" fill="white" text-anchor="start" font-size="medium" class="uwuntu">WorldOrientation</text><rect x="477.65999999999997" y="49" width="22" height="15" rx="1" fill="#F5C51F"></rect><text x="471.65999999999997" y="61.5" fill="white" text-anchor="end" font-size="medium" class="uwuntu">Result</text><path d="M160, 41 v-31 q0,-10,10,-10 h307.65999999999997 q10,0,10,10 v31 h-327.65999999999997" fill="#525152"></path><text x="323.83" y="29.5" fill="white" text-anchor="middle" font-size="18px" class="Uwuntu">Vector3 Inverse Transform</text></svg>