<svg xmlns="http://www.w3.org/2000/svg" width="337.40625" height="102" viewbox="0 0 337.40625 102"><defs><style>.ubuntu {font-family: 'Ubuntu', sans-serif;}</style></defs><path fill="#818081" d="M72, 41 v51 q0,10,10,10 h173.40625 q10,0,10,-10 v-51 h193.40625" /><path d="M77,49h-16.465c-0.552,0,-1,0.448,-1,1v16c0,0.552,0.448,1,1,1h16.465c0.334,0,0.647,-0.167,0.832,-0.445l5.333,-8c0.224,-0.336,0.224,-0.774,0,-1.11l-5.333,-8c-0.185,-0.278,-0.498,-0.445,-0.832,-0.445z" fill="#F55C1A" /><text x="88" y="63" fill="white" text-anchor="start" font-size="18px" class="ubuntu" /><path d="M272.40625,49h-16.465c-0.552,0,-1,0.448,-1,1v16c0,0.552,0.448,1,1,1h16.465c0.334,0,0.647,-0.167,0.832,-0.445l5.333,-8c0.224,-0.336,0.224,-0.774,0,-1.11l-5.333,-8c-0.185,-0.278,-0.498,-0.445,-0.832,-0.445z" fill="#F55C1A" /><text x="249.40625" y="63" fill="white" text-anchor="end" font-size="18px" class="ubuntu">1</text><path d="M272.40625,73h-16.465c-0.552,0,-1,0.448,-1,1v16c0,0.552,0.448,1,1,1h16.465c0.334,0,0.647,-0.167,0.832,-0.445l5.333,-8c0.224,-0.336,0.224,-0.774,0,-1.11l-5.333,-8c-0.185,-0.278,-0.498,-0.445,-0.832,-0.445z" fill="#F55C1A" /><text x="249.40625" y="87" fill="white" text-anchor="end" font-size="18px" class="ubuntu">2</text><path d="M72, 41 v-31 q0,-10,10,-10 h173.40625 q10,0,10,10 v31 h-193.40625" fill="#525152" /><text text-anchor="middle" fill="white" font-size="18px" x="168.703125" y="26.5" class="ubuntu">Sequence</text></svg>