<svg width="800" height="152" xmlns="http://www.w3.org/2000/svg" viewbox="0 0 800 152"><path fill="#818081" d="M72, 41 v101 q0,10,10,10 h271.65999999999997 q10,0,10,-10 v-101 h291.65999999999997"></path><path d="M77,49h-16.465c-0.552,0,-1,0.448,-1,1v16c0,0.552,0.448,1,1,1h16.465c0.334,0,0.647,-0.167,0.832,-0.445l5.333,-8c0.224,-0.336,0.224,-0.774,0,-1.11l-5.333,-8c-0.185,-0.278,-0.498,-0.445,-0.832,-0.445z" fill="#F55C1A"></path><text x="88" y="61.5" fill="white" text-anchor="start" font-size="medium" class="uwuntu">Run</text><g filter="url(#filter0_di_2556_19132)"><rect x="60" y="73" width="22" height="15" rx="1" fill="#F5C51F"></rect></g><g filter="url(#filter1_di_2556_19132)"><rect x="6" y="70" width="45" height="21" rx="1" fill="#F5C51F"></rect><rect x="10" y="74.001" width="37" height="13" rx="1" fill="#818081"></rect></g><g filter="url(#filter2_di_2556_19132)"><rect x="51" y="77" width="9" height="7" fill="#F5C51F"></rect></g><text x="88" y="85.5" fill="white" text-anchor="start" font-size="medium" class="uwuntu">Player</text><path d="M370.65999999999997,49h-16.465c-0.552,0,-1,0.448,-1,1v16c0,0.552,0.448,1,1,1h16.465c0.334,0,0.647,-0.167,0.832,-0.445l5.333,-8c0.224,-0.336,0.224,-0.774,0,-1.11l-5.333,-8c-0.185,-0.278,-0.498,-0.445,-0.832,-0.445z" fill="#F55C1A"></path><text x="347.65999999999997" y="61.5" fill="white" text-anchor="end" font-size="medium" class="uwuntu">Run</text><path d="M370.65999999999997,73h-16.465c-0.552,0,-1,0.448,-1,1v16c0,0.552,0.448,1,1,1h16.465c0.334,0,0.647,-0.167,0.832,-0.445l5.333,-8c0.224,-0.336,0.224,-0.774,0,-1.11l-5.333,-8c-0.185,-0.278,-0.498,-0.445,-0.832,-0.445z" fill="#F55C1A"></path><text x="347.65999999999997" y="85.5" fill="white" text-anchor="end" font-size="medium" class="uwuntu">On Get Balance Complete</text><rect x="353.65999999999997" y="97" width="22" height="15" rx="1" fill="#EA2E50"></rect><text x="347.65999999999997" y="109.5" fill="white" text-anchor="end" font-size="medium" class="uwuntu">Success</text><rect x="353.65999999999997" y="118" width="22" height="15" rx="1" fill="#106522"></rect><text x="347.65999999999997" y="130.5" fill="white" text-anchor="end" font-size="medium" class="uwuntu">Total Balance</text><path d="M72, 41 v-31 q0,-10,10,-10 h271.65999999999997 q10,0,10,10 v31 h-291.65999999999997" fill="#525152"></path><text x="217.82999999999998" y="29.5" fill="white" text-anchor="middle" font-size="18px" class="uwuntu">Get Currency Balance</text></svg>