<svg width="800" height="127" xmlns="http://www.w3.org/2000/svg" viewbox="0 0 800 127"><path fill="#818081" d="M72, 41 v76 q0,10,10,10 h155.38 q10,0,10,-10 v-76 h175.38"></path><g filter="url(#filter0_di_2556_19132)"><rect x="60" y="49" width="22" height="15" rx="1" fill="#EA2E50"></rect></g><g filter="url(#filter1_di_2556_19132)"><rect x="6" y="46" width="45" height="21" rx="1" fill="#EA2E50"></rect><rect x="10" y="50.001" width="37" height="13" rx="1" fill="#818081"></rect></g><g filter="url(#filter2_di_2556_19132)"><rect x="51" y="53" width="9" height="7" fill="#EA2E50"></rect></g><text x="88" y="61.5" fill="white" text-anchor="start" font-size="medium" class="uwuntu">If</text><rect x="60" y="70" width="22" height="15" rx="1" fill="#F5C51F"></rect><text x="88" y="82.5" fill="white" text-anchor="start" font-size="medium" class="uwuntu">Then</text><rect x="60" y="91" width="22" height="15" rx="1" fill="#F5C51F"></rect><text x="88" y="103.5" fill="white" text-anchor="start" font-size="medium" class="uwuntu">Else</text><rect x="237.38" y="49" width="22" height="15" rx="1" fill="#F5C51F"></rect><text x="231.38" y="61.5" fill="white" text-anchor="end" font-size="medium" class="uwuntu">Result</text><path d="M72, 41 v-31 q0,-10,10,-10 h155.38 q10,0,10,10 v31 h-175.38" fill="#525152"></path><text x="159.69" y="29.5" fill="white" text-anchor="middle" font-size="18px" class="uwuntu">If Value</text></svg>