<svg width="589.02" height="127" xmlns="http://www.w3.org/2000/svg" viewbox="0 0 589.02 127"><path fill="#818081" d="M72, 41 v76 q0,10,10,10 h425.02 q10,0,10,-10 v-76 h445.02"></path><path d="M77,49h-16.465c-0.552,0,-1,0.448,-1,1v16c0,0.552,0.448,1,1,1h16.465c0.334,0,0.647,-0.167,0.832,-0.445l5.333,-8c0.224,-0.336,0.224,-0.774,0,-1.11l-5.333,-8c-0.185,-0.278,-0.498,-0.445,-0.832,-0.445z" fill="#F55C1A"></path><text x="88" y="61.5" fill="white" text-anchor="start" font-size="medium" class="uwuntu"></text><g filter="url(#filter0_di_2556_19132)"><rect x="60" y="73" width="22" height="15" rx="1" fill="#F5C51F"></rect></g><g filter="url(#filter1_di_2556_19132)"><rect x="6" y="70" width="45" height="21" rx="1" fill="#F5C51F"></rect><rect x="10" y="74.001" width="37" height="13" rx="1" fill="#818081"></rect></g><g filter="url(#filter2_di_2556_19132)"><rect x="51" y="77" width="9" height="7" fill="#F5C51F"></rect></g><text x="88" y="85.5" fill="white" text-anchor="start" font-size="medium" class="uwuntu">Player</text><g filter="url(#filter0_di_2556_19132)"><rect x="60" y="94" width="22" height="15" rx="1" fill="#004FB9"></rect></g><g filter="url(#filter1_di_2556_19132)"><rect x="6" y="91" width="45" height="21" rx="1" fill="#004FB9"></rect><rect x="10" y="95.001" width="37" height="13" rx="1" fill="#818081"></rect></g><g filter="url(#filter2_di_2556_19132)"><rect x="51" y="98" width="9" height="7" fill="#004FB9"></rect></g><text x="88" y="106.5" fill="white" text-anchor="start" font-size="medium" class="uwuntu">Color</text><path d="M524.02,49h-16.465c-0.552,0,-1,0.448,-1,1v16c0,0.552,0.448,1,1,1h16.465c0.334,0,0.647,-0.167,0.832,-0.445l5.333,-8c0.224,-0.336,0.224,-0.774,0,-1.11l-5.333,-8c-0.185,-0.278,-0.498,-0.445,-0.832,-0.445z" fill="#F55C1A"></path><text x="501.02" y="61.5" fill="white" text-anchor="end" font-size="medium" class="uwuntu"></text><path d="M72, 41 v-31 q0,-10,10,-10 h425.02 q10,0,10,10 v31 h-445.02" fill="#525152"></path><text x="294.51" y="26.5" fill="white" text-anchor="middle" font-size="18px" class="uwuntu">Set Player World UI Secondary Bar Color</text></svg>