<svg width="800" height="237.48" xmlns="http://www.w3.org/2000/svg" viewbox="0 0 800 237.48"><path fill="#818081" d="M160, 41 v51 q0,10,10,10 h217.48 q10,0,10,-10 v-51 h237.48"></path><g filter="url(#filter0_di_2556_19132)"><rect x="148" y="49" width="22" height="15" rx="1" fill="#784283"></rect></g><g filter="url(#filter1_di_2556_19132)"><rect x="94" y="45" width="45" height="23" rx="1" fill="#784283"></rect><rect x="98" y="49.001" width="37" height="15" rx="1" fill="#818081"></rect></g><g filter="url(#filter2_di_2556_19132)"><rect x="139" y="53" width="9" height="7" fill="#784283"></rect></g><text x="176" y="61.5" fill="white" text-anchor="start" font-size="medium" class="uwuntu">String</text><g filter="url(#filter0_di_2556_19132)"><rect x="148" y="70" width="22" height="15" rx="1" fill="#784283"></rect></g><g filter="url(#filter1_di_2556_19132)"><rect x="94" y="66" width="45" height="23" rx="1" fill="#784283"></rect><rect x="98" y="70.001" width="37" height="15" rx="1" fill="#818081"></rect></g><g filter="url(#filter2_di_2556_19132)"><rect x="139" y="74" width="9" height="7" fill="#784283"></rect></g><text x="176" y="82.5" fill="white" text-anchor="start" font-size="medium" class="uwuntu">Sequence</text><rect x="387.48" y="49" width="22" height="15" rx="1" fill="#EA2E50"></rect><text x="381.48" y="61.5" fill="white" text-anchor="end" font-size="medium" class="uwuntu">Result</text><path d="M160, 41 v-31 q0,-10,10,-10 h217.48 q10,0,10,10 v31 h-237.48" fill="#525152"></path><text x="278.74" y="29.5" fill="white" text-anchor="middle" font-size="18px" class="uwuntu">String Contains</text></svg>