<svg width="472.74" height="77" xmlns="http://www.w3.org/2000/svg" viewbox="0 0 472.74 77"><path fill="#818081" d="M72, 41 v26 q0,10,10,10 h308.74 q10,0,10,-10 v-26 h328.74"></path><g filter="url(#filter0_di_2556_19132)"><rect x="60" y="49" width="22" height="15" rx="1" fill="#F5C51F"></rect></g><g filter="url(#filter1_di_2556_19132)"><rect x="6" y="46" width="45" height="21" rx="1" fill="#F5C51F"></rect><rect x="10" y="50.001" width="37" height="13" rx="1" fill="#818081"></rect></g><g filter="url(#filter2_di_2556_19132)"><rect x="51" y="53" width="9" height="7" fill="#F5C51F"></rect></g><text x="88" y="61.5" fill="white" text-anchor="start" font-size="medium" class="uwuntu">Target</text><rect x="390.74" y="49" width="22" height="15" rx="1" fill="#F5C51F"></rect><text x="384.74" y="61.5" fill="white" text-anchor="end" font-size="medium" class="uwuntu">Vector</text><path d="M72, 41 v-31 q0,-10,10,-10 h308.74 q10,0,10,10 v31 h-328.74" fill="#525152"></path><text x="236.37" y="26.5" fill="white" text-anchor="middle" font-size="18px" class="uwuntu">Player Right Hand Velocity</text></svg>