<svg width="512.16" height="127" xmlns="http://www.w3.org/2000/svg" viewbox="0 0 512.16 127"><path fill="#818081" d="M72, 41 v76 q0,10,10,10 h348.15999999999997 q10,0,10,-10 v-76 h368.15999999999997"></path><rect x="60" y="49" width="22" height="15" rx="1" fill="#F5C51F"></rect><text x="88" y="61.5" fill="white" text-anchor="start" font-size="medium" class="uwuntu">Position</text><rect x="60" y="70" width="22" height="15" rx="1" fill="#F5C51F"></rect><text x="88" y="82.5" fill="white" text-anchor="start" font-size="medium" class="uwuntu">Plane Position</text><rect x="60" y="91" width="22" height="15" rx="1" fill="#F5C51F"></rect><text x="88" y="103.5" fill="white" text-anchor="start" font-size="medium" class="uwuntu">Plane Normal</text><rect x="430.15999999999997" y="49" width="22" height="15" rx="1" fill="#F5C51F"></rect><text x="424.15999999999997" y="61.5" fill="white" text-anchor="end" font-size="medium" class="uwuntu">Result</text><path d="M72, 41 v-31 q0,-10,10,-10 h348.15999999999997 q10,0,10,10 v31 h-368.15999999999997" fill="#525152"></path><text x="256.08" y="26.5" fill="white" text-anchor="middle" font-size="18px" class="uwuntu">Vector3 Closest Point On Plane</text></svg>