<svg width="412.4" height="202" xmlns="http://www.w3.org/2000/svg" viewbox="0 0 412.4 202"><path fill="#818081" d="M72, 41 v151 q0,10,10,10 h248.39999999999998 q10,0,10,-10 v-151 h268.4"></path><rect x="60" y="49" width="22" height="15" rx="1" fill="#F5C51F"></rect><text x="88" y="61.5" fill="white" text-anchor="start" font-size="medium" class="uwuntu">Start Position</text><rect x="60" y="70" width="22" height="15" rx="1" fill="#F5C51F"></rect><text x="88" y="82.5" fill="white" text-anchor="start" font-size="medium" class="uwuntu">Direction</text><g filter="url(#filter0_di_2556_19132)"><rect x="60" y="91" width="22" height="15" rx="1" fill="#186BDD"></rect></g><g filter="url(#filter1_di_2556_19132)"><rect x="6" y="88" width="45" height="21" rx="1" fill="#186BDD"></rect><rect x="10" y="92.001" width="37" height="13" rx="1" fill="#818081"></rect></g><g filter="url(#filter2_di_2556_19132)"><rect x="51" y="95" width="9" height="7" fill="#186BDD"></rect></g><text x="88" y="103.5" fill="white" text-anchor="start" font-size="medium" class="uwuntu">Max Distance (m)</text><rect x="330.4" y="49" width="22" height="15" rx="1" fill="#EA2E50"></rect><text x="324.4" y="61.5" fill="white" text-anchor="end" font-size="medium" class="uwuntu">Hit</text><rect x="330.4" y="70" width="22" height="15" rx="1" fill="#F5C51F"></rect><text x="324.4" y="82.5" fill="white" text-anchor="end" font-size="medium" class="uwuntu">Player</text><rect x="330.4" y="91" width="22" height="15" rx="1" fill="#F5C51F"></rect><text x="324.4" y="103.5" fill="white" text-anchor="end" font-size="medium" class="uwuntu">Object</text><rect x="330.4" y="112" width="22" height="15" rx="1" fill="#186BDD"></rect><text x="324.4" y="124.5" fill="white" text-anchor="end" font-size="medium" class="uwuntu">Distance</text><rect x="330.4" y="133" width="22" height="15" rx="1" fill="#F5C51F"></rect><text x="324.4" y="145.5" fill="white" text-anchor="end" font-size="medium" class="uwuntu">Hit Position</text><rect x="330.4" y="154" width="22" height="15" rx="1" fill="#F5C51F"></rect><text x="324.4" y="166.5" fill="white" text-anchor="end" font-size="medium" class="uwuntu">Surface Normal</text><path d="M72, 41 v-31 q0,-10,10,-10 h248.39999999999998 q10,0,10,10 v31 h-268.4" fill="#525152"></path><text x="206.2" y="26.5" fill="white" text-anchor="middle" font-size="18px" class="uwuntu">Raycast</text></svg>