<svg width="800" height="489.3" xmlns="http://www.w3.org/2000/svg" viewbox="0 0 800 489.3"><path fill="#818081" d="M160, 41 v26 q0,10,10,10 h469.3 q10,0,10,-10 v-26 h489.3"></path><g filter="url(#filter0_di_2556_19132)"><rect x="148" y="49" width="22" height="15" rx="1" fill="#F5C51F"></rect></g><g filter="url(#filter1_di_2556_19132)"><rect x="94" y="45" width="45" height="23" rx="1" fill="#F5C51F"></rect><rect x="98" y="49.001" width="37" height="15" rx="1" fill="#818081"></rect></g><g filter="url(#filter2_di_2556_19132)"><rect x="139" y="53" width="9" height="7" fill="#F5C51F"></rect></g><text x="176" y="61.5" fill="white" text-anchor="start" font-size="medium" class="uwuntu">Target</text><rect x="639.3" y="49" width="22" height="15" rx="1" fill="#106522"></rect><text x="633.3" y="61.5" fill="white" text-anchor="end" font-size="medium" class="uwuntu">Max Value</text><path d="M160, 41 v-31 q0,-10,10,-10 h469.3 q10,0,10,10 v31 h-489.3" fill="#525152"></path><text x="404.65" y="29.5" fill="white" text-anchor="middle" font-size="18px" class="Uwuntu">Get Player World UI Secondary Bar Max Value</text></svg>