<svg width="384.53999999999996" height="102" xmlns="http://www.w3.org/2000/svg" viewbox="0 0 384.53999999999996 102"><path fill="#818081" d="M72, 41 v51 q0,10,10,10 h220.54 q10,0,10,-10 v-51 h240.54"></path><g filter="url(#filter0_di_2556_19132)"><rect x="60" y="49" width="22" height="15" rx="1" fill="#106522"></rect></g><g filter="url(#filter1_di_2556_19132)"><rect x="6" y="46" width="45" height="21" rx="1" fill="#106522"></rect><rect x="10" y="50.001" width="37" height="13" rx="1" fill="#818081"></rect></g><g filter="url(#filter2_di_2556_19132)"><rect x="51" y="53" width="9" height="7" fill="#106522"></rect></g><text x="88" y="61.5" fill="white" text-anchor="start" font-size="medium" class="uwuntu">Value</text><g filter="url(#filter0_di_2556_19132)"><rect x="60" y="70" width="22" height="15" rx="1" fill="#106522"></rect></g><g filter="url(#filter1_di_2556_19132)"><rect x="6" y="67" width="45" height="21" rx="1" fill="#106522"></rect><rect x="10" y="71.001" width="37" height="13" rx="1" fill="#818081"></rect></g><g filter="url(#filter2_di_2556_19132)"><rect x="51" y="74" width="9" height="7" fill="#106522"></rect></g><text x="88" y="82.5" fill="white" text-anchor="start" font-size="medium" class="uwuntu">Shift</text><rect x="302.53999999999996" y="49" width="22" height="15" rx="1" fill="#106522"></rect><text x="296.53999999999996" y="61.5" fill="white" text-anchor="end" font-size="medium" class="uwuntu">Result</text><path d="M72, 41 v-31 q0,-10,10,-10 h220.54 q10,0,10,10 v31 h-240.54" fill="#525152"></path><text x="192.26999999999998" y="26.5" fill="white" text-anchor="middle" font-size="18px" class="uwuntu">Bit Rotate Right</text></svg>