<svg width="580.56" height="127" xmlns="http://www.w3.org/2000/svg" viewbox="0 0 580.56 127"><path fill="#818081" d="M72, 41 v76 q0,10,10,10 h416.56 q10,0,10,-10 v-76 h436.56"></path><rect x="60" y="49" width="22" height="15" rx="1" fill="#F5C51F"></rect><text x="88" y="61.5" fill="white" text-anchor="start" font-size="medium" class="uwuntu">Target</text><rect x="498.56" y="49" width="22" height="15" rx="1" fill="#EA2E50"></rect><text x="492.56" y="61.5" fill="white" text-anchor="end" font-size="medium" class="uwuntu">Is Touch Active</text><rect x="498.56" y="70" width="22" height="15" rx="1" fill="#F5C51F"></rect><text x="492.56" y="82.5" fill="white" text-anchor="end" font-size="medium" class="uwuntu">Touch Position</text><rect x="498.56" y="91" width="22" height="15" rx="1" fill="#F5C51F"></rect><text x="492.56" y="103.5" fill="white" text-anchor="end" font-size="medium" class="uwuntu">World Position</text><path d="M72, 41 v-31 q0,-10,10,-10 h416.56 q10,0,10,10 v31 h-436.56" fill="#525152"></path><text x="290.28" y="26.5" fill="white" text-anchor="middle" font-size="18px" class="uwuntu">Touchpad Component Get Active Touch</text></svg>