<svg width="615.12" height="127" xmlns="http://www.w3.org/2000/svg" viewbox="0 0 615.12 127"><path fill="#818081" d="M72, 41 v76 q0,10,10,10 h451.12 q10,0,10,-10 v-76 h471.12"></path><path d="M77,49h-16.465c-0.552,0,-1,0.448,-1,1v16c0,0.552,0.448,1,1,1h16.465c0.334,0,0.647,-0.167,0.832,-0.445l5.333,-8c0.224,-0.336,0.224,-0.774,0,-1.11l-5.333,-8c-0.185,-0.278,-0.498,-0.445,-0.832,-0.445z" fill="#F55C1A"></path><text x="88" y="61.5" fill="white" text-anchor="start" font-size="medium" class="uwuntu"></text><rect x="60" y="73" width="22" height="15" rx="1" fill="#F5C51F"></rect><text x="88" y="85.5" fill="white" text-anchor="start" font-size="medium" class="uwuntu">Target</text><rect x="60" y="94" width="22" height="15" rx="1" fill="#F6EEE8"></rect><text x="88" y="106.5" fill="white" text-anchor="start" font-size="medium" class="uwuntu">Player Or Object</text><path d="M550.12,49h-16.465c-0.552,0,-1,0.448,-1,1v16c0,0.552,0.448,1,1,1h16.465c0.334,0,0.647,-0.167,0.832,-0.445l5.333,-8c0.224,-0.336,0.224,-0.774,0,-1.11l-5.333,-8c-0.185,-0.278,-0.498,-0.445,-0.832,-0.445z" fill="#F55C1A"></path><text x="527.12" y="61.5" fill="white" text-anchor="end" font-size="medium" class="uwuntu"></text><path d="M72, 41 v-31 q0,-10,10,-10 h451.12 q10,0,10,10 v31 h-471.12" fill="#525152"></path><text x="307.56" y="26.5" fill="white" text-anchor="middle" font-size="18px" class="uwuntu">Objective Marker Attach To Player Or Object</text></svg>