<svg xmlns="http://www.w3.org/2000/svg" width="321.421875" height="102" viewbox="0 0 321.421875 102"><defs><style>.ubuntu {font-family: 'Ubuntu', sans-serif;}</style></defs><path fill="#818081" d="M72, 41 v51 q0,10,10,10 h157.421875 q10,0,10,-10 v-51 h177.421875" /><rect x="60" y="49" width="22" height="15" rx="1" fill="#F6EEE8" /><text x="88" y="63" fill="white" text-anchor="start" font-size="18px" class="ubuntu">Target</text><g><rect x="60" y="70" width="22" height="15" fill="#784283" rx="1" /><rect x="6" y="67" width="45" height="21" rx="1" fill="#784283" /><rect x="10" y="71.001" width="37" height="13" rx="1" fill="#818081" /><rect x="51" y="74" width="9" height="7" rx="1" fill="#784283" /></g><text x="88" y="84" fill="white" text-anchor="start" font-size="18px" class="ubuntu">Tag</text><rect x="239.421875" y="49" width="22" height="15" rx="1" fill="#EA2E50" /><text x="233.421875" y="63" fill="white" text-anchor="end" font-size="18px" class="ubuntu">Has Tag</text><path d="M72, 41 v-31 q0,-10,10,-10 h157.421875 q10,0,10,10 v31 h-177.421875" fill="#525152" /><text text-anchor="middle" fill="white" font-size="18px" x="160.7109375" y="26.5" class="ubuntu">Has Tag</text></svg>