<svg width="800" height="76" xmlns="http://www.w3.org/2000/svg" viewbox="0 0 800 76"><rect x="72" y="0" width="231.66" height="76" fill="#818081" rx="10"></rect><rect x="92" y="15" width="191.66" height="46" fill="#525152" rx="10"></rect><path d="M77,17h-16.465c-0.552,0,-1,0.448,-1,1v16c0,0.552,0.448,1,1,1h16.465c0.334,0,0.647,-0.167,0.832,-0.445l5.333,-8c0.224,-0.336,0.224,-0.774,0,-1.11l-5.333,-8c-0.185,-0.278,-0.498,-0.445,-0.832,-0.445z" fill="#F55C1A"></path><text x="88" y="29.5" fill="white" text-anchor="start" font-size="medium" class="uwuntu"></text><rect x="60" y="41" width="22" height="15" rx="1" fill="#F5C51F"></rect><text x="88" y="53.5" fill="white" text-anchor="start" font-size="medium" class="uwuntu"></text><path d="M310.65999999999997,17h-16.465c-0.552,0,-1,0.448,-1,1v16c0,0.552,0.448,1,1,1h16.465c0.334,0,0.647,-0.167,0.832,-0.445l5.333,-8c0.224,-0.336,0.224,-0.774,0,-1.11l-5.333,-8c-0.185,-0.278,-0.498,-0.445,-0.832,-0.445z" fill="#F55C1A"></path><text x="287.65999999999997" y="29.5" fill="white" text-anchor="end" font-size="medium" class="uwuntu"></text><rect x="293.65999999999997" y="41" width="22" height="15" rx="1" fill="#F5C51F"></rect><text x="287.65999999999997" y="53.5" fill="white" text-anchor="end" font-size="medium" class="uwuntu"></text><text x="187.82999999999998" y="44" fill="white" text-anchor="middle" font-size="18px" class="uwuntu">Combatant Variable</text></svg>