<svg width="800" height="152" xmlns="http://www.w3.org/2000/svg" viewbox="0 0 800 152"><path fill="#818081" d="M72, 41 v101 q0,10,10,10 h242.68 q10,0,10,-10 v-101 h262.68"></path><g filter="url(#filter0_di_2556_19132)"><rect x="60" y="49" width="22" height="15" rx="1" fill="#186BDD"></rect></g><g filter="url(#filter1_di_2556_19132)"><rect x="6" y="45" width="45" height="23" rx="1" fill="#186BDD"></rect><rect x="10" y="49.001" width="37" height="15" rx="1" fill="#818081"></rect></g><g filter="url(#filter2_di_2556_19132)"><rect x="51" y="53" width="9" height="7" fill="#186BDD"></rect></g><text x="88" y="61.5" fill="white" text-anchor="start" font-size="medium" class="uwuntu">X</text><g filter="url(#filter0_di_2556_19132)"><rect x="60" y="70" width="22" height="15" rx="1" fill="#186BDD"></rect></g><g filter="url(#filter1_di_2556_19132)"><rect x="6" y="66" width="45" height="23" rx="1" fill="#186BDD"></rect><rect x="10" y="70.001" width="37" height="15" rx="1" fill="#818081"></rect></g><g filter="url(#filter2_di_2556_19132)"><rect x="51" y="74" width="9" height="7" fill="#186BDD"></rect></g><text x="88" y="82.5" fill="white" text-anchor="start" font-size="medium" class="uwuntu">Y</text><g filter="url(#filter0_di_2556_19132)"><rect x="60" y="91" width="22" height="15" rx="1" fill="#186BDD"></rect></g><g filter="url(#filter1_di_2556_19132)"><rect x="6" y="87" width="45" height="23" rx="1" fill="#186BDD"></rect><rect x="10" y="91.001" width="37" height="15" rx="1" fill="#818081"></rect></g><g filter="url(#filter2_di_2556_19132)"><rect x="51" y="95" width="9" height="7" fill="#186BDD"></rect></g><text x="88" y="103.5" fill="white" text-anchor="start" font-size="medium" class="uwuntu">Z</text><g filter="url(#filter0_di_2556_19132)"><rect x="60" y="112" width="22" height="15" rx="1" fill="#186BDD"></rect></g><g filter="url(#filter1_di_2556_19132)"><rect x="6" y="108" width="45" height="23" rx="1" fill="#186BDD"></rect><rect x="10" y="112.001" width="37" height="15" rx="1" fill="#818081"></rect></g><g filter="url(#filter2_di_2556_19132)"><rect x="51" y="116" width="9" height="7" fill="#186BDD"></rect></g><text x="88" y="124.5" fill="white" text-anchor="start" font-size="medium" class="uwuntu">W</text><rect x="324.68" y="49" width="22" height="15" rx="1" fill="#F5C51F"></rect><text x="318.68" y="61.5" fill="white" text-anchor="end" font-size="medium" class="uwuntu">Quaternion</text><path d="M72, 41 v-31 q0,-10,10,-10 h242.68 q10,0,10,10 v31 h-262.68" fill="#525152"></path><text x="203.34" y="29.5" fill="white" text-anchor="middle" font-size="18px" class="uwuntu">Quaternion Create</text></svg>