<svg width="800" height="310.74" xmlns="http://www.w3.org/2000/svg" viewbox="0 0 800 310.74"><path fill="#818081" d="M160, 41 v76 q0,10,10,10 h290.74 q10,0,10,-10 v-76 h310.74"></path><rect x="148" y="49" width="22" height="15" rx="1" fill="#F6EEE8"></rect><text x="176" y="61.5" fill="white" text-anchor="start" font-size="medium" class="uwuntu">Start</text><rect x="148" y="70" width="22" height="15" rx="1" fill="#F6EEE8"></rect><text x="176" y="82.5" fill="white" text-anchor="start" font-size="medium" class="uwuntu">End</text><rect x="148" y="91" width="22" height="15" rx="1" fill="#F6EEE8"></rect><text x="176" y="103.5" fill="white" text-anchor="start" font-size="medium" class="uwuntu">Value</text><rect x="460.74" y="49" width="22" height="15" rx="1" fill="#186BDD"></rect><text x="454.74" y="61.5" fill="white" text-anchor="end" font-size="medium" class="uwuntu">Result</text><path d="M160, 41 v-31 q0,-10,10,-10 h290.74 q10,0,10,10 v31 h-310.74" fill="#525152"></path><text x="315.37" y="29.5" fill="white" text-anchor="middle" font-size="18px" class="uwuntu">Inverse Lerp Unclamped</text></svg>