<svg xmlns="http://www.w3.org/2000/svg" width="364.203125" height="127" viewbox="0 0 364.203125 127"><defs><style>.ubuntu {font-family: 'Ubuntu', sans-serif;}</style></defs><path fill="#818081" d="M72, 41 v76 q0,10,10,10 h200.203125 q10,0,10,-10 v-76 h220.203125" /><g><rect x="60" y="49" width="22" height="15" fill="#004FB9" rx="1" /><rect x="6" y="46" width="45" height="21" rx="1" fill="#004FB9" /><rect x="10" y="50.001" width="37" height="13" rx="1" fill="#818081" /><rect x="51" y="53" width="9" height="7" rx="1" fill="#004FB9" /></g><text x="88" y="63" fill="white" text-anchor="start" font-size="18px" class="ubuntu">Color</text><rect x="282.203125" y="49" width="22" height="15" rx="1" fill="#186BDD" /><text x="276.203125" y="63" fill="white" text-anchor="end" font-size="18px" class="ubuntu">Hue</text><rect x="282.203125" y="70" width="22" height="15" rx="1" fill="#186BDD" /><text x="276.203125" y="84" fill="white" text-anchor="end" font-size="18px" class="ubuntu">Saturation</text><rect x="282.203125" y="91" width="22" height="15" rx="1" fill="#186BDD" /><text x="276.203125" y="105" fill="white" text-anchor="end" font-size="18px" class="ubuntu">Value</text><path d="M72, 41 v-31 q0,-10,10,-10 h200.203125 q10,0,10,10 v31 h-220.203125" fill="#525152" /><text text-anchor="middle" fill="white" font-size="18px" x="182.1015625" y="26.5" class="ubuntu">Color To HSV</text></svg>