<svg width="800" height="238.56" xmlns="http://www.w3.org/2000/svg" viewbox="0 0 800 238.56"><path fill="#818081" d="M160, 41 v51 q0,10,10,10 h218.56 q10,0,10,-10 v-51 h238.56"></path><path d="M165,49h-16.465c-0.552,0,-1,0.448,-1,1v16c0,0.552,0.448,1,1,1h16.465c0.334,0,0.647,-0.167,0.832,-0.445l5.333,-8c0.224,-0.336,0.224,-0.774,0,-1.11l-5.333,-8c-0.185,-0.278,-0.498,-0.445,-0.832,-0.445z" fill="#F55C1A"></path><text x="176" y="61.5" fill="white" text-anchor="start" font-size="medium" class="uwuntu"></text><rect x="148" y="73" width="22" height="15" rx="1" fill="#F5C51F"></rect><text x="176" y="85.5" fill="white" text-anchor="start" font-size="medium" class="uwuntu">Object</text><path d="M405.56,49h-16.465c-0.552,0,-1,0.448,-1,1v16c0,0.552,0.448,1,1,1h16.465c0.334,0,0.647,-0.167,0.832,-0.445l5.333,-8c0.224,-0.336,0.224,-0.774,0,-1.11l-5.333,-8c-0.185,-0.278,-0.498,-0.445,-0.832,-0.445z" fill="#F55C1A"></path><text x="382.56" y="61.5" fill="white" text-anchor="end" font-size="medium" class="uwuntu"></text><rect x="388.56" y="73" width="22" height="15" rx="1" fill="#EA2E50"></rect><text x="382.56" y="85.5" fill="white" text-anchor="end" font-size="medium" class="uwuntu">Success</text><path d="M160, 41 v-31 q0,-10,10,-10 h218.56 q10,0,10,10 v31 h-238.56" fill="#525152"></path><text x="279.28" y="29.5" fill="white" text-anchor="middle" font-size="18px" class="uwuntu">Unequip Object</text></svg>