<svg width="800" height="127" xmlns="http://www.w3.org/2000/svg" viewbox="0 0 800 127"><path fill="#818081" d="M72, 41 v76 q0,10,10,10 h345.1 q10,0,10,-10 v-76 h365.1"></path><path d="M77,49h-16.465c-0.552,0,-1,0.448,-1,1v16c0,0.552,0.448,1,1,1h16.465c0.334,0,0.647,-0.167,0.832,-0.445l5.333,-8c0.224,-0.336,0.224,-0.774,0,-1.11l-5.333,-8c-0.185,-0.278,-0.498,-0.445,-0.832,-0.445z" fill="#F55C1A"></path><text x="88" y="61.5" fill="white" text-anchor="start" font-size="medium" class="uwuntu"></text><rect x="60" y="73" width="22" height="15" rx="1" fill="#F5C51F"></rect><text x="88" y="85.5" fill="white" text-anchor="start" font-size="medium" class="uwuntu">Spawn Point</text><g filter="url(#filter0_di_2556_19132)"><rect x="60" y="94" width="22" height="15" rx="1" fill="#784283"></rect></g><g filter="url(#filter1_di_2556_19132)"><rect x="6" y="90" width="45" height="23" rx="1" fill="#784283"></rect><rect x="10" y="94.001" width="37" height="15" rx="1" fill="#818081"></rect></g><g filter="url(#filter2_di_2556_19132)"><rect x="51" y="98" width="9" height="7" fill="#784283"></rect></g><text x="88" y="106.5" fill="white" text-anchor="start" font-size="medium" class="uwuntu">Role</text><path d="M444.1,49h-16.465c-0.552,0,-1,0.448,-1,1v16c0,0.552,0.448,1,1,1h16.465c0.334,0,0.647,-0.167,0.832,-0.445l5.333,-8c0.224,-0.336,0.224,-0.774,0,-1.11l-5.333,-8c-0.185,-0.278,-0.498,-0.445,-0.832,-0.445z" fill="#F55C1A"></path><text x="421.1" y="61.5" fill="white" text-anchor="end" font-size="medium" class="uwuntu"></text><rect x="427.1" y="73" width="22" height="15" rx="1" fill="#EA2E50"></rect><text x="421.1" y="85.5" fill="white" text-anchor="end" font-size="medium" class="uwuntu">Success</text><path d="M72, 41 v-31 q0,-10,10,-10 h345.1 q10,0,10,10 v31 h-365.1" fill="#525152"></path><text x="254.55" y="29.5" fill="white" text-anchor="middle" font-size="18px" class="uwuntu">Respawn Point Add Avoid Role</text></svg>