<svg xmlns="http://www.w3.org/2000/svg" width="609.046875" height="77" viewbox="0 0 609.046875 77"><defs><style>.ubuntu {font-family: 'Ubuntu', sans-serif;}</style></defs><path fill="#818081" d="M72, 41 v26 q0,10,10,10 h445.046875 q10,0,10,-10 v-26 h465.046875" /><g><rect x="60" y="49" width="22" height="15" fill="#F5C51F" rx="1" /><rect x="6" y="46" width="45" height="21" rx="1" fill="#F5C51F" /><rect x="10" y="50.001" width="37" height="13" rx="1" fill="#818081" /><rect x="51" y="53" width="9" height="7" rx="1" fill="#F5C51F" /></g><text x="88" y="63" fill="white" text-anchor="start" font-size="18px" class="ubuntu">Target</text><rect x="527.046875" y="49" width="22" height="15" rx="1" fill="#EA2E50" /><text x="521.046875" y="63" fill="white" text-anchor="end" font-size="18px" class="ubuntu">Enabled</text><path d="M72, 41 v-31 q0,-10,10,-10 h445.046875 q10,0,10,10 v31 h-465.046875" fill="#525152" /><text text-anchor="middle" fill="white" font-size="18px" x="304.5234375" y="26.5" class="ubuntu">Get Player World UI Secondary Bar Enabled</text></svg>