<svg width="800" height="335.94" xmlns="http://www.w3.org/2000/svg" viewbox="0 0 800 335.94"><path fill="#818081" d="M160, 41 v76 q0,10,10,10 h315.94 q10,0,10,-10 v-76 h335.94"></path><rect x="148" y="49" width="22" height="15" rx="1" fill="#F5C51F"></rect><text x="176" y="61.5" fill="white" text-anchor="start" font-size="medium" class="uwuntu">From</text><rect x="148" y="70" width="22" height="15" rx="1" fill="#F5C51F"></rect><text x="176" y="82.5" fill="white" text-anchor="start" font-size="medium" class="uwuntu">To</text><g filter="url(#filter0_di_2556_19132)"><rect x="148" y="91" width="22" height="15" rx="1" fill="#186BDD"></rect></g><g filter="url(#filter1_di_2556_19132)"><rect x="94" y="87" width="45" height="23" rx="1" fill="#186BDD"></rect><rect x="98" y="91.001" width="37" height="15" rx="1" fill="#818081"></rect></g><g filter="url(#filter2_di_2556_19132)"><rect x="139" y="95" width="9" height="7" fill="#186BDD"></rect></g><text x="176" y="103.5" fill="white" text-anchor="start" font-size="medium" class="uwuntu">MaxDegreesDelta</text><rect x="485.94" y="49" width="22" height="15" rx="1" fill="#F5C51F"></rect><text x="479.94" y="61.5" fill="white" text-anchor="end" font-size="medium" class="uwuntu">Result</text><path d="M160, 41 v-31 q0,-10,10,-10 h315.94 q10,0,10,10 v31 h-335.94" fill="#525152"></path><text x="327.97" y="29.5" fill="white" text-anchor="middle" font-size="18px" class="Uwuntu">Quaternion Rotate Towards</text></svg>