<svg width="800" height="202" xmlns="http://www.w3.org/2000/svg" viewbox="0 0 800 202"><path fill="#818081" d="M72, 41 v151 q0,10,10,10 h218.38 q10,0,10,-10 v-151 h238.38"></path><path d="M77,49h-16.465c-0.552,0,-1,0.448,-1,1v16c0,0.552,0.448,1,1,1h16.465c0.334,0,0.647,-0.167,0.832,-0.445l5.333,-8c0.224,-0.336,0.224,-0.774,0,-1.11l-5.333,-8c-0.185,-0.278,-0.498,-0.445,-0.832,-0.445z" fill="#F55C1A"></path><text x="88" y="61.5" fill="white" text-anchor="start" font-size="medium" class="uwuntu">Reflect Velocity</text><rect x="60" y="73" width="22" height="15" rx="1" fill="#F6EEE8"></rect><text x="88" y="85.5" fill="white" text-anchor="start" font-size="medium" class="uwuntu">Target</text><g filter="url(#filter0_di_2556_19132)"><rect x="60" y="94" width="22" height="15" rx="1" fill="#186BDD"></rect></g><g filter="url(#filter1_di_2556_19132)"><rect x="6" y="91" width="45" height="21" rx="1" fill="#186BDD"></rect><rect x="10" y="95.001" width="37" height="13" rx="1" fill="#818081"></rect></g><g filter="url(#filter2_di_2556_19132)"><rect x="51" y="98" width="9" height="7" fill="#186BDD"></rect></g><text x="88" y="106.5" fill="white" text-anchor="start" font-size="medium" class="uwuntu">Additional Speed (m/s)</text><g filter="url(#filter0_di_2556_19132)"><rect x="60" y="115" width="22" height="15" rx="1" fill="#186BDD"></rect></g><g filter="url(#filter1_di_2556_19132)"><rect x="6" y="112" width="45" height="21" rx="1" fill="#186BDD"></rect><rect x="10" y="116.001" width="37" height="13" rx="1" fill="#818081"></rect></g><g filter="url(#filter2_di_2556_19132)"><rect x="51" y="119" width="9" height="7" fill="#186BDD"></rect></g><text x="88" y="127.5" fill="white" text-anchor="start" font-size="medium" class="uwuntu">Speed Multiplier</text><rect x="60" y="136" width="22" height="15" rx="1" fill="#F5C51F"></rect><text x="88" y="148.5" fill="white" text-anchor="start" font-size="medium" class="uwuntu">Direction</text><g filter="url(#filter0_di_2556_19132)"><rect x="60" y="157" width="22" height="15" rx="1" fill="#186BDD"></rect></g><g filter="url(#filter1_di_2556_19132)"><rect x="6" y="154" width="45" height="21" rx="1" fill="#186BDD"></rect><rect x="10" y="158.001" width="37" height="13" rx="1" fill="#818081"></rect></g><g filter="url(#filter2_di_2556_19132)"><rect x="51" y="161" width="9" height="7" fill="#186BDD"></rect></g><text x="88" y="169.5" fill="white" text-anchor="start" font-size="medium" class="uwuntu">Maximum Speed (m/s)</text><path d="M317.38,49h-16.465c-0.552,0,-1,0.448,-1,1v16c0,0.552,0.448,1,1,1h16.465c0.334,0,0.647,-0.167,0.832,-0.445l5.333,-8c0.224,-0.336,0.224,-0.774,0,-1.11l-5.333,-8c-0.185,-0.278,-0.498,-0.445,-0.832,-0.445z" fill="#F55C1A"></path><text x="294.38" y="61.5" fill="white" text-anchor="end" font-size="medium" class="uwuntu"></text><path d="M72, 41 v-31 q0,-10,10,-10 h218.38 q10,0,10,10 v31 h-238.38" fill="#525152"></path><text x="191.19" y="29.5" fill="white" text-anchor="middle" font-size="18px" class="uwuntu">Velocity Reflect</text></svg>