<svg width="489.29999999999995" height="302" xmlns="http://www.w3.org/2000/svg" viewbox="0 0 489.29999999999995 302"><path fill="#818081" d="M72, 41 v251 q0,10,10,10 h325.29999999999995 q10,0,10,-10 v-251 h345.29999999999995"></path><path d="M77,49h-16.465c-0.552,0,-1,0.448,-1,1v16c0,0.552,0.448,1,1,1h16.465c0.334,0,0.647,-0.167,0.832,-0.445l5.333,-8c0.224,-0.336,0.224,-0.774,0,-1.11l-5.333,-8c-0.185,-0.278,-0.498,-0.445,-0.832,-0.445z" fill="#F55C1A"></path><text x="88" y="61.5" fill="white" text-anchor="start" font-size="medium" class="uwuntu"></text><rect x="60" y="73" width="22" height="15" rx="1" fill="#F5C51F"></rect><text x="88" y="85.5" fill="white" text-anchor="start" font-size="medium" class="uwuntu">Target</text><g filter="url(#filter0_di_2556_19132)"><rect x="60" y="94" width="22" height="15" rx="1" fill="#EA2E50"></rect></g><g filter="url(#filter1_di_2556_19132)"><rect x="6" y="91" width="45" height="21" rx="1" fill="#EA2E50"></rect><rect x="10" y="95.001" width="37" height="13" rx="1" fill="#818081"></rect></g><g filter="url(#filter2_di_2556_19132)"><rect x="51" y="98" width="9" height="7" fill="#EA2E50"></rect></g><text x="88" y="106.5" fill="white" text-anchor="start" font-size="medium" class="uwuntu">Button 1 Enabled</text><g filter="url(#filter0_di_2556_19132)"><rect x="60" y="115" width="22" height="15" rx="1" fill="#784283"></rect></g><g filter="url(#filter1_di_2556_19132)"><rect x="6" y="112" width="45" height="21" rx="1" fill="#784283"></rect><rect x="10" y="116.001" width="37" height="13" rx="1" fill="#818081"></rect></g><g filter="url(#filter2_di_2556_19132)"><rect x="51" y="119" width="9" height="7" fill="#784283"></rect></g><text x="88" y="127.5" fill="white" text-anchor="start" font-size="medium" class="uwuntu">Button 1 Text</text><g filter="url(#filter0_di_2556_19132)"><rect x="60" y="136" width="22" height="15" rx="1" fill="#EA2E50"></rect></g><g filter="url(#filter1_di_2556_19132)"><rect x="6" y="133" width="45" height="21" rx="1" fill="#EA2E50"></rect><rect x="10" y="137.001" width="37" height="13" rx="1" fill="#818081"></rect></g><g filter="url(#filter2_di_2556_19132)"><rect x="51" y="140" width="9" height="7" fill="#EA2E50"></rect></g><text x="88" y="148.5" fill="white" text-anchor="start" font-size="medium" class="uwuntu">Button 2 Enabled</text><g filter="url(#filter0_di_2556_19132)"><rect x="60" y="157" width="22" height="15" rx="1" fill="#784283"></rect></g><g filter="url(#filter1_di_2556_19132)"><rect x="6" y="154" width="45" height="21" rx="1" fill="#784283"></rect><rect x="10" y="158.001" width="37" height="13" rx="1" fill="#818081"></rect></g><g filter="url(#filter2_di_2556_19132)"><rect x="51" y="161" width="9" height="7" fill="#784283"></rect></g><text x="88" y="169.5" fill="white" text-anchor="start" font-size="medium" class="uwuntu">Button 2 Text</text><g filter="url(#filter0_di_2556_19132)"><rect x="60" y="178" width="22" height="15" rx="1" fill="#EA2E50"></rect></g><g filter="url(#filter1_di_2556_19132)"><rect x="6" y="175" width="45" height="21" rx="1" fill="#EA2E50"></rect><rect x="10" y="179.001" width="37" height="13" rx="1" fill="#818081"></rect></g><g filter="url(#filter2_di_2556_19132)"><rect x="51" y="182" width="9" height="7" fill="#EA2E50"></rect></g><text x="88" y="190.5" fill="white" text-anchor="start" font-size="medium" class="uwuntu">Button 3 Enabled</text><g filter="url(#filter0_di_2556_19132)"><rect x="60" y="199" width="22" height="15" rx="1" fill="#784283"></rect></g><g filter="url(#filter1_di_2556_19132)"><rect x="6" y="196" width="45" height="21" rx="1" fill="#784283"></rect><rect x="10" y="200.001" width="37" height="13" rx="1" fill="#818081"></rect></g><g filter="url(#filter2_di_2556_19132)"><rect x="51" y="203" width="9" height="7" fill="#784283"></rect></g><text x="88" y="211.5" fill="white" text-anchor="start" font-size="medium" class="uwuntu">Button 3 Text</text><g filter="url(#filter0_di_2556_19132)"><rect x="60" y="220" width="22" height="15" rx="1" fill="#EA2E50"></rect></g><g filter="url(#filter1_di_2556_19132)"><rect x="6" y="217" width="45" height="21" rx="1" fill="#EA2E50"></rect><rect x="10" y="221.001" width="37" height="13" rx="1" fill="#818081"></rect></g><g filter="url(#filter2_di_2556_19132)"><rect x="51" y="224" width="9" height="7" fill="#EA2E50"></rect></g><text x="88" y="232.5" fill="white" text-anchor="start" font-size="medium" class="uwuntu">Button 4 Enabled</text><g filter="url(#filter0_di_2556_19132)"><rect x="60" y="241" width="22" height="15" rx="1" fill="#784283"></rect></g><g filter="url(#filter1_di_2556_19132)"><rect x="6" y="238" width="45" height="21" rx="1" fill="#784283"></rect><rect x="10" y="242.001" width="37" height="13" rx="1" fill="#818081"></rect></g><g filter="url(#filter2_di_2556_19132)"><rect x="51" y="245" width="9" height="7" fill="#784283"></rect></g><text x="88" y="253.5" fill="white" text-anchor="start" font-size="medium" class="uwuntu">Button 4 Text</text><path d="M424.29999999999995,49h-16.465c-0.552,0,-1,0.448,-1,1v16c0,0.552,0.448,1,1,1h16.465c0.334,0,0.647,-0.167,0.832,-0.445l5.333,-8c0.224,-0.336,0.224,-0.774,0,-1.11l-5.333,-8c-0.185,-0.278,-0.498,-0.445,-0.832,-0.445z" fill="#F55C1A"></path><text x="401.29999999999995" y="61.5" fill="white" text-anchor="end" font-size="medium" class="uwuntu"></text><path d="M72, 41 v-31 q0,-10,10,-10 h325.29999999999995 q10,0,10,10 v31 h-345.29999999999995" fill="#525152"></path><text x="244.64999999999998" y="26.5" fill="white" text-anchor="middle" font-size="18px" class="uwuntu">Dialogue UI Set Button State</text></svg>