<svg width="800" height="166.01999999999998" xmlns="http://www.w3.org/2000/svg" viewbox="0 0 800 166.01999999999998"><path fill="#818081" d="M160, 41 v76 q0,10,10,10 h146.01999999999998 q10,0,10,-10 v-76 h166.01999999999998"></path><rect x="148" y="49" width="22" height="15" rx="1" fill="#F6EEE8"></rect><text x="176" y="61.5" fill="white" text-anchor="start" font-size="medium" class="uwuntu">Value</text><rect x="148" y="70" width="22" height="15" rx="1" fill="#F6EEE8"></rect><text x="176" y="82.5" fill="white" text-anchor="start" font-size="medium" class="uwuntu">Min</text><rect x="148" y="91" width="22" height="15" rx="1" fill="#F6EEE8"></rect><text x="176" y="103.5" fill="white" text-anchor="start" font-size="medium" class="uwuntu">Max</text><rect x="316.02" y="49" width="22" height="15" rx="1" fill="#F6EEE8"></rect><text x="310.02" y="61.5" fill="white" text-anchor="end" font-size="medium" class="uwuntu">Result</text><path d="M160, 41 v-31 q0,-10,10,-10 h146.01999999999998 q10,0,10,10 v31 h-166.01999999999998" fill="#525152"></path><text x="243.01" y="29.5" fill="white" text-anchor="middle" font-size="18px" class="Uwuntu">Clamp</text></svg>