<svg width="310.02" height="127" xmlns="http://www.w3.org/2000/svg" viewbox="0 0 310.02 127"><path fill="#818081" d="M72, 41 v76 q0,10,10,10 h146.01999999999998 q10,0,10,-10 v-76 h166.01999999999998"></path><rect x="60" y="49" width="22" height="15" rx="1" fill="#F6EEE8"></rect><text x="88" y="61.5" fill="white" text-anchor="start" font-size="medium" class="uwuntu">Value</text><rect x="60" y="70" width="22" height="15" rx="1" fill="#F6EEE8"></rect><text x="88" y="82.5" fill="white" text-anchor="start" font-size="medium" class="uwuntu">Min</text><rect x="60" y="91" width="22" height="15" rx="1" fill="#F6EEE8"></rect><text x="88" y="103.5" fill="white" text-anchor="start" font-size="medium" class="uwuntu">Max</text><rect x="228.01999999999998" y="49" width="22" height="15" rx="1" fill="#F6EEE8"></rect><text x="222.01999999999998" y="61.5" fill="white" text-anchor="end" font-size="medium" class="uwuntu">Result</text><path d="M72, 41 v-31 q0,-10,10,-10 h146.01999999999998 q10,0,10,10 v31 h-166.01999999999998" fill="#525152"></path><text x="155.01" y="26.5" fill="white" text-anchor="middle" font-size="18px" class="uwuntu">Clamp</text></svg>